<?xml version="1.0" encoding="UTF-8" standalone="no"?>
<svg
   fill="none"
   height="2500"
   viewBox="0 0 330.706 320.703"
   width="2500"
   version="1.1"
   id="svg3"
   sodipodi:docname="gumroad.svg"
   inkscape:export-filename="gumroad_.svg"
   inkscape:export-xdpi="96"
   inkscape:export-ydpi="96"
   inkscape:version="1.3 (0e150ed6c4, 2023-07-21)"
   xmlns:inkscape="http://www.inkscape.org/namespaces/inkscape"
   xmlns:sodipodi="http://sodipodi.sourceforge.net/DTD/sodipodi-0.dtd"
   xmlns="http://www.w3.org/2000/svg"
   xmlns:svg="http://www.w3.org/2000/svg">
  <defs
     id="defs3" />
  <sodipodi:namedview
     id="namedview3"
     pagecolor="#ffffff"
     bordercolor="#000000"
     borderopacity="0.25"
     inkscape:showpageshadow="2"
     inkscape:pageopacity="0.0"
     inkscape:pagecheckerboard="0"
     inkscape:deskcolor="#d1d1d1"
     inkscape:zoom="0.1626"
     inkscape:cx="418.20418"
     inkscape:cy="1140.8364"
     inkscape:window-width="1920"
     inkscape:window-height="1009"
     inkscape:window-x="1912"
     inkscape:window-y="-8"
     inkscape:window-maximized="1"
     inkscape:current-layer="svg3" />
  <path
     id="path1"
     d="m 283.9561,84.918638 c 9.02049,18.494512 14.09304,39.162572 14.09304,61.018062 0,79.34817 -66.55407,143.20588 -148.06958,143.20588 -24.24233,0 -47.13938,-5.68435 -67.378329,-15.70804 25.660089,27.09527 62.568409,44.09678 103.595199,44.09678 77.50375,0 140.33275,-60.6509 140.33275,-135.46803 0,-38.11409 -16.32877,-72.52874 -42.57308,-97.144652 z"
     style="fill:#000000;fill-opacity:1;stroke-width:0.981595" />
  <path
     d="m 151.489,286.71116 c 79.2613,0 143.97488,-62.09171 143.97488,-139.24558 C 295.46388,70.312654 230.7503,8.2199918 151.489,8.2199918 72.22866,8.2199918 7.5141253,70.312654 7.5141253,147.46558 c 0,77.15387 64.7145347,139.24558 143.9748747,139.24558 z"
     fill="#ff90e8"
     stroke="#000000"
     stroke-width="1.4918"
     id="path2"
     style="display:inline;fill:none;fill-opacity:1;stroke-width:7.936944;stroke-dasharray:none" />
  <path
     d="m 140.65982,217.71592 c -40.29399,0 -63.995834,-32.55627 -63.995834,-73.05356 0,-42.08645 26.071744,-76.230926 75.845324,-76.230926 51.35511,0 68.73563,34.939536 69.52591,54.790176 h -37.13285 c -0.78933,-11.11648 -10.27083,-27.791665 -33.18239,-27.791665 -24.49117,0 -40.29304,21.439805 -40.29304,47.644215 0,26.2044 15.80187,47.64325 40.29304,47.64325 22.12223,0 31.60277,-17.46929 35.55324,-34.93762 h -35.55324 v -14.29384 h 74.60168 v 73.05356 h -32.72807 v -46.056 c -2.37086,16.67614 -12.64169,49.23241 -52.93377,49.23241 z"
     fill="#000000"
     id="path3"
     style="display:inline;stroke-width:0.954449" />
</svg>
