<?xml version="1.0" encoding="UTF-8" standalone="no"?>
<svg
   id="Layer_1"
   viewBox="0 0 1000 1000"
   version="1.1"
   sodipodi:docname="kofi.svg"
   inkscape:version="1.3 (0e150ed6c4, 2023-07-21)"
   xmlns:inkscape="http://www.inkscape.org/namespaces/inkscape"
   xmlns:sodipodi="http://sodipodi.sourceforge.net/DTD/sodipodi-0.dtd"
   xmlns="http://www.w3.org/2000/svg"
   xmlns:svg="http://www.w3.org/2000/svg">
  <sodipodi:namedview
     id="namedview6"
     pagecolor="#4f4f4f"
     bordercolor="#000000"
     borderopacity="0.25"
     inkscape:showpageshadow="2"
     inkscape:pageopacity="0.0"
     inkscape:pagecheckerboard="0"
     inkscape:deskcolor="#d1d1d1"
     inkscape:zoom="0.813"
     inkscape:cx="499.38499"
     inkscape:cy="500"
     inkscape:window-width="1920"
     inkscape:window-height="1009"
     inkscape:window-x="1912"
     inkscape:window-y="-8"
     inkscape:window-maximized="1"
     inkscape:current-layer="Layer_1" />
  <defs
     id="defs2">
    <style
       id="style1">.cls-1{fill:url(#linear-gradient);}.cls-2{fill:#fff;}.cls-3{fill:#ff5e5b;}</style>
    <linearGradient
       id="linear-gradient"
       x1="336.01"
       y1="4124.64"
       x2="421.72"
       y2="3861.61"
       gradientTransform="translate(4.1 4362.59) scale(1 -1)"
       gradientUnits="userSpaceOnUse">
      <stop
         offset="0"
         stop-color="#ff4ea3"
         id="stop1"
         style="stop-color:#000000;stop-opacity:1;" />
      <stop
         offset="1"
         stop-color="#ff5e5b"
         id="stop2"
         style="stop-color:#000000;stop-opacity:1;" />
    </linearGradient>
  </defs>
  <path
     id="path2"
     style="display:inline;stroke-width:1.48294"
     class="cls-2"
     d="m 71.531158,201.33583 c -23.623163,0 -33.395053,23.62413 -33.395053,35.42829 v 7.87522 c 0,0 -1.91333,298.58705 1.86816,459.69321 5.827929,94.32956 100.159085,94.33162 100.159085,94.33162 0,0 308.36088,0.0152 457.66287,-1.86816 7.8744,0 13.70351,-0.002 21.57789,-1.9 84.42356,-21.57672 92.29838,-100.15799 92.29838,-143.45972 169.12884,7.59264 288.97741,-112.24218 257.643,-271.31671 l 0.0174,0.0145 C 955.66054,311.311 920.23299,268.15638 881.00934,242.63506 841.78569,215.08211 794.55323,201.36479 747.45518,201.36479 Z M 713.90952,315.24107 h 45.2151 c 29.45111,0 57.00576,11.8196 76.55086,35.44278 13.70233,15.74878 23.62308,37.32579 23.60825,68.82335 0,72.60454 -37.32744,102.05369 -80.4957,115.75601 v -0.0145 c -35.42734,3.92979 -64.87851,1.90002 -64.87851,1.90002 z m -242.5964,27.15918 c 12.72217,-0.0322 26.23921,2.34596 40.23626,8.25173 72.75279,31.34924 70.70648,115.90695 27.5531,166.93474 -0.004,0.005 -0.0103,0.01 -0.0145,0.0145 -3.06701,3.54904 -6.3623,7.26129 -9.84764,11.09887 -1.39701,1.53826 -2.94733,3.17589 -4.40247,4.75292 -2.18011,2.36266 -4.29921,4.68486 -6.59501,7.12216 -0.005,0.006 -0.009,0.0117 -0.0145,0.0174 -3.14079,3.33416 -6.70027,6.91038 -10.01852,10.3516 -4.7712,4.94797 -9.38473,9.80715 -14.40941,14.8815 -8.19423,8.2755 -16.6413,16.63627 -25.04193,24.85658 -0.32816,0.3211 -0.65098,0.64966 -0.97898,0.97029 -0.005,0.005 -0.01,0.01 -0.0145,0.0145 -8.72469,8.52846 -17.39278,16.88524 -25.67625,24.79866 -0.005,0.005 -0.01,0.01 -0.0145,0.0145 -16.56951,15.82907 -31.60512,29.88475 -42.49832,39.98138 -0.004,0.004 -0.0107,0.0109 -0.0145,0.0145 -10.88067,10.08481 -17.63595,16.22832 -17.63595,16.22832 0,0 -0.0281,0.0223 -0.029,0.0232 -0.0789,0.0783 -3.81315,3.76207 -8.14168,2.89637 h -0.0145 c -1.89816,-0.29659 -3.65011,-1.31912 -5.10339,-2.62411 -0.33337,-0.30108 -2.04397,-1.85469 -2.47928,-2.24758 -10e-4,0.0331 -0.0116,0.0456 -0.0116,0.0811 C 348.49932,655.08447 234.49318,553.014 208.98672,517.58672 182.29132,479.58385 168.5985,415.5926 201.71974,375.97198 c 1.06355,-1.27292 2.17533,-2.52111 3.33661,-3.7421 0.004,-0.004 0.008,-0.008 0.0116,-0.0116 l 0.003,-0.003 c 1.16173,-1.22081 2.36565,-2.40804 3.60887,-3.55963 0.005,-0.005 0.009,-0.01 0.0145,-0.0145 1.24357,-1.15136 2.52848,-2.26483 3.84927,-3.3453 39.78749,-32.54828 113.64325,-32.56119 163.40695,22.66693 0.0116,-0.0131 0.95053,-1.07348 2.75444,-2.88477 1.80921,-1.81752 4.47733,-4.37843 7.91866,-7.35966 0.005,-0.004 0.01,-0.0104 0.0145,-0.0145 1.71538,-1.48557 3.62592,-3.07323 5.71164,-4.72398 16.73729,-13.24682 45.0261,-30.4939 78.96351,-30.57978 z" />
</svg>
