<?xml version="1.0" encoding="UTF-8" standalone="no"?>
<svg
   width="222"
   height="222"
   viewBox="0 0 222 222"
   version="1.1"
   id="svg24"
   sodipodi:docname="neocities.svg"
   inkscape:version="1.4 (86a8ad7, 2024-10-11)"
   xmlns:inkscape="http://www.inkscape.org/namespaces/inkscape"
   xmlns:sodipodi="http://sodipodi.sourceforge.net/DTD/sodipodi-0.dtd"
   xmlns="http://www.w3.org/2000/svg"
   xmlns:svg="http://www.w3.org/2000/svg">
  <defs
     id="defs24" />
  <sodipodi:namedview
     id="namedview24"
     pagecolor="#ffffff"
     bordercolor="#000000"
     borderopacity="0.25"
     inkscape:showpageshadow="2"
     inkscape:pageopacity="0.0"
     inkscape:pagecheckerboard="0"
     inkscape:deskcolor="#d1d1d1"
     showguides="true"
     inkscape:zoom="2.5704287"
     inkscape:cx="143.94486"
     inkscape:cy="103.29016"
     inkscape:window-width="1920"
     inkscape:window-height="1009"
     inkscape:window-x="1912"
     inkscape:window-y="-8"
     inkscape:window-maximized="1"
     inkscape:current-layer="svg24" />
  <path
     id="path3"
     style="display:inline;fill:#000000"
     d="m 153.49356,19.244 c -0.778,0.644 -1.54011,1.316188 -2.16211,2.117188 -2.052,2.614 -4.37614,5.008922 -6.36914,7.669922 2.25,1.307 4.19727,3.035359 6.07227,4.818359 1.299,1.542 2.64673,3.056 4.17773,4.375 1.411,0.403 2.90004,0.448625 4.33204,0.765625 -0.65501,-3.01 -1.22654,-6.048125 -2.26954,-8.953125 -0.631,-2.294 -1.45554,-4.531031 -2.06054,-6.832031 -0.403,-1.388 -1.06471,-2.681938 -1.72071,-3.960938 z m -55.03515,0.927735 c -0.32391,-0.02405 -0.64856,-0.02156 -0.97656,0.02344 -1.77103,0.229 -3.60718,0.478844 -5.20118,1.339844 -1.938,1.323 -3.66673,2.929406 -5.55273,4.316406 -2.543,1.41 -5.02347,2.935141 -7.48047,4.494141 -6.646,3.796 -12.55225,9.022953 -16.65625,15.501953 a 221.137,221.137 0 0 1 -2.617189,4.458984 c 2.096999,0.682 4.186359,1.418797 6.193359,2.341797 a 306.321,306.321 0 0 1 7.87305,4.455078 c 1.577,0.93 3.27808,1.698422 4.70508,2.857422 a 9.924,9.924 0 0 1 0.13086,0.447266 c -1.624,2.826 -3.98157,5.136359 -5.97657,7.693359 -1.716,2.725 -3.4915,5.407485 -5.1875,8.146485 -1.48,2.386 -2.76733,4.899765 -4.48633,7.134765 -1.31,1.769 -2.15837,3.920047 -3.85937,5.373047 -1.096,1.026 -2.706125,0.9665 -4.078125,0.6875 -1.349,-0.506 -2.508,-1.403187 -3.75,-2.117187 0.183,2.789 0.28214,5.64869 1.24414,8.30469 1.566,3.689 3.404735,7.255575 4.802735,11.017575 1.174,-4.07599 2.733437,-8.054985 4.89844,-11.708985 1.896,-3.620999 4.64181,-6.695265 7.38281,-9.697265 0.968,-1.08 2.13048,-2.00014 2.89648,-3.24414 1.317,-1.997 2.9628,-3.809688 3.8418,-6.054688 0.928,-2.381 2.49328,-4.426125 3.61328,-6.703125 1.096,-2.126 2.50863,-4.059906 3.89063,-6.003906 1.839,-2.964 4.19153,-5.592594 6.76953,-7.933594 5.583,-5.31 11.5368,-10.442047 18.63476,-13.623047 -1.42896,-2.382 -3.31287,-4.439359 -4.92187,-6.693359 -1.625,-2.334 -3.83958,-4.164891 -6.01758,-5.962891 -2.118,-1.68 -4.7384,-2.440515 -7.1914,-3.478515 0.434,-0.453 0.97881,-0.774688 1.63281,-0.679688 2.236,0.244 4.4674,0.810016 6.4414,1.916016 3.701,2.095 6.71863,5.13025 9.76563,8.03125 1.327,1.907 2.87834,3.628859 4.40234,5.380859 1.586,0.01 3.10253,-0.559281 4.64453,-0.863281 2.927,-0.532 5.83913,-1.220094 8.82813,-1.246094 -2.093,-2.536 -4.54102,-4.737047 -6.91602,-6.998047 -2.876,-2.678 -6.31673,-4.623 -9.42773,-7 -2.817,-1.813 -6.05058,-3.032015 -9.39258,-3.416015 -0.972,-0.11475 -1.93062,-0.425907 -2.90234,-0.498047 z m 15.42578,0.861328 c 1.852,1.58 4.05417,2.702766 5.82617,4.384766 2.864,2.111 5.4473,4.59139 7.7793,7.27539 1.578,1.551 3.22998,3.036828 4.58398,4.798828 4.914,-0.504 9.86878,-0.372578 14.80078,-0.642578 -1.56,-1.537 -3.53422,-2.538312 -5.19922,-3.945312 -3.039,-2.014 -6.25375,-3.763172 -9.34375,-5.701172 -3.257,-1.725 -6.71775,-3.048688 -10.21875,-4.179688 -2.655,-0.949 -5.34451,-2.141234 -8.22851,-1.990234 z m 101.79101,6.18164 c -3.695,3.028001 -7.03776,6.461016 -9.88476,10.291016 -1.357,1.94 -1.89074,4.278781 -2.80274,6.425781 -0.617,1.452 -0.86025,3.050235 -0.65625,4.615235 1.93,-0.496 3.61555,-1.64761 5.56055,-2.09961 1.412,-0.243 2.58659,0.836125 3.43359,1.828125 1.19301,1.479 2.9214,2.363532 4.4004,3.519532 0.761,-2.459 0.76614,-5.058704 0.49414,-7.595703 -0.322,-3.046 -0.26624,-6.119297 -0.74024,-9.154297 -0.408,-2.607 -0.0197,-5.225078 0.19531,-7.830079 z m -70.54492,15.31836 c -0.48597,0.01175 -0.97211,0.03728 -1.45898,0.08203 -3.298,0.265 -6.60258,0.356797 -9.89258,0.716797 -4.178,0.172 -8.25691,1.120609 -12.37891,1.724609 -3.195,0.608 -6.46495,1.00375 -9.50195,2.21875 -3.454,1.364 -6.65873,3.266891 -9.80273,5.212891 -1.616,1.086 -3.15185,2.309188 -4.46485,3.742188 -3.31,3.532999 -7.05312,6.714687 -9.70312,10.804687 -1.77301,2.428 -3.21614,5.059719 -4.74414,7.636719 0.974,-0.378 1.96537,-0.733203 2.85937,-1.283203 2.322,-1.468 4.9583,-2.342079 7.4043,-3.580079 5.671,-2.040998 11.12105,-4.757328 16.99805,-6.236328 5.858,-1.386 11.56746,-3.334859 17.48046,-4.505859 2.852,-0.326 5.65544,-0.969359 8.52344,-1.193359 2.246,-0.456 4.55245,-0.2045 6.81445,-0.5625 2.985,-0.483 6.01068,-0.06872 9.01368,-0.01172 4.391,0.153 8.80476,0.604875 13.00976,1.921875 1.656,0.537 3.11294,1.51164 4.71094,2.18164 1.49,0.609001 2.78289,1.586766 4.08789,2.509766 -0.17,-5.081 -2.58464,-9.735031 -5.43164,-13.832031 -2.036,-2.485 -4.71498,-4.450719 -7.83398,-5.511719 -1.909,-0.649 -3.60372,-1.218734 -5.51172,-1.302734 -3.39413,-0.175 -6.77596,-0.814672 -10.17774,-0.732422 z M 39.4545,50.913922 c -0.359264,-0.01152 -0.724125,0.027 -1.101562,0.140625 0.355,1.08 0.66225,2.181891 1.15625,3.212891 1.524,3.194 1.993922,6.801094 3.794922,9.871094 2.875,5.206 4.453093,11.208093 8.621093,15.621093 1.474,1.873 2.751922,3.932016 4.669922,5.416016 1.202,-1.727 2.221282,-3.574719 3.488282,-5.261719 0.980997,-1.378 1.636093,-2.812437 2.496093,-4.398437 1.113,-2.06 2.23355,-4.123078 3.56055,-5.955078 1.871,-2.584 3.79556,-5.12836 5.85156,-7.56836 -2.32,-0.622 -4.42144,-1.80097 -6.64844,-2.667968 -4.284998,-1.956 -8.28106,-4.785422 -13.03906,-5.482422 -2.799,-0.408 -5.455344,-1.47925 -8.277344,-1.78125 -1.5925,-0.08856 -3.015455,-1.096583 -4.572266,-1.146485 z m 168.28711,0.435547 c -1.632,0.752 -3.31837,1.423016 -5.10937,1.666016 a 40.644,40.644 0 0 0 2.03906,11.769531 294.16,294.16 0 0 1 3.02734,0.980469 c 2.5,-2.882 4.21785,-6.356985 5.71485,-9.833985 -1.837,-1.593 -3.93488,-2.864031 -5.67188,-4.582031 z m -58.88672,10.439453 c -2.3715,-0.01533 -4.74539,0.310422 -7.11914,0.326172 -6.043,0.68 -12.08148,1.56986 -18.02148,2.880859 -2.112,0.424 -4.19841,0.987313 -6.19141,1.820313 -4.142,1.182 -7.51558,2.132016 -12.14258,3.666016 -1.715,0.61 -3.61222,1.248562 -5.32422,1.851562 -4.038,1.701 -8.12998,2.896328 -11.95898,5.486328 -1.713,1.16 -3.67724,1.9345 -5.24024,3.3125 -1.836,1.725 -4.02095,3.013844 -5.87695,4.714844 -2.138,1.613 -3.78183,3.747094 -5.67383,5.621094 -2.585,2.665005 -4.44779,5.911675 -6.21679,9.13868 a 63.518,63.518 0 0 0 -2.11915,6.88866 c 0.747,2.07801 2.081,3.87563 3.375,5.64063 1.84901,2.67601 4.12163,4.70333 6.76563,6.61133 0.936,-2.57599 1.66111,-5.25994 3.16211,-7.58594 1.519,-2.70799 3.78404,-4.87266 5.99805,-7.01367 1.093,-0.93 2.28148,-1.6113 3.77148,-1.7793 1.056,-0.021 2.3673,1.23695 1.5293,2.25194 -1.371,1.37601 -2.94764,2.55335 -4.18164,4.07032 -3.595,3.33101 -5.6766,7.93496 -6.8086,12.62696 2.046,1.22499 3.63261,2.66716 5.84961,3.57616 0.288,-2.09898 0.45836,-4.26166 1.31836,-6.22265 1.274,-2.869 3.17199,-5.43604 5.45899,-7.58204 1.613,-1.524 3.58418,-3.32452 5.86718,-3.76953 0.80904,-0.19 1.81469,0.0826 2.05469,0.97657 -0.346,1.68399 -2.24208,2.16943 -3.33008,3.27343 -2.51,2.613 -4.88815,5.48588 -6.16015,8.92188 -0.527,1.875 -0.79,3.85764 -0.625,5.80664 a 2.35,2.35 0 0 0 1.28125,0.78125 c 3.202,0.741 6.3012,1.26166 9.5332,1.84765 6.166,1.118 13.01167,-0.47722 19.38867,-0.94922 a 26.305,26.305 0 0 0 7.67188,-1.31639 h 0.002 c 2.228,-0.14901 4.39252,-0.7947 6.60352,-1.09571 2.453,-0.30299 5.09229,-1.25918 7.40429,-2.07618 2.517,-1.222 5.05749,-1.41747 7.52149,-2.77148 1.419,-0.778 3.01275,-1.34313 4.21875,-2.45312 0.001,-0.002 0.003,-0.004 0.004,-0.006 1.69739,-0.64402 3.24022,-1.62416 4.83594,-2.48046 2.142,-1.279 4.47053,-2.26115 6.39453,-3.86914 2.002,-1.66103 4.3031,-2.94518 6.1211,-4.82618 1.392,-1.484 2.99887,-2.81693 4.04687,-4.58593 0.431,-0.718 -0.24928,-1.43263 -0.61328,-2.01563 -1.511,-2.101995 -3.73416,-3.294705 -6.03516,-4.220705 -1.299,-0.524 -2.72021,-0.47547 -4.07421,-0.73046 -1.176,-0.309 -1.35369,-2.03033 -0.30469,-2.61133 2.198,-1.298 4.87431,-0.54458 7.07031,0.35742 2.861,0.947 4.97825,3.08484 7.28125,4.96484 0.648,-1.196 1.41017,-2.82914 1.82617,-4.11914 -0.685,-0.897 -1.34451,-1.84145 -2.22851,-2.56445 -1.711,-1.405002 -3.36763,-2.999611 -5.51563,-3.724611 -1.821,-0.586 -3.73908,-0.807265 -5.58008,-1.322265 -0.706,-0.156003 -1.40114,-0.851235 -1.11914,-1.615235 0.616,-1.099 2.05078,-1.199156 3.17578,-1.160156 1.711,0.164 3.47275,0.226469 5.09375,0.855469 2.491,0.834 4.52263,2.54564 6.51563,4.18164 0.01,-3.111 -0.48847,-5.913922 -1.35547,-8.919922 -0.904,-3.232 -1.23558,-6.639703 -2.64258,-9.720703 -0.798,-1.727 -2.35364,-2.9085 -3.80664,-4.0625 -1.773,-1.436 -3.84417,-2.445594 -5.95117,-3.308593 -4.051,-1.307001 -8.33773,-1.510313 -12.55273,-1.820313 -0.78975,-0.1045 -1.5806,-0.147234 -2.3711,-0.152344 z m 52.52735,7.181641 c -0.607,0.639 -0.68052,1.60225 -0.97852,2.40625 -1.572,4.86 -2.81412,9.827393 -3.45313,14.90039 1.618,0.598001 3.02555,1.607719 4.56055,2.386719 0.957,0.484 1.96827,0.209016 2.94727,0.166016 0.013,-2.464 0.52031,-4.896844 0.82031,-7.339844 0.321,-1.652 0.41367,-3.466859 0.63867,-5.130859 0.199,-2.348 1.02574,-4.492953 0.55274,-6.876953 -1.681,-0.29 -3.38289,-0.505719 -5.08789,-0.511719 z M 137.31974,73.994 c 1.40109,-0.06923 2.83487,0.735688 3.57812,1.929688 0.635,1.148 1.03152,2.439422 1.22852,3.732422 -0.029,1.655 -0.35307,3.369937 -1.16407,4.835937 -0.694,1.322999 -2.37142,1.938469 -3.73242,1.230469 -1.788,-0.939 -3.66386,-2.521359 -3.75586,-4.693359 -0.07,-1.408 -0.31704,-2.869141 0.12696,-4.244141 0.459,-1.051 1.32346,-1.916109 2.35546,-2.412109 0.43325,-0.23525 0.89625,-0.355827 1.36329,-0.378907 z m -27.86329,5.609375 c 1.458,0.0089 2.80457,0.934882 3.70118,2.064454 1.066,2.48 1.50884,5.403937 0.46484,7.960937 -1.311,2.053 -4.71495,2.956559 -6.62695,1.226563 -1.65053,-1.840001 -1.85053,-4.473219 -1.64453,-6.824219 0.063,-1.886 1.45376,-3.560922 3.13476,-4.294922 0.22713,-0.06513 0.45353,-0.105267 0.67774,-0.123047 0.0981,-0.0078 0.19576,-0.01036 0.29296,-0.0098 z m 24.5879,9.939454 c 0.59609,0.379148 1.33841,0.529096 2.00976,0.74414 0.59575,0.16275 1.18742,0.347094 1.77344,0.539063 -0.58602,-0.191922 -1.17574,-0.37461 -1.77149,-0.53711 -0.67275,-0.21525 -1.41553,-0.366205 -2.01171,-0.746093 z m 62.07617,1.71289 c -1.533,3.333996 -1.63042,7.045026 -2.60743,10.541011 -0.875,5.769 -1.42979,11.59274 -1.59179,17.42774 1.818,0.31001 3.66194,0.50553 5.46094,0.93555 a 29.755,29.755 0 0 1 0.7832,-2.76368 c 1.127,-3.47 1.59608,-7.09668 2.20508,-10.67968 0.485,-4.37 0.70995,-8.795035 1.75195,-13.082035 -2.229,-0.076 -4.16395,-1.23391 -6.00195,-2.378906 z m -55.66602,0.464844 c 0.87621,0.297467 1.75647,0.583202 2.65235,0.824222 0.60099,0.16225 1.18715,0.36398 1.76171,0.59375 -0.57456,-0.22972 -1.16072,-0.4298 -1.76171,-0.5918 -0.89626,-0.24112 -1.77634,-0.528248 -2.65235,-0.826172 z M 14.599031,92.386575 c -1.939,0.963 -3.932687,2.06344 -5.179687,3.89844 -2.097,3.326 -3.027344,7.253715 -3.277344,11.136715 0.156,1.745 0.290625,3.54492 1.015625,5.16992 0.788,1.947 1.950797,3.71084 3.091797,5.46484 1.313,1.652 3.062485,2.88381 4.646485,4.25781 1.896999,1.724 4.67389,1.23813 6.96289,1.95313 1.273,0.592 1.293297,2.26911 2.279297,3.16211 2.889,2.715 5.173938,5.98382 7.960937,8.79882 1.465,1.401 2.591141,3.10065 3.994141,4.55665 1.583,1.61899 2.751344,3.57995 4.277344,5.25195 1.913,-2.529 4.541875,-4.47091 7.296875,-6.00391 -3.321,-4.173 -6.392938,-8.53669 -9.585938,-12.80469 -1.823,-2.12 -3.503609,-4.36317 -4.849609,-6.82617 1.955,-2.364 5.183,-4.13547 5.5,-7.48047 0.92,-5.199 -1.241469,-10.2162 -3.105469,-14.949205 -1.586,-2.013 -3.329968,-4.11594 -5.792968,-5.08594 -0.155001,3.497 0.237046,6.98546 0.248046,10.480485 0,2.84399 0.143297,5.68333 0.279297,8.52733 0.073,1.065 -0.880484,1.99395 -1.896484,2.12695 -1.525,0.147 -3.047641,-0.0213 -4.556641,-0.19531 -2.441,-0.26001 -4.960453,-0.21596 -7.314453,-1.00195 -0.712,-0.204 -0.925953,-0.98552 -1.126953,-1.60352 -0.897,-2.53 -0.462141,-5.25195 -0.494141,-7.87694 10e-4,-3.654015 -0.277046,-7.302045 -0.373047,-10.957045 z m 132.787109,1.94727 c 0.81951,0.44101 1.6223,0.91339 2.41992,1.38477 0.30763,0.18 0.60036,0.37729 0.88086,0.58984 -0.27985,-0.21184 -0.57402,-0.40848 -0.88086,-0.58789 -0.79762,-0.47138 -1.60041,-0.9452 -2.41992,-1.38672 z m -13.15429,0.73828 c 1.07612,-0.0178 1.95359,0.98539 2.1289,1.99414 0.479,2.198 1.98006,3.942075 3.16406,5.789065 0.91,1.436 2.80089,2.9669 4.46289,2.3789 1.941,-0.688 3.19858,-2.41131 4.89258,-3.57031 1.216,-0.19799 1.43983,1.39782 1.67383,2.25781 0.097,1.73001 -1.79751,2.36638 -2.85352,3.35939 -1.64599,1.54 -3.90231,2.59986 -6.19531,2.17186 a 11.674,11.674 0 0 1 -0.67578,6.00195 c -1.114,1.648 -2.55319,3.5157 -4.74219,3.5957 -1.797,-0.018 -3.85643,-0.12311 -5.14843,-1.53711 -1.574,-1.75 -2.88382,-3.91594 -2.88282,-6.33594 -3.329,-0.05 -6.88253,0.27036 -9.89453,-1.43164 -0.9,-0.982 -1.73253,-2.5595 -0.89453,-3.8125 1.317,-1.33499 3.045,0.25724 4.5,0.49024 2.014,0.321 4.45617,0.82941 6.07617,-0.84961 1.611,-1.90899 2.62667,-4.25279 3.38868,-6.591785 0.40298,-1.246 -0.24799,-2.46482 0.66601,-3.38282 0.598,-0.45 1.40119,-0.43676 2.11719,-0.50976 0.0734,-0.0106 0.14505,-0.0164 0.2168,-0.0176 z m 0.2207,8.267575 c -0.464,1.679 -1.01625,3.35614 -1.90625,4.86914 -0.378,0.75 -1.06344,1.49749 -0.77344,2.39649 0.282,1.217 0.97245,2.33404 1.81445,3.24805 0.936,1.018 2.74457,0.66892 3.47657,-0.41211 0.644,-1.14298 0.58425,-2.49967 0.53125,-3.76368 -0.043,-0.714 -0.0326,-1.47078 -0.4336,-2.09179 -0.841,-1.45399 -1.79098,-2.8421 -2.70898,-4.2461 z m 52.95898,21.21874 c -1.14171,-0.009 -2.27406,0.0957 -3.32031,0.61135 -3.069,0.952 -5.27533,3.44716 -6.98633,6.03514 -1.461,1.46201 -1.94842,3.50874 -2.85742,5.30274 -1.241,2.537 -1.72608,5.42856 -1.33008,8.22656 0.425,1.772 0.48641,3.67701 1.44141,5.29103 0.975,1.68898 1.9844,3.4512 3.5664,4.65818 0.971,0.80001 1.93735,1.6255 3.02735,2.2715 2.03,1.06801 4.2348,1.75232 6.4668,2.23633 2.02099,0.338 4.08037,0.0295 6.10937,-0.10351 5.059,-0.80601 9.69789,-4.09133 12.08789,-8.61134 2.022,-4.473 2.17997,-9.57085 1.29297,-14.33985 -0.211,-1.20999 -0.82195,-2.2862 -1.50195,-3.28321 -0.957,-1.403 -1.60814,-3.12192 -3.11914,-4.04492 a 41.65,41.65 0 0 0 -3.9004,-2.08203 v 0.002 c -2.96999,-0.716 -5.86373,-1.83469 -8.92773,-2.09568 -0.67537,-0.0221 -1.3638,-0.0687 -2.04883,-0.0742 z m -123.69922,18.0176 c -1.809,0.19099 -3.621732,0.28417 -5.427732,0.49218 -2.517,0.568 -4.89464,1.60608 -7.30664,2.49609 -3.154,1.185 -5.487766,3.69725 -7.509766,6.28125 -1.296,1.762 -1.690484,3.96436 -2.646484,5.90235 -1.424,3.95401 -1.917266,8.28541 -1.322266,12.4414 0.989,3.264 2.359732,6.46812 4.302735,9.28711 2.015999,2.37101 5.109015,3.49645 8.041015,4.27344 2.722,0.887 5.585953,0.074 8.376953,0.24804 2.792995,0.15001 5.409105,-0.96868 7.912115,-2.05468 3.5015,-1.03385 6.76088,-3.15424 8.8789,-6.14259 v -0.002 c 1.82519,-2.13286 2.3437,-4.96285 3.52149,-7.4414 1.661,-3.69999 0.49757,-7.76952 0.14257,-11.60352 -0.832,-2.36098 -1.41096,-5.05905 -3.41796,-6.74804 -1.487,-1.353 -2.59447,-3.14661 -4.35547,-4.1836 -2.961,-1.30501 -5.83546,-3.2341 -9.18946,-3.2461 z m 16.4043,38.97656 c -0.821,1.026 -1.63077,2.0553 -2.50977,3.02929 -1.049,1.17501 -2.47487,1.89967 -3.79687,2.72267 1.62,2.39499 3.56345,4.54183 5.31445,6.83983 1.336,1.66501 3.13825,2.89628 5.03125,3.86329 1.808,0.936 3.99807,0.12651 5.41407,-1.14648 1.37,-1.427 1.19239,-3.58947 0.77539,-5.35547 -0.881,-1.927 -2.39199,-3.5093 -3.95899,-4.9043 -2.08299,-1.69301 -3.98653,-3.61183 -6.26953,-5.04883 z m 3.17773,8.14062 c 1.30089,0.028 2.3722,0.98331 3.35547,1.75 0.684,0.49399 0.75049,1.48632 0.39649,2.19532 -0.623,0.88299 -1.91063,0.61725 -2.64063,0.0312 -1.136,-0.957 -2.11148,-2.42512 -1.52148,-3.95312 0.13968,-0.0182 0.27558,-0.0263 0.41015,-0.0234 z" />
</svg>
