<?xml version="1.0" encoding="UTF-8" standalone="no"?>
<!-- Created with Inkscape (http://www.inkscape.org/) -->

<svg
   width="260mm"
   height="260mm"
   viewBox="0 0 65 65"
   version="1.1"
   id="svg123"
   xml:space="preserve"
   inkscape:version="1.4 (86a8ad7, 2024-10-11)"
   sodipodi:docname="byte_bg.svg"
   inkscape:export-filename="LT0 - RBWH3023.622\B_c.png"
   inkscape:export-xdpi="300"
   inkscape:export-ydpi="300"
   xmlns:inkscape="http://www.inkscape.org/namespaces/inkscape"
   xmlns:sodipodi="http://sodipodi.sourceforge.net/DTD/sodipodi-0.dtd"
   xmlns="http://www.w3.org/2000/svg"
   xmlns:svg="http://www.w3.org/2000/svg"><sodipodi:namedview
     id="namedview125"
     pagecolor="#282828"
     bordercolor="#1a1a1a"
     borderopacity="1"
     inkscape:showpageshadow="2"
     inkscape:pageopacity="0"
     inkscape:pagecheckerboard="0"
     inkscape:deskcolor="#494949"
     inkscape:document-units="mm"
     showgrid="false"
     showguides="true"
     inkscape:zoom="0.50000001"
     inkscape:cx="108"
     inkscape:cy="434.99999"
     inkscape:window-width="1920"
     inkscape:window-height="1009"
     inkscape:window-x="1912"
     inkscape:window-y="-8"
     inkscape:window-maximized="1"
     inkscape:current-layer="svg123"><sodipodi:guide
       position="-49.99996,-84.999954"
       orientation="0,-1"
       id="guide6584"
       inkscape:locked="false" /><sodipodi:guide
       position="149.99986,114.99987"
       orientation="0,-1"
       id="guide5725"
       inkscape:locked="false" /><sodipodi:guide
       position="-49.99996,114.9999"
       orientation="1,0"
       id="guide919"
       inkscape:locked="false" /><sodipodi:guide
       position="149.99989,-84.999954"
       orientation="1,0"
       id="guide921"
       inkscape:locked="false" /><sodipodi:guide
       position="70.064704,2.2317527"
       orientation="1,0"
       id="guide923"
       inkscape:locked="false" /><sodipodi:guide
       position="50.00006,-46.671318"
       orientation="0,-1"
       id="guide931"
       inkscape:locked="false" /><sodipodi:guide
       position="114.00002,14.99988"
       orientation="1,0"
       id="guide933"
       inkscape:locked="false" /><sodipodi:guide
       position="49.994251,-18.583654"
       orientation="0,-1"
       id="guide1072"
       inkscape:locked="false" /><sodipodi:guide
       position="10.009243,-6.4678701"
       orientation="0,-1"
       id="guide1076"
       inkscape:locked="false" /><sodipodi:guide
       position="73.900021,3.728462"
       orientation="1,0"
       id="guide1080"
       inkscape:locked="false" /><sodipodi:guide
       position="70.064704,67.61924"
       orientation="0,-1"
       id="guide12587"
       inkscape:locked="false" /><inkscape:grid
       id="grid11"
       units="px"
       originx="-755.90552"
       originy="-755.90552"
       spacingx="0.066145833"
       spacingy="0.066145833"
       empcolor="#0099e5"
       empopacity="0.30196078"
       color="#0099e5"
       opacity="0.14901961"
       empspacing="5"
       dotted="false"
       gridanglex="30"
       gridanglez="30"
       visible="false" /><sodipodi:guide
       position="73.900021,3.728462"
       orientation="1,0"
       id="guide25"
       inkscape:locked="false" /><sodipodi:guide
       position="50.00006,81.328642"
       orientation="0,-1"
       id="guide304"
       inkscape:locked="false" /><sodipodi:guide
       position="-24.848078,32.500286"
       orientation="0,-1"
       id="guide306"
       inkscape:locked="false" /><sodipodi:guide
       position="32.499347,67.114978"
       orientation="1,0"
       id="guide349"
       inkscape:locked="false" /><sodipodi:guide
       position="64.999999,5.4122599"
       orientation="1,0"
       id="guide350"
       inkscape:locked="false" /><sodipodi:guide
       position="5.3320269,64.999999"
       orientation="0,-1"
       id="guide353"
       inkscape:locked="false" /><sodipodi:guide
       position="50.00006,-31.11095"
       orientation="0,-1"
       id="guide355"
       inkscape:locked="false" /><sodipodi:guide
       position="80.140396,2.665584"
       orientation="1,0"
       id="guide357"
       inkscape:locked="false" /><sodipodi:guide
       position="70.064704,67.61924"
       orientation="0,-1"
       id="guide359"
       inkscape:locked="false" /><sodipodi:guide
       position="0,0"
       orientation="0,-1"
       id="guide360"
       inkscape:locked="false" /><sodipodi:guide
       position="0,49.378095"
       orientation="1,0"
       id="guide361"
       inkscape:locked="false" /><sodipodi:guide
       position="96.111062,14.999994"
       orientation="1,0"
       id="guide362"
       inkscape:locked="false" /><sodipodi:guide
       position="110.78007,14.99988"
       orientation="1,0"
       id="guide364"
       inkscape:locked="false" /><sodipodi:guide
       position="50.00006,78.10869"
       orientation="0,-1"
       id="guide365"
       inkscape:locked="false" /><sodipodi:guide
       position="50.000061,-43.451359"
       orientation="0,-1"
       id="guide366"
       inkscape:locked="false" /><sodipodi:guide
       position="11.22532,-6.4678701"
       orientation="0,-1"
       id="guide377"
       inkscape:locked="false" /><sodipodi:guide
       position="50.00006,-28.791021"
       orientation="0,-1"
       id="guide379"
       inkscape:locked="false" /><sodipodi:guide
       position="118.93889,27.713754"
       orientation="1,0"
       id="guide2"
       inkscape:locked="false" /><sodipodi:guide
       position="80.978828,88.877653"
       orientation="0,-1"
       id="guide4"
       inkscape:locked="false" /><sodipodi:guide
       position="80.978828,93.816521"
       orientation="0,-1"
       id="guide5"
       inkscape:locked="false" /><sodipodi:guide
       position="19.021107,98.755283"
       orientation="0,-1"
       id="guide6"
       inkscape:locked="false" /><sodipodi:guide
       position="75.056021,103.69413"
       orientation="0,-1"
       id="guide7"
       inkscape:locked="false" /><sodipodi:guide
       position="66.6638,-58.412655"
       orientation="0,-1"
       id="guide8"
       inkscape:locked="false" /><sodipodi:guide
       position="64.565751,-63.351524"
       orientation="0,-1"
       id="guide9"
       inkscape:locked="false" /><sodipodi:guide
       position="64.565751,-68.290393"
       orientation="0,-1"
       id="guide10"
       inkscape:locked="false" /><sodipodi:guide
       position="66.6638,-73.229265"
       orientation="0,-1"
       id="guide11"
       inkscape:locked="false" /><sodipodi:guide
       position="64.565751,-78.16814"
       orientation="0,-1"
       id="guide12"
       inkscape:locked="false" /><sodipodi:guide
       position="-43.458062,109.67136"
       orientation="1,0"
       id="guide149"
       inkscape:locked="false" /><sodipodi:guide
       position="-43.458062,109.67136"
       orientation="0,-1"
       id="guide150"
       inkscape:locked="false" /></sodipodi:namedview><defs
     id="defs120"><inkscape:path-effect
       effect="mirror_symmetry"
       start_point="100.00002,41.345344"
       end_point="100.00002,141.34534"
       center_point="100.00002,91.34534"
       id="path-effect753"
       is_visible="true"
       lpeversion="1.2"
       lpesatellites=""
       mode="vertical"
       discard_orig_path="false"
       fuse_paths="false"
       oposite_fuse="false"
       split_items="false"
       split_open="false"
       link_styles="false" /><inkscape:path-effect
       effect="mirror_symmetry"
       start_point="100.00002,41.345344"
       end_point="100.00002,141.34534"
       center_point="100.00002,91.34534"
       id="path-effect751"
       is_visible="true"
       lpeversion="1.2"
       lpesatellites=""
       mode="vertical"
       discard_orig_path="false"
       fuse_paths="false"
       oposite_fuse="false"
       split_items="false"
       split_open="false"
       link_styles="false" /><inkscape:path-effect
       effect="mirror_symmetry"
       start_point="100.00002,41.345344"
       end_point="100.00002,141.34534"
       center_point="100.00002,91.34534"
       id="path-effect749"
       is_visible="true"
       lpeversion="1.2"
       lpesatellites=""
       mode="vertical"
       discard_orig_path="false"
       fuse_paths="false"
       oposite_fuse="false"
       split_items="false"
       split_open="false"
       link_styles="false" /><inkscape:path-effect
       effect="mirror_symmetry"
       start_point="100.00002,41.345344"
       end_point="100.00002,141.34534"
       center_point="100.00002,91.34534"
       id="path-effect747"
       is_visible="true"
       lpeversion="1.2"
       lpesatellites=""
       mode="vertical"
       discard_orig_path="false"
       fuse_paths="false"
       oposite_fuse="false"
       split_items="false"
       split_open="false"
       link_styles="false" /><inkscape:path-effect
       effect="perspective-envelope"
       up_left_point="71.870702,63.933093"
       up_right_point="88.618549,63.933093"
       down_left_point="71.870702,83.74724"
       down_right_point="88.618549,83.74724"
       id="path-effect745"
       is_visible="true"
       lpeversion="1"
       deform_type="perspective"
       horizontal_mirror="false"
       vertical_mirror="false"
       overflow_perspective="false" /><inkscape:path-effect
       effect="mirror_symmetry"
       start_point="100.00002,41.345344"
       end_point="100.00002,141.34534"
       center_point="100.00002,91.34534"
       id="path-effect743"
       is_visible="true"
       lpeversion="1.2"
       lpesatellites=""
       mode="vertical"
       discard_orig_path="false"
       fuse_paths="false"
       oposite_fuse="false"
       split_items="false"
       split_open="false"
       link_styles="false" /><inkscape:path-effect
       effect="mirror_symmetry"
       start_point="97.253972,45.210534"
       end_point="97.253972,129.11928"
       center_point="97.253972,87.164906"
       id="path-effect741"
       is_visible="true"
       lpeversion="1.2"
       lpesatellites=""
       mode="vertical"
       discard_orig_path="false"
       fuse_paths="false"
       oposite_fuse="false"
       split_items="false"
       split_open="false"
       link_styles="false" /><inkscape:path-effect
       effect="perspective-envelope"
       up_left_point="74.071281,66.528614"
       up_right_point="87.227324,66.891006"
       down_left_point="74.071281,80.437755"
       down_right_point="87.227324,80.437755"
       id="path-effect739"
       is_visible="true"
       lpeversion="1"
       deform_type="perspective"
       horizontal_mirror="false"
       vertical_mirror="false"
       overflow_perspective="false" /><inkscape:path-effect
       effect="mirror_symmetry"
       start_point="100.00002,41.345344"
       end_point="100.00002,141.34534"
       center_point="100.00002,91.34534"
       id="path-effect737"
       is_visible="true"
       lpeversion="1.2"
       lpesatellites=""
       mode="vertical"
       discard_orig_path="false"
       fuse_paths="false"
       oposite_fuse="false"
       split_items="false"
       split_open="false"
       link_styles="false" /><inkscape:path-effect
       effect="mirror_symmetry"
       start_point="108.75519,-3.3769927"
       end_point="108.75519,171.31921"
       center_point="108.75519,83.971109"
       id="path-effect735"
       is_visible="true"
       lpeversion="1.2"
       lpesatellites=""
       mode="vertical"
       discard_orig_path="false"
       fuse_paths="false"
       oposite_fuse="false"
       split_items="false"
       split_open="false"
       link_styles="false" /><inkscape:path-effect
       effect="mirror_symmetry"
       start_point="106.80768,11.621287"
       end_point="106.80768,160.53271"
       center_point="106.80768,86.076997"
       id="path-effect733"
       is_visible="true"
       lpeversion="1.2"
       lpesatellites=""
       mode="vertical"
       discard_orig_path="false"
       fuse_paths="false"
       oposite_fuse="false"
       split_items="false"
       split_open="false"
       link_styles="false" /><inkscape:path-effect
       effect="mirror_symmetry"
       start_point="106.80768,11.621287"
       end_point="106.80768,160.53271"
       center_point="106.80768,86.076997"
       id="path-effect731"
       is_visible="true"
       lpeversion="1.2"
       lpesatellites=""
       mode="vertical"
       discard_orig_path="false"
       fuse_paths="false"
       oposite_fuse="false"
       split_items="false"
       split_open="false"
       link_styles="false" /><inkscape:path-effect
       effect="mirror_symmetry"
       start_point="100.00002,41.345344"
       end_point="100.00002,141.34534"
       center_point="100.00002,91.34534"
       id="path-effect729"
       is_visible="true"
       lpeversion="1.2"
       lpesatellites=""
       mode="vertical"
       discard_orig_path="false"
       fuse_paths="false"
       oposite_fuse="false"
       split_items="false"
       split_open="false"
       link_styles="false" /><inkscape:path-effect
       effect="mirror_symmetry"
       start_point="100.00002,41.345344"
       end_point="100.00002,141.34534"
       center_point="100.00002,91.34534"
       id="path-effect727"
       is_visible="true"
       lpeversion="1.2"
       lpesatellites=""
       mode="vertical"
       discard_orig_path="false"
       fuse_paths="false"
       oposite_fuse="false"
       split_items="false"
       split_open="false"
       link_styles="false" /><inkscape:path-effect
       effect="mirror_symmetry"
       start_point="100.00002,41.345344"
       end_point="100.00002,141.34534"
       center_point="100.00002,91.34534"
       id="path-effect725"
       is_visible="true"
       lpeversion="1.2"
       lpesatellites=""
       mode="vertical"
       discard_orig_path="false"
       fuse_paths="false"
       oposite_fuse="false"
       split_items="false"
       split_open="false"
       link_styles="false" /><inkscape:path-effect
       effect="mirror_symmetry"
       start_point="0.4110633,93.12628"
       end_point="100.41105,93.12628"
       center_point="50.411059,93.12628"
       id="path-effect723"
       is_visible="true"
       lpeversion="1.2"
       lpesatellites=""
       mode="vertical"
       discard_orig_path="false"
       fuse_paths="false"
       oposite_fuse="false"
       split_items="false"
       split_open="false"
       link_styles="false" /><inkscape:path-effect
       effect="bend_path"
       id="path-effect721"
       is_visible="true"
       lpeversion="1"
       bendpath="M 71.706703,113.5565 H 84.669444"
       prop_scale="1"
       scale_y_rel="false"
       vertical="false"
       hide_knot="false" /><inkscape:path-effect
       effect="mirror_symmetry"
       start_point="19.564793,70.62238"
       end_point="119.56479,70.62238"
       center_point="69.56479,70.62238"
       id="path-effect719"
       is_visible="true"
       lpeversion="1.2"
       lpesatellites=""
       mode="vertical"
       discard_orig_path="false"
       fuse_paths="false"
       oposite_fuse="false"
       split_items="false"
       split_open="false"
       link_styles="false" /><inkscape:path-effect
       effect="bend_path"
       id="path-effect717"
       is_visible="true"
       lpeversion="1"
       bendpath="m 44.591573,96.39293 c 24.205229,-8.116016 39.744281,4.45373 47.921992,-10.157214"
       prop_scale="1"
       scale_y_rel="false"
       vertical="false"
       hide_knot="false"
       bendpath-nodetypes="cc" /><inkscape:path-effect
       effect="mirror_symmetry"
       start_point="-96.181839,-89.123249"
       end_point="174.41065,-89.123249"
       center_point="39.114405,-89.123249"
       id="path-effect715"
       is_visible="true"
       lpeversion="1.2"
       lpesatellites=""
       mode="vertical"
       discard_orig_path="false"
       fuse_paths="false"
       oposite_fuse="false"
       split_items="false"
       split_open="false"
       link_styles="false" /><inkscape:path-effect
       effect="mirror_symmetry"
       start_point="100.00002,16.2097"
       end_point="100.00002,178.16005"
       center_point="100.00002,97.184875"
       id="path-effect713"
       is_visible="true"
       lpeversion="1.2"
       lpesatellites=""
       mode="vertical"
       discard_orig_path="false"
       fuse_paths="false"
       oposite_fuse="false"
       split_items="false"
       split_open="false"
       link_styles="false" /><inkscape:path-effect
       effect="mirror_symmetry"
       start_point="100.00002,41.345344"
       end_point="100.00002,141.34534"
       center_point="100.00002,91.34534"
       id="path-effect711"
       is_visible="true"
       lpeversion="1.2"
       lpesatellites=""
       mode="vertical"
       discard_orig_path="false"
       fuse_paths="false"
       oposite_fuse="false"
       split_items="false"
       split_open="false"
       link_styles="false" /><inkscape:path-effect
       effect="mirror_symmetry"
       start_point="100.00002,41.345344"
       end_point="100.00002,141.34534"
       center_point="100.00002,91.34534"
       id="path-effect709"
       is_visible="true"
       lpeversion="1.2"
       lpesatellites=""
       mode="vertical"
       discard_orig_path="false"
       fuse_paths="false"
       oposite_fuse="false"
       split_items="false"
       split_open="false"
       link_styles="false" /><inkscape:path-effect
       effect="mirror_symmetry"
       start_point="100.00087,41.749048"
       end_point="100.00087,141.74904"
       center_point="100.00087,91.749044"
       id="path-effect707"
       is_visible="true"
       lpeversion="1.2"
       lpesatellites=""
       mode="vertical"
       discard_orig_path="false"
       fuse_paths="false"
       oposite_fuse="false"
       split_items="false"
       split_open="false"
       link_styles="false" /><inkscape:path-effect
       effect="mirror_symmetry"
       start_point="100.00002,41.345344"
       end_point="100.00002,141.34534"
       center_point="100.00002,91.34534"
       id="path-effect704"
       is_visible="true"
       lpeversion="1.2"
       lpesatellites=""
       mode="vertical"
       discard_orig_path="false"
       fuse_paths="false"
       oposite_fuse="false"
       split_items="false"
       split_open="false"
       link_styles="false" /><inkscape:path-effect
       effect="mirror_symmetry"
       start_point="100.00002,41.345344"
       end_point="100.00002,141.34534"
       center_point="100.00002,91.34534"
       id="path-effect702"
       is_visible="true"
       lpeversion="1.2"
       lpesatellites=""
       mode="vertical"
       discard_orig_path="false"
       fuse_paths="false"
       oposite_fuse="false"
       split_items="false"
       split_open="false"
       link_styles="false" /><inkscape:path-effect
       effect="mirror_symmetry"
       start_point="118.8141,39.499162"
       end_point="65.386538,138.57229"
       center_point="92.100319,89.035726"
       id="path-effect700"
       is_visible="true"
       lpeversion="1.2"
       lpesatellites=""
       mode="vertical"
       discard_orig_path="false"
       fuse_paths="false"
       oposite_fuse="false"
       split_items="false"
       split_open="false"
       link_styles="false" /><inkscape:path-effect
       effect="mirror_symmetry"
       start_point="99.999999,0"
       end_point="99.999999,200"
       center_point="99.999999,99.999999"
       id="path-effect698"
       is_visible="false"
       lpeversion="1.2"
       lpesatellites=""
       mode="vertical"
       discard_orig_path="false"
       fuse_paths="false"
       oposite_fuse="false"
       split_items="false"
       split_open="false"
       link_styles="false" /><inkscape:path-effect
       effect="mirror_symmetry"
       start_point="112.66949,34.670966"
       end_point="83.53655,143.39659"
       center_point="98.103021,89.033777"
       id="path-effect695"
       is_visible="true"
       lpeversion="1.2"
       lpesatellites=""
       mode="vertical"
       discard_orig_path="false"
       fuse_paths="false"
       oposite_fuse="false"
       split_items="false"
       split_open="false"
       link_styles="false" /><inkscape:path-effect
       effect="perspective-envelope"
       up_left_point="75.128073,68.571065"
       up_right_point="93.683088,68.571065"
       down_left_point="70.413099,87.869534"
       down_right_point="102.89451,89.201547"
       id="path-effect693"
       is_visible="true"
       lpeversion="1"
       deform_type="perspective"
       horizontal_mirror="false"
       vertical_mirror="false"
       overflow_perspective="false" /><inkscape:path-effect
       effect="perspective-envelope"
       up_left_point="73.771994,63.995303"
       up_right_point="95.363922,63.995303"
       down_left_point="71.249479,90.627428"
       down_right_point="98.486462,90.984166"
       id="path-effect690"
       is_visible="true"
       lpeversion="1"
       deform_type="perspective"
       horizontal_mirror="false"
       vertical_mirror="false"
       overflow_perspective="false" /><inkscape:path-effect
       effect="perspective-envelope"
       up_left_point="75.128073,68.571065"
       up_right_point="93.683088,68.571065"
       down_left_point="74.505351,87.869534"
       down_right_point="98.363831,89.201547"
       id="path-effect688"
       is_visible="true"
       lpeversion="1"
       deform_type="perspective"
       horizontal_mirror="false"
       vertical_mirror="false"
       overflow_perspective="false" /><inkscape:path-effect
       effect="mirror_symmetry"
       start_point="99.999999,0"
       end_point="99.999999,200"
       center_point="99.999999,99.999999"
       id="path-effect686"
       is_visible="false"
       lpeversion="1.2"
       lpesatellites=""
       mode="vertical"
       discard_orig_path="false"
       fuse_paths="false"
       oposite_fuse="false"
       split_items="false"
       split_open="false"
       link_styles="false" /><inkscape:path-effect
       effect="mirror_symmetry"
       start_point="110.13948,36.909781"
       end_point="84.257573,133.50236"
       center_point="97.198524,85.206069"
       id="path-effect683"
       is_visible="true"
       lpeversion="1.2"
       lpesatellites=""
       mode="vertical"
       discard_orig_path="false"
       fuse_paths="false"
       oposite_fuse="false"
       split_items="false"
       split_open="false"
       link_styles="false" /><inkscape:path-effect
       effect="mirror_symmetry"
       start_point="0.4110583,93.126275"
       end_point="100.41105,93.126275"
       center_point="50.411054,93.126275"
       id="path-effect681"
       is_visible="true"
       lpeversion="1.2"
       lpesatellites=""
       mode="vertical"
       discard_orig_path="false"
       fuse_paths="false"
       oposite_fuse="false"
       split_items="false"
       split_open="false"
       link_styles="false" /><inkscape:path-effect
       effect="bend_path"
       id="path-effect679"
       is_visible="true"
       lpeversion="1"
       bendpath="M 71.706703,113.5565 H 84.669444"
       prop_scale="1"
       scale_y_rel="false"
       vertical="false"
       hide_knot="false" /><inkscape:path-effect
       effect="mirror_symmetry"
       start_point="121.13877,38.68326"
       end_point="121.13877,144.14249"
       center_point="121.13877,91.412875"
       id="path-effect677"
       is_visible="true"
       lpeversion="1.2"
       lpesatellites=""
       mode="vertical"
       discard_orig_path="false"
       fuse_paths="false"
       oposite_fuse="false"
       split_items="false"
       split_open="false"
       link_styles="false" /><inkscape:path-effect
       effect="mirror_symmetry"
       start_point="99.999999,0"
       end_point="99.999999,200"
       center_point="99.999999,99.999999"
       id="path-effect675"
       is_visible="false"
       lpeversion="1.2"
       lpesatellites=""
       mode="vertical"
       discard_orig_path="false"
       fuse_paths="false"
       oposite_fuse="false"
       split_items="false"
       split_open="false"
       link_styles="false" /><inkscape:path-effect
       effect="perspective-envelope"
       up_left_point="75.128073,68.571065"
       up_right_point="93.683088,68.571065"
       down_left_point="75.347369,87.818045"
       down_right_point="99.492565,89.201547"
       id="path-effect673"
       is_visible="true"
       lpeversion="1"
       deform_type="perspective"
       horizontal_mirror="false"
       vertical_mirror="false"
       overflow_perspective="false" /><inkscape:path-effect
       effect="mirror_symmetry"
       start_point="99.999999,0"
       end_point="99.999999,200"
       center_point="99.999999,99.999999"
       id="path-effect671"
       is_visible="false"
       lpeversion="1.2"
       lpesatellites=""
       mode="vertical"
       discard_orig_path="false"
       fuse_paths="false"
       oposite_fuse="false"
       split_items="false"
       split_open="false"
       link_styles="false" /><inkscape:path-effect
       effect="mirror_symmetry"
       start_point="98.850248,-10.060325"
       end_point="98.850248,189.93967"
       center_point="98.850248,89.939674"
       id="path-effect668"
       is_visible="false"
       lpeversion="1.2"
       lpesatellites=""
       mode="vertical"
       discard_orig_path="false"
       fuse_paths="false"
       oposite_fuse="false"
       split_items="false"
       split_open="false"
       link_styles="false" /><linearGradient
       id="linearGradient4769"
       inkscape:swatch="gradient"><stop
         style="stop-color:#ffffff;stop-opacity:1;"
         offset="0"
         id="stop4765" /><stop
         style="stop-color:#ffffff;stop-opacity:0;"
         offset="1"
         id="stop4767" /></linearGradient><linearGradient
       id="linearGradient2383"
       inkscape:swatch="solid"><stop
         style="stop-color:#000000;stop-opacity:1;"
         offset="0"
         id="stop2381" /></linearGradient></defs><path
     id="path57"
     style="color:#000000;display:inline;fill:#000000;fill-opacity:1;stroke-linecap:round;stroke-linejoin:round;stroke-miterlimit:30;-inkscape-stroke:none;paint-order:markers stroke fill"
     d="M 9.9697156,0.2156368 A 0.56255625,0.56255625 0 0 0 9.6240016,0.6140627 L 6.026417,16.184302 a 0.56255625,0.56255625 0 0 0 -0.0098,0.197274 L 7.332944,26.905094 6.014679,41.395291 a 0.56255625,0.56255625 0 0 0 0.08397,0.34959 l 0.415995,0.66598 H 5.348565 2.413086 a 0.56255625,0.56255625 0 0 0 -0.562498,0.5625 v 6.25595 a 0.56255625,0.56255625 0 0 0 0.164072,0.39649 c 3.612236,3.62784 8.060596,6.63515 13.197257,9.13471 4.9728,2.41984 9.702609,3.92993 12.64251,4.77348 2.390937,0.68608 3.562854,0.9567 4.043035,1.06441 0.0011,3.3e-4 8.24e-4,-3.4e-4 0.0019,0 0.310565,0.097 0.5404,0.12293 0.541053,0.12299 a 0.56255625,0.56255625 0 0 0 0.101544,0 c 6.6e-4,-6e-5 0.23046,-0.0259 0.54106,-0.12299 10e-4,-3.4e-4 8.1e-4,3.3e-4 0.002,0 0.48016,-0.1077 1.6521,-0.37833 4.04304,-1.06441 2.93989,-0.84355 7.6697,-2.35364 12.64251,-4.77348 5.13664,-2.49956 9.58503,-5.50687 13.19725,-9.13471 a 0.56255625,0.56255625 0 0 0 0.16408,-0.39649 v -6.25595 a 0.56255625,0.56255625 0 0 0 -0.5625,-0.5625 h -2.11525 -0.82023 -1.16608 l 0.41612,-0.66598 a 0.56255625,0.56255625 0 0 0 0.084,-0.34959 l -1.3184,-14.490197 1.31646,-10.523518 a 0.56255625,0.56255625 0 0 0 -0.0101,-0.197274 l -3.5975,-15.5702393 a 0.56255625,0.56255625 0 0 0 -0.86726,-0.3360259 l -13.36327,9.2031849 c -2.77203,-0.538589 -5.67362,-0.847582 -8.636679,-0.847623 -2.963055,4.1e-5 -5.864645,0.309034 -8.636682,0.847623 L 10.491261,0.2780368 a 0.56255625,0.56255625 0 0 0 -0.5215454,-0.0624 z m 0.1800934,0.4680599 h 1.29e-4 c 0.0191,-0.0074 0.04063,-0.005 0.05762,0.0065 l 13.50977,9.30473 c 2.806771,-0.560697 5.763253,-0.861276 8.773624,-0.861318 h 2.59e-4 2.58e-4 c 3.01038,4.2e-5 5.967,0.300621 8.77375,0.861318 l 13.50977,-9.30473 c 0.017,-0.0115 0.0385,-0.01386 0.0576,-0.0065 0.0191,0.0074 0.0331,0.02375 0.0381,0.04367 l 3.59759,15.5702393 c 0.002,0.007 0.003,0.01425 0.002,0.02145 l -1.32227,10.576228 1.32227,14.546917 c 6e-4,0.0131 -0.003,0.0261 -0.0101,0.0371 l -6.36124,10.18155 c -0.006,0.008 -0.0126,0.0145 -0.0216,0.0195 -1.36001,0.83099 -2.76903,1.5821 -4.21873,2.254 l -1.87108,2.55269 c -0.0149,0.0195 -0.0401,0.0295 -0.0643,0.0235 l -2.95706,-0.64453 c -3.38593,1.12164 -6.91137,1.87592 -10.4668,2.29882 -0.003,-10e-4 -0.005,-10e-4 -0.008,-0.002 v 0.73639 h -1.3e-4 -1.27e-4 v -0.73639 c -0.0026,0.001 -0.0052,9.4e-4 -0.0079,0.002 -3.555421,-0.4229 -7.080852,-1.17718 -10.466803,-2.29882 l -2.957055,0.64453 c -0.02419,0.006 -0.04945,-0.004 -0.06434,-0.0234 l -1.871074,-2.55269 c -1.449697,-0.6719 -2.858728,-1.42301 -4.218735,-2.254 -0.0086,-0.005 -0.01597,-0.0115 -0.02157,-0.0195 L 6.522396,41.479401 c -0.0072,-0.011 -0.0107,-0.024 -0.01008,-0.0371 L 7.834586,26.895383 6.512316,16.319155 c -6e-4,-0.0072 8e-6,-0.01445 0.0018,-0.02145 L 10.1117,0.7274657 c 0.0048,-0.01992 0.01902,-0.03639 0.03811,-0.0438 z m 2.419232,5.541134 c -0.033,0.01236 -0.05876,0.03879 -0.07028,0.07209 L 8.9400633,16.213887 c -0.0057,0.01473 -0.0084,0.03045 -0.0079,0.04625 l 0.408373,7.928715 c 0.007,0.1254 0.178907,0.154804 0.2272473,0.03889 l 2.7106864,-6.648302 6.809016,-5.570978 7.198915,2.512896 c 0.140268,0.05952 0.235607,-0.145348 0.09973,-0.214328 L 12.668389,6.2341327 c -0.03009,-0.0176 -0.06639,-0.02097 -0.09922,-0.0093 z m 39.844338,0 c -0.0328,-0.01167 -0.0691,-0.0083 -0.0992,0.0093 l -13.71777,8.0728933 c -0.13595,0.06898 -0.0405,0.273848 0.0997,0.214328 l 7.19891,-2.512896 6.80902,5.570978 2.71069,6.648302 c 0.0483,0.115914 0.22024,0.08651 0.22724,-0.03889 l 0.40838,-7.928715 c 0,-0.0158 -0.002,-0.03152 -0.008,-0.04625 l -3.5587,-9.9169663 c -0.0115,-0.0333 -0.0373,-0.05973 -0.0703,-0.07209 z M 9.8172706,26.121421 c -0.05495,0.0012 -0.09996,0.03838 -0.130094,0.10865 -0.06139,0.142133 -0.05423,0.403053 0.01873,0.684454 l 2.1808744,8.401813 c -0.750467,1.283675 -1.183778,2.77546 -1.183778,4.369763 0,4.79133 3.88411,8.67556 8.675439,8.67556 4.791347,0 8.67544,-3.88423 8.67544,-8.67556 0,-0.0893 -0.0014,-0.17831 -0.0044,-0.26691 L 16.064435,32.499585 10.002531,26.223482 c -0.04375,-0.04512 -0.08679,-0.07602 -0.1271244,-0.09121 -0.02034,-0.0076 -0.03982,-0.01114 -0.05814,-0.01072 z m 45.3478784,0 c -0.0183,-4.2e-4 -0.0377,0.0033 -0.058,0.01085 -0.0403,0.01519 -0.0834,0.04608 -0.12712,0.09121 l -6.06203,6.276232 -11.98506,6.919478 c -0.003,0.0886 -0.004,0.17761 -0.004,0.26691 0,4.79133 3.88424,8.67556 8.67557,8.67556 4.79135,0 8.67544,-3.88423 8.67544,-8.67556 0,-1.594263 -0.43349,-3.085981 -1.1839,-4.369635 l 2.18087,-8.401942 c 0.073,-0.281401 0.0801,-0.542321 0.0187,-0.684454 -0.0301,-0.07027 -0.0752,-0.10745 -0.13009,-0.10865 z m -38.808872,8.9979 1.105359,0.638204 c -1.467519,0.862903 -2.454113,2.455875 -2.454113,4.281396 0,2.74266 2.223309,4.9661 4.965975,4.9661 2.725539,0 4.935975,-2.19631 4.963522,-4.91533 0.0016,0.0541 0.0027,0.10832 0.0027,0.16278 0,3.21759 -2.608289,5.82587 -5.825872,5.82587 -3.217573,0 -5.826001,-2.60828 -5.826001,-5.82587 0,-2.21993 1.241736,-4.149772 3.068417,-5.13315 z m 32.269862,0 c 1.82669,0.983378 3.06842,2.91322 3.06842,5.13315 0,3.21759 -2.6083,5.82587 -5.82587,5.82587 -3.21759,0 -5.826,-2.60828 -5.826,-5.82587 0,-0.055 7e-4,-0.10993 0.003,-0.16459 0.0266,2.71987 2.23737,4.91714 4.96352,4.91714 2.74267,0 4.96611,-2.22344 4.96611,-4.9661 0,-1.825567 -0.98666,-3.418638 -2.45425,-4.281525 z m -46.212938,7.79164 h 2.902407 c 0.02137,10e-5 0.0412,0.0111 0.05258,0.0292 l 5.712958,9.1426 c 0.0057,0.0101 0.0084,0.0216 0.0079,0.0332 v 3.73633 c 3.7e-4,0.0486 -0.05181,0.0787 -0.09366,0.0546 -3.246808,-1.94402 -6.143931,-4.13898 -8.626992,-6.6328 -0.01157,-0.012 -0.01794,-0.0281 -0.01757,-0.0448 v -6.25582 c -10e-6,-0.0345 0.02791,-0.0625 0.0624,-0.0625 z m 57.253738,0 h 2.90228 c 0.0345,0 0.0624,0.028 0.0624,0.0625 v 6.25582 c 3e-4,0.0167 -0.006,0.0328 -0.0176,0.0448 -2.48307,2.49382 -5.3802,4.68878 -8.62699,6.6328 -0.0419,0.0241 -0.094,-0.006 -0.0937,-0.0546 v -3.73633 c 0,-0.0116 0.002,-0.0231 0.008,-0.0332 l 5.71296,-9.1426 c 0.0114,-0.0181 0.0312,-0.0291 0.0526,-0.0292 z m -46.583201,10.95308 1.29e-4,3.9e-4 c 0.01451,-0.003 0.02935,-2e-5 0.04212,0.007 0.996187,0.55777 2.005879,1.09158 3.042966,1.57225 0.0093,0.004 0.01741,0.0115 0.02351,0.0195 l 1.990189,2.71482 c 10e-4,10e-4 0.002,0.002 0.004,0.002 6e-4,-10e-6 0.0013,-10e-6 0.0019,0 l 3.14451,-0.68562 c 0.01105,-0.002 0.02252,-0.002 0.0332,0.002 3.597988,1.19187 7.344166,1.99393 11.122964,2.44339 6e-4,-1e-5 0.0013,-1e-5 0.0019,0 0.0011,-1e-5 0.0013,-1e-5 0.0019,0 3.77878,-0.44946 7.52499,-1.25152 11.12296,-2.44339 0.0107,-0.004 0.0221,-0.004 0.0332,-0.002 l 3.14451,0.68562 c 0.001,-10e-6 0.001,-10e-6 0.002,0 0.002,0 0.003,-10e-4 0.004,-0.002 l 1.99006,-2.71482 c 0.006,-0.008 0.0145,-0.0155 0.0235,-0.0195 1.03709,-0.48067 2.04678,-1.01448 3.04297,-1.57225 0.0127,-0.007 0.0277,-0.01 0.0422,-0.007 v -3.9e-4 c 0.0301,0.005 0.052,0.0316 0.0517,0.0621 v 3.10537 c -2e-4,0.023 -0.0129,0.044 -0.0332,0.0548 -0.77266,0.41867 -1.55637,0.8291 -2.36523,1.22266 -4.9342,2.40105 -9.63822,3.90508 -12.56254,4.74415 -2.40938,0.69137 -3.59523,0.96455 -4.05867,1.06829 h 0.006 c -0.27735,0.0868 -0.43951,0.10154 -0.43951,0.10154 -0.002,9e-5 -0.004,9e-5 -0.0061,0 -0.0019,9e-5 -0.0039,9e-5 -0.0058,0 0,0 -0.162158,-0.0147 -0.439508,-0.10154 h 0.0059 c -0.46344,-0.10374 -1.649293,-0.37692 -4.058667,-1.06829 -2.924341,-0.83907 -7.628356,-2.3431 -12.562541,-4.74415 -0.808847,-0.39356 -1.592573,-0.80399 -2.36523,-1.22266 -0.02029,-0.0108 -0.03304,-0.0318 -0.0332,-0.0548 v -3.10537 c -2.9e-4,-0.0305 0.0215,-0.0571 0.05155,-0.0621 z"
     inkscape:label="O" /><path
     id="path397"
     style="color:#000000;display:inline;fill:#ffffff;stroke-linecap:round;stroke-linejoin:round;stroke-miterlimit:30;-inkscape-stroke:none;paint-order:markers stroke fill"
     inkscape:label="B"
     d="m 10.149688,0.6836957 c -0.01909,0.0074 -0.03331,0.02388 -0.03811,0.0438 L 6.513993,16.297731 c -0.0018,0.007 -0.0024,0.01425 -0.0018,0.02145 L 7.834464,26.895408 6.512193,41.442321 c -6.2e-4,0.0131 0.0029,0.0261 0.01008,0.0371 l 6.36124,10.18155 c 0.0056,0.008 0.01297,0.0145 0.02157,0.0195 1.360007,0.83099 2.769037,1.5821 4.218734,2.254 l 1.871075,2.55269 c 0.01489,0.0194 0.04015,0.0294 0.06434,0.0234 l 2.957055,-0.64453 c 3.385953,1.12164 6.911379,1.87592 10.466802,2.29882 0.0027,-10e-4 0.0054,-9.4e-4 0.008,-0.002 v 0.73639 h 1.28e-4 1.3e-4 v -0.73639 c 0.003,8.2e-4 0.005,9.4e-4 0.008,0.002 3.555432,-0.4229 7.080862,-1.17718 10.466802,-2.29882 l 2.95706,0.64453 c 0.0242,0.006 0.0493,-0.004 0.0642,-0.0235 l 1.87107,-2.55269 c 1.4497,-0.6719 2.85873,-1.42301 4.21874,-2.254 0.009,-0.005 0.016,-0.0114 0.0216,-0.0195 l 6.36124,-10.18155 c 0.007,-0.011 0.0108,-0.024 0.0102,-0.0371 l -1.32227,-14.546912 1.32227,-10.576228 c 6e-4,-0.0072 -5e-5,-0.01445 -0.002,-0.02144 L 54.870669,0.7274017 c -0.005,-0.01992 -0.019,-0.03623 -0.0381,-0.04367 -0.0191,-0.0074 -0.0405,-0.005 -0.0575,0.0065 l -13.5099,9.30473 c -2.80676,-0.560699 -5.763372,-0.861276 -8.773752,-0.861318 h -2.6e-4 -2.56e-4 c -3.010374,4.2e-5 -5.966851,0.300619 -8.773625,0.861318 L 10.207437,0.6901557 c -0.01699,-0.0115 -0.03852,-0.01382 -0.05762,-0.0065 z m 2.419362,5.541135 c 0.03283,-0.01167 0.06913,-0.0083 0.09922,0.0093 l 13.717768,8.0728943 c 0.135871,0.06898 0.04053,0.273847 -0.09974,0.214328 l -7.198914,-2.512896 -6.809016,5.570978 -2.7106874,6.648302 c -0.04834,0.115918 -0.2202473,0.08651 -0.2272473,-0.03889 l -0.408373,-7.928715 c -5e-4,-0.0158 0.0023,-0.03152 0.008,-0.04625 L 12.498758,6.2969147 c 0.01152,-0.0333 0.03728,-0.05973 0.07028,-0.07209 z m 39.844209,0 c 0.033,0.01236 0.0589,0.03879 0.0704,0.07209 l 3.5587,9.9169673 c 0.006,0.01473 0.008,0.03045 0.008,0.04625 l -0.40837,7.928715 c -0.007,0.1254 -0.17891,0.154801 -0.22725,0.03889 l -2.71069,-6.648302 -6.80901,-5.570978 -7.19892,2.512896 c -0.14028,0.05952 -0.23556,-0.145344 -0.0996,-0.214328 l 13.71777,-8.0728943 c 0.0301,-0.01754 0.0663,-0.02092 0.0991,-0.0093 z M 9.8171496,26.121421 v 1.29e-4 c 0.01832,-4.2e-4 0.0378,0.0031 0.05814,0.01072 0.04033,0.01519 0.08337,0.04609 0.1271244,0.09121 l 6.061904,6.276102 11.985057,6.919609 c 0.003,0.0886 0.0044,0.17761 0.0044,0.26691 0,4.79134 -3.884089,8.67556 -8.675439,8.67556 -4.791334,0 -8.67544,-3.88422 -8.67544,-8.67556 0,-1.594304 0.43331,-3.08609 1.183778,-4.369766 L 9.7058006,26.914523 c -0.07296,-0.281401 -0.08012,-0.542322 -0.01873,-0.684455 0.03014,-0.07027 0.07515,-0.107449 0.130094,-0.108649 z m 45.3478794,0 h 3.9e-4 c 0.0549,0.0012 0.1,0.03838 0.13009,0.108649 0.0614,0.142133 0.0544,0.403054 -0.0186,0.684455 l -2.18087,8.401942 c 0.75043,1.283654 1.1839,2.775373 1.1839,4.369634 0,4.79134 -3.88409,8.67556 -8.67544,8.67556 -4.79134,0 -8.67556,-3.88422 -8.67556,-8.67556 0,-0.0893 10e-4,-0.17831 0.004,-0.26691 l 11.98506,-6.919478 6.06203,-6.276231 c 0.0437,-0.04513 0.0868,-0.07602 0.12712,-0.09121 0.0203,-0.0076 0.0396,-0.01127 0.0579,-0.01085 z m -38.808872,8.9979 c -1.826684,0.983378 -3.068417,2.913218 -3.068417,5.13315 0,3.21759 2.608424,5.82587 5.826001,5.82587 3.217585,0 5.825871,-2.60828 5.825871,-5.82587 0,-0.0545 -9.72e-4,-0.10872 -0.0026,-0.16278 -0.02755,2.71902 -2.237981,4.91533 -4.963521,4.91533 -2.742669,0 -4.965976,-2.22343 -4.965976,-4.9661 0,-1.82552 0.986592,-3.418494 2.454114,-4.281396 z m 32.269862,0 -1.10535,0.638075 c 1.46758,0.862888 2.45424,2.455959 2.45424,4.281525 0,2.74267 -2.22344,4.9661 -4.96611,4.9661 -2.72615,0 -4.93695,-2.19727 -4.96352,-4.91714 -0.002,0.0547 -0.003,0.10954 -0.003,0.16459 0,3.21759 2.60841,5.82587 5.826,5.82587 3.21757,0 5.82587,-2.60828 5.82587,-5.82587 0,-2.219932 -1.24173,-4.149772 -3.06842,-5.13315 z M 2.41308,42.910961 c -0.03449,0 -0.06241,0.028 -0.0624,0.0625 v 6.25582 c -3.7e-4,0.0167 0.006,0.0328 0.01757,0.0448 2.483065,2.49382 5.38018,4.68878 8.626993,6.6328 0.04185,0.0241 0.09403,-0.006 0.09366,-0.0546 v -3.73633 c 5e-4,-0.0116 -0.0022,-0.0231 -0.0079,-0.0332 l -5.712959,-9.14259 c -0.01138,-0.0181 -0.03121,-0.0291 -0.05258,-0.0292 z m 57.253739,0 c -0.0214,1.1e-4 -0.0412,0.0111 -0.0526,0.0292 l -5.71296,9.14259 c -0.006,0.0101 -0.008,0.0216 -0.008,0.0332 v 3.73633 c -3.6e-4,0.0483 0.0519,0.0787 0.0938,0.0546 3.2468,-1.94402 6.14392,-4.13898 8.62699,-6.6328 0.0116,-0.012 0.0179,-0.0281 0.0176,-0.0448 v -6.25582 c 10e-6,-0.0345 -0.0279,-0.0625 -0.0624,-0.0625 z m -46.583201,10.95308 c -0.03005,0.005 -0.05184,0.0316 -0.05155,0.0621 v 3.10537 c 1.6e-4,0.023 0.01291,0.044 0.0332,0.0548 0.772658,0.41866 1.556382,0.8291 2.36523,1.22266 4.93419,2.40105 9.638196,3.90507 12.56254,4.74415 2.409376,0.69137 3.595228,0.96455 4.058667,1.06829 h -0.0058 c 0.27735,0.0868 0.439508,0.10154 0.439508,0.10154 0.0019,9e-5 0.0039,9e-5 0.0058,0 0.002,9e-5 0.004,9e-5 0.006,0 0,0 0.16216,-0.0147 0.43951,-0.10154 h -0.006 c 0.46344,-0.10374 1.64929,-0.37692 4.058666,-1.06829 2.92433,-0.83908 7.62834,-2.3431 12.56254,-4.74415 0.80886,-0.39356 1.59257,-0.804 2.36523,-1.22266 0.0203,-0.0108 0.033,-0.0318 0.0332,-0.0548 v -3.10537 c 2.9e-4,-0.0305 -0.0217,-0.0568 -0.0518,-0.0621 v 3.9e-4 c -0.0145,-0.003 -0.0294,-4e-5 -0.0421,0.007 -0.99619,0.55776 -2.00588,1.09158 -3.04297,1.57225 -0.009,0.004 -0.0174,0.0112 -0.0235,0.0195 l -1.99019,2.71482 c -10e-4,10e-4 -0.002,0.002 -0.004,0.002 -6.4e-4,-10e-6 -8.5e-4,-10e-6 -0.002,0 l -3.14451,-0.68562 c -0.0111,-0.002 -0.0225,-0.002 -0.0332,0.002 -3.59798,1.19187 -7.34416,1.99393 -11.122956,2.44339 -6.5e-4,-1e-5 -10e-4,-1e-5 -0.0021,0 -6.05e-4,-1e-5 -0.0013,-1e-5 -0.0019,0 -3.778802,-0.44946 -7.524972,-1.25152 -11.122964,-2.44339 -0.01068,-0.004 -0.02215,-0.004 -0.0332,-0.002 l -3.144511,0.68562 c -6e-4,-10e-6 -0.0012,-10e-6 -0.0018,0 -0.002,0 -0.003,-10e-4 -0.004,-0.002 l -1.990188,-2.71482 c -0.0061,-0.008 -0.01421,-0.0155 -0.02351,-0.0195 -1.037088,-0.48067 -2.046779,-1.01449 -3.042967,-1.57225 -0.01277,-0.007 -0.02761,-0.01 -0.04212,-0.007 z" /></svg>
