<?xml version="1.0" encoding="UTF-8" standalone="no"?>
<!-- Created with Inkscape (http://www.inkscape.org/) -->

<svg
   width="399.99997mm"
   height="399.99997mm"
   viewBox="0 0 99.999992 99.999992"
   version="1.1"
   id="svg123"
   xml:space="preserve"
   inkscape:version="1.3 (0e150ed6c4, 2023-07-21)"
   sodipodi:docname="hachi_oldt.svg"
   inkscape:export-filename="LT0 - RBWH3023.622\colour_D.png"
   inkscape:export-xdpi="300"
   inkscape:export-ydpi="300"
   xmlns:inkscape="http://www.inkscape.org/namespaces/inkscape"
   xmlns:sodipodi="http://sodipodi.sourceforge.net/DTD/sodipodi-0.dtd"
   xmlns="http://www.w3.org/2000/svg"
   xmlns:svg="http://www.w3.org/2000/svg"><sodipodi:namedview
     id="namedview125"
     pagecolor="#282828"
     bordercolor="#1a1a1a"
     borderopacity="1"
     inkscape:showpageshadow="2"
     inkscape:pageopacity="0"
     inkscape:pagecheckerboard="0"
     inkscape:deskcolor="#282828"
     inkscape:document-units="mm"
     showgrid="false"
     showguides="false"
     inkscape:zoom="0.1767767"
     inkscape:cx="14.142135"
     inkscape:cy="506.28844"
     inkscape:window-width="1920"
     inkscape:window-height="1009"
     inkscape:window-x="1912"
     inkscape:window-y="-8"
     inkscape:window-maximized="1"
     inkscape:current-layer="svg123"><sodipodi:guide
       position="-50,-49.999998"
       orientation="0,-1"
       id="guide6584"
       inkscape:locked="false" /><sodipodi:guide
       position="150,150"
       orientation="0,-1"
       id="guide5725"
       inkscape:locked="false" /><sodipodi:guide
       position="-50,150"
       orientation="1,0"
       id="guide919"
       inkscape:locked="false" /><sodipodi:guide
       position="150,-49.999998"
       orientation="1,0"
       id="guide921"
       inkscape:locked="false" /><sodipodi:guide
       position="50.0001,150"
       orientation="1,0"
       id="guide923"
       inkscape:locked="false" /><sodipodi:guide
       position="-50,49.999904"
       orientation="0,-1"
       id="guide925"
       inkscape:locked="false" /><sodipodi:guide
       position="50.0001,-11.671348"
       orientation="0,-1"
       id="guide931"
       inkscape:locked="false" /><sodipodi:guide
       position="114.00007,49.9999"
       orientation="1,0"
       id="guide933"
       inkscape:locked="false" /><sodipodi:guide
       position="-13.999872,49.9999"
       orientation="1,0"
       id="guide1070"
       inkscape:locked="false" /><sodipodi:guide
       position="49.994292,16.416334"
       orientation="0,-1"
       id="guide1072"
       inkscape:locked="false" /><sodipodi:guide
       position="77.20744,41.307386"
       orientation="0,-1"
       id="guide1076"
       inkscape:locked="false" /><sodipodi:guide
       position="54.44156,43.548489"
       orientation="1,0"
       id="guide1080"
       inkscape:locked="false" /><sodipodi:guide
       position="27.658695,79.955402"
       orientation="0,-1"
       id="guide12587"
       inkscape:locked="false" /><inkscape:grid
       id="grid11"
       units="px"
       originx="-755.90552"
       originy="-755.90552"
       spacingx="0.066145833"
       spacingy="0.066145833"
       empcolor="#0099e5"
       empopacity="0.30196078"
       color="#0099e5"
       opacity="0.14901961"
       empspacing="5"
       dotted="false"
       gridanglex="30"
       gridanglez="30"
       visible="false" /><sodipodi:guide
       position="45.558249,43.548488"
       orientation="1,0"
       id="guide25"
       inkscape:locked="false" /><sodipodi:guide
       position="50.0001,116.32859"
       orientation="0,-1"
       id="guide304"
       inkscape:locked="false" /><sodipodi:guide
       position="49.999709,71.505482"
       orientation="0,-1"
       id="guide305"
       inkscape:locked="false" /><sodipodi:guide
       position="82.30438,58.654622"
       orientation="0,-1"
       id="guide306"
       inkscape:locked="false" /><sodipodi:guide
       position="40.234929,77.551552"
       orientation="1,0"
       id="guide349"
       inkscape:locked="false" /><sodipodi:guide
       position="59.76565,77.551552"
       orientation="1,0"
       id="guide350"
       inkscape:locked="false" /><sodipodi:guide
       position="50.0001,93.791042"
       orientation="0,-1"
       id="guide353"
       inkscape:locked="false" /><sodipodi:guide
       position="50.0001,3.8890296"
       orientation="0,-1"
       id="guide355"
       inkscape:locked="false" /><sodipodi:guide
       position="80.14043,37.665584"
       orientation="1,0"
       id="guide357"
       inkscape:locked="false" /><sodipodi:guide
       position="19.859559,37.665594"
       orientation="1,0"
       id="guide358"
       inkscape:locked="false" /><sodipodi:guide
       position="2.175032,62.713782"
       orientation="0,-1"
       id="guide359"
       inkscape:locked="false" /><sodipodi:guide
       position="97.82492,37.286215"
       orientation="0,-1"
       id="guide360"
       inkscape:locked="false" /><sodipodi:guide
       position="3.889128,50.000001"
       orientation="1,0"
       id="guide361"
       inkscape:locked="false" /><sodipodi:guide
       position="96.11107,50.000001"
       orientation="1,0"
       id="guide362"
       inkscape:locked="false" /><sodipodi:guide
       position="-10.779914,49.9999"
       orientation="1,0"
       id="guide363"
       inkscape:locked="false" /><sodipodi:guide
       position="110.78011,49.9999"
       orientation="1,0"
       id="guide364"
       inkscape:locked="false" /><sodipodi:guide
       position="50.0001,113.10863"
       orientation="0,-1"
       id="guide365"
       inkscape:locked="false" /><sodipodi:guide
       position="50.0001,-8.4513884"
       orientation="0,-1"
       id="guide366"
       inkscape:locked="false" /><sodipodi:guide
       position="49.924458,96.186602"
       orientation="0,-1"
       id="guide377"
       inkscape:locked="false" /><sodipodi:guide
       position="50.0001,6.2089606"
       orientation="0,-1"
       id="guide379"
       inkscape:locked="false" /><sodipodi:guide
       position="-18.938762,62.713782"
       orientation="1,0"
       id="guide1"
       inkscape:locked="false" /><sodipodi:guide
       position="118.93896,62.713782"
       orientation="1,0"
       id="guide2"
       inkscape:locked="false" /><sodipodi:guide
       position="80.97886,123.87761"
       orientation="0,-1"
       id="guide4"
       inkscape:locked="false" /><sodipodi:guide
       position="80.97886,128.81648"
       orientation="0,-1"
       id="guide5"
       inkscape:locked="false" /><sodipodi:guide
       position="19.021122,133.75535"
       orientation="0,-1"
       id="guide6"
       inkscape:locked="false" /><sodipodi:guide
       position="75.05607,138.69422"
       orientation="0,-1"
       id="guide7"
       inkscape:locked="false" /><sodipodi:guide
       position="66.66385,-23.412689"
       orientation="0,-1"
       id="guide8"
       inkscape:locked="false" /><sodipodi:guide
       position="64.5658,-28.351562"
       orientation="0,-1"
       id="guide9"
       inkscape:locked="false" /><sodipodi:guide
       position="64.5658,-33.290435"
       orientation="0,-1"
       id="guide10"
       inkscape:locked="false" /><sodipodi:guide
       position="66.66385,-38.229309"
       orientation="0,-1"
       id="guide11"
       inkscape:locked="false" /><sodipodi:guide
       position="64.5658,-43.168182"
       orientation="0,-1"
       id="guide12"
       inkscape:locked="false" /><sodipodi:guide
       position="-43.458097,144.67146"
       orientation="1,0"
       id="guide149"
       inkscape:locked="false" /><sodipodi:guide
       position="-43.458097,144.67146"
       orientation="0,-1"
       id="guide150"
       inkscape:locked="false" /><sodipodi:guide
       position="80.14043,37.665584"
       orientation="0,-1"
       id="guide386"
       inkscape:locked="false" /></sodipodi:namedview><defs
     id="defs120"><inkscape:path-effect
       effect="mirror_symmetry"
       start_point="100.00002,41.345344"
       end_point="100.00002,141.34534"
       center_point="100.00002,91.34534"
       id="path-effect753"
       is_visible="true"
       lpeversion="1.2"
       lpesatellites=""
       mode="vertical"
       discard_orig_path="false"
       fuse_paths="false"
       oposite_fuse="false"
       split_items="false"
       split_open="false"
       link_styles="false" /><inkscape:path-effect
       effect="mirror_symmetry"
       start_point="100.00002,41.345344"
       end_point="100.00002,141.34534"
       center_point="100.00002,91.34534"
       id="path-effect751"
       is_visible="true"
       lpeversion="1.2"
       lpesatellites=""
       mode="vertical"
       discard_orig_path="false"
       fuse_paths="false"
       oposite_fuse="false"
       split_items="false"
       split_open="false"
       link_styles="false" /><inkscape:path-effect
       effect="mirror_symmetry"
       start_point="100.00002,41.345344"
       end_point="100.00002,141.34534"
       center_point="100.00002,91.34534"
       id="path-effect749"
       is_visible="true"
       lpeversion="1.2"
       lpesatellites=""
       mode="vertical"
       discard_orig_path="false"
       fuse_paths="false"
       oposite_fuse="false"
       split_items="false"
       split_open="false"
       link_styles="false" /><inkscape:path-effect
       effect="mirror_symmetry"
       start_point="100.00002,41.345344"
       end_point="100.00002,141.34534"
       center_point="100.00002,91.34534"
       id="path-effect747"
       is_visible="true"
       lpeversion="1.2"
       lpesatellites=""
       mode="vertical"
       discard_orig_path="false"
       fuse_paths="false"
       oposite_fuse="false"
       split_items="false"
       split_open="false"
       link_styles="false" /><inkscape:path-effect
       effect="perspective-envelope"
       up_left_point="71.870702,63.933093"
       up_right_point="88.618549,63.933093"
       down_left_point="71.870702,83.74724"
       down_right_point="88.618549,83.74724"
       id="path-effect745"
       is_visible="true"
       lpeversion="1"
       deform_type="perspective"
       horizontal_mirror="false"
       vertical_mirror="false"
       overflow_perspective="false" /><inkscape:path-effect
       effect="mirror_symmetry"
       start_point="100.00002,41.345344"
       end_point="100.00002,141.34534"
       center_point="100.00002,91.34534"
       id="path-effect743"
       is_visible="true"
       lpeversion="1.2"
       lpesatellites=""
       mode="vertical"
       discard_orig_path="false"
       fuse_paths="false"
       oposite_fuse="false"
       split_items="false"
       split_open="false"
       link_styles="false" /><inkscape:path-effect
       effect="mirror_symmetry"
       start_point="97.253972,45.210534"
       end_point="97.253972,129.11928"
       center_point="97.253972,87.164906"
       id="path-effect741"
       is_visible="true"
       lpeversion="1.2"
       lpesatellites=""
       mode="vertical"
       discard_orig_path="false"
       fuse_paths="false"
       oposite_fuse="false"
       split_items="false"
       split_open="false"
       link_styles="false" /><inkscape:path-effect
       effect="perspective-envelope"
       up_left_point="74.071281,66.528614"
       up_right_point="87.227324,66.891006"
       down_left_point="74.071281,80.437755"
       down_right_point="87.227324,80.437755"
       id="path-effect739"
       is_visible="true"
       lpeversion="1"
       deform_type="perspective"
       horizontal_mirror="false"
       vertical_mirror="false"
       overflow_perspective="false" /><inkscape:path-effect
       effect="mirror_symmetry"
       start_point="100.00002,41.345344"
       end_point="100.00002,141.34534"
       center_point="100.00002,91.34534"
       id="path-effect737"
       is_visible="true"
       lpeversion="1.2"
       lpesatellites=""
       mode="vertical"
       discard_orig_path="false"
       fuse_paths="false"
       oposite_fuse="false"
       split_items="false"
       split_open="false"
       link_styles="false" /><inkscape:path-effect
       effect="mirror_symmetry"
       start_point="108.75519,-3.3769927"
       end_point="108.75519,171.31921"
       center_point="108.75519,83.971109"
       id="path-effect735"
       is_visible="true"
       lpeversion="1.2"
       lpesatellites=""
       mode="vertical"
       discard_orig_path="false"
       fuse_paths="false"
       oposite_fuse="false"
       split_items="false"
       split_open="false"
       link_styles="false" /><inkscape:path-effect
       effect="mirror_symmetry"
       start_point="106.80768,11.621287"
       end_point="106.80768,160.53271"
       center_point="106.80768,86.076997"
       id="path-effect733"
       is_visible="true"
       lpeversion="1.2"
       lpesatellites=""
       mode="vertical"
       discard_orig_path="false"
       fuse_paths="false"
       oposite_fuse="false"
       split_items="false"
       split_open="false"
       link_styles="false" /><inkscape:path-effect
       effect="mirror_symmetry"
       start_point="106.80768,11.621287"
       end_point="106.80768,160.53271"
       center_point="106.80768,86.076997"
       id="path-effect731"
       is_visible="true"
       lpeversion="1.2"
       lpesatellites=""
       mode="vertical"
       discard_orig_path="false"
       fuse_paths="false"
       oposite_fuse="false"
       split_items="false"
       split_open="false"
       link_styles="false" /><inkscape:path-effect
       effect="mirror_symmetry"
       start_point="100.00002,41.345344"
       end_point="100.00002,141.34534"
       center_point="100.00002,91.34534"
       id="path-effect729"
       is_visible="true"
       lpeversion="1.2"
       lpesatellites=""
       mode="vertical"
       discard_orig_path="false"
       fuse_paths="false"
       oposite_fuse="false"
       split_items="false"
       split_open="false"
       link_styles="false" /><inkscape:path-effect
       effect="mirror_symmetry"
       start_point="100.00002,41.345344"
       end_point="100.00002,141.34534"
       center_point="100.00002,91.34534"
       id="path-effect727"
       is_visible="true"
       lpeversion="1.2"
       lpesatellites=""
       mode="vertical"
       discard_orig_path="false"
       fuse_paths="false"
       oposite_fuse="false"
       split_items="false"
       split_open="false"
       link_styles="false" /><inkscape:path-effect
       effect="mirror_symmetry"
       start_point="100.00002,41.345344"
       end_point="100.00002,141.34534"
       center_point="100.00002,91.34534"
       id="path-effect725"
       is_visible="true"
       lpeversion="1.2"
       lpesatellites=""
       mode="vertical"
       discard_orig_path="false"
       fuse_paths="false"
       oposite_fuse="false"
       split_items="false"
       split_open="false"
       link_styles="false" /><inkscape:path-effect
       effect="mirror_symmetry"
       start_point="0.4110633,93.12628"
       end_point="100.41105,93.12628"
       center_point="50.411059,93.12628"
       id="path-effect723"
       is_visible="true"
       lpeversion="1.2"
       lpesatellites=""
       mode="vertical"
       discard_orig_path="false"
       fuse_paths="false"
       oposite_fuse="false"
       split_items="false"
       split_open="false"
       link_styles="false" /><inkscape:path-effect
       effect="bend_path"
       id="path-effect721"
       is_visible="true"
       lpeversion="1"
       bendpath="M 71.706703,113.5565 H 84.669444"
       prop_scale="1"
       scale_y_rel="false"
       vertical="false"
       hide_knot="false" /><inkscape:path-effect
       effect="mirror_symmetry"
       start_point="19.564793,70.62238"
       end_point="119.56479,70.62238"
       center_point="69.56479,70.62238"
       id="path-effect719"
       is_visible="true"
       lpeversion="1.2"
       lpesatellites=""
       mode="vertical"
       discard_orig_path="false"
       fuse_paths="false"
       oposite_fuse="false"
       split_items="false"
       split_open="false"
       link_styles="false" /><inkscape:path-effect
       effect="bend_path"
       id="path-effect717"
       is_visible="true"
       lpeversion="1"
       bendpath="m 44.591573,96.39293 c 24.205229,-8.116016 39.744281,4.45373 47.921992,-10.157214"
       prop_scale="1"
       scale_y_rel="false"
       vertical="false"
       hide_knot="false"
       bendpath-nodetypes="cc" /><inkscape:path-effect
       effect="mirror_symmetry"
       start_point="-96.181839,-89.123249"
       end_point="174.41065,-89.123249"
       center_point="39.114405,-89.123249"
       id="path-effect715"
       is_visible="true"
       lpeversion="1.2"
       lpesatellites=""
       mode="vertical"
       discard_orig_path="false"
       fuse_paths="false"
       oposite_fuse="false"
       split_items="false"
       split_open="false"
       link_styles="false" /><inkscape:path-effect
       effect="mirror_symmetry"
       start_point="100.00002,16.2097"
       end_point="100.00002,178.16005"
       center_point="100.00002,97.184875"
       id="path-effect713"
       is_visible="true"
       lpeversion="1.2"
       lpesatellites=""
       mode="vertical"
       discard_orig_path="false"
       fuse_paths="false"
       oposite_fuse="false"
       split_items="false"
       split_open="false"
       link_styles="false" /><inkscape:path-effect
       effect="mirror_symmetry"
       start_point="100.00002,41.345344"
       end_point="100.00002,141.34534"
       center_point="100.00002,91.34534"
       id="path-effect711"
       is_visible="true"
       lpeversion="1.2"
       lpesatellites=""
       mode="vertical"
       discard_orig_path="false"
       fuse_paths="false"
       oposite_fuse="false"
       split_items="false"
       split_open="false"
       link_styles="false" /><inkscape:path-effect
       effect="mirror_symmetry"
       start_point="100.00002,41.345344"
       end_point="100.00002,141.34534"
       center_point="100.00002,91.34534"
       id="path-effect709"
       is_visible="true"
       lpeversion="1.2"
       lpesatellites=""
       mode="vertical"
       discard_orig_path="false"
       fuse_paths="false"
       oposite_fuse="false"
       split_items="false"
       split_open="false"
       link_styles="false" /><inkscape:path-effect
       effect="mirror_symmetry"
       start_point="100.00087,41.749048"
       end_point="100.00087,141.74904"
       center_point="100.00087,91.749044"
       id="path-effect707"
       is_visible="true"
       lpeversion="1.2"
       lpesatellites=""
       mode="vertical"
       discard_orig_path="false"
       fuse_paths="false"
       oposite_fuse="false"
       split_items="false"
       split_open="false"
       link_styles="false" /><inkscape:path-effect
       effect="mirror_symmetry"
       start_point="100.00002,41.345344"
       end_point="100.00002,141.34534"
       center_point="100.00002,91.34534"
       id="path-effect704"
       is_visible="true"
       lpeversion="1.2"
       lpesatellites=""
       mode="vertical"
       discard_orig_path="false"
       fuse_paths="false"
       oposite_fuse="false"
       split_items="false"
       split_open="false"
       link_styles="false" /><inkscape:path-effect
       effect="mirror_symmetry"
       start_point="100.00002,41.345344"
       end_point="100.00002,141.34534"
       center_point="100.00002,91.34534"
       id="path-effect702"
       is_visible="true"
       lpeversion="1.2"
       lpesatellites=""
       mode="vertical"
       discard_orig_path="false"
       fuse_paths="false"
       oposite_fuse="false"
       split_items="false"
       split_open="false"
       link_styles="false" /><inkscape:path-effect
       effect="mirror_symmetry"
       start_point="118.8141,39.499162"
       end_point="65.386538,138.57229"
       center_point="92.100319,89.035726"
       id="path-effect700"
       is_visible="true"
       lpeversion="1.2"
       lpesatellites=""
       mode="vertical"
       discard_orig_path="false"
       fuse_paths="false"
       oposite_fuse="false"
       split_items="false"
       split_open="false"
       link_styles="false" /><inkscape:path-effect
       effect="mirror_symmetry"
       start_point="99.999999,0"
       end_point="99.999999,200"
       center_point="99.999999,99.999999"
       id="path-effect698"
       is_visible="false"
       lpeversion="1.2"
       lpesatellites=""
       mode="vertical"
       discard_orig_path="false"
       fuse_paths="false"
       oposite_fuse="false"
       split_items="false"
       split_open="false"
       link_styles="false" /><inkscape:path-effect
       effect="mirror_symmetry"
       start_point="112.66949,34.670966"
       end_point="83.53655,143.39659"
       center_point="98.103021,89.033777"
       id="path-effect695"
       is_visible="true"
       lpeversion="1.2"
       lpesatellites=""
       mode="vertical"
       discard_orig_path="false"
       fuse_paths="false"
       oposite_fuse="false"
       split_items="false"
       split_open="false"
       link_styles="false" /><inkscape:path-effect
       effect="perspective-envelope"
       up_left_point="75.128073,68.571065"
       up_right_point="93.683088,68.571065"
       down_left_point="70.413099,87.869534"
       down_right_point="102.89451,89.201547"
       id="path-effect693"
       is_visible="true"
       lpeversion="1"
       deform_type="perspective"
       horizontal_mirror="false"
       vertical_mirror="false"
       overflow_perspective="false" /><inkscape:path-effect
       effect="perspective-envelope"
       up_left_point="73.771994,63.995303"
       up_right_point="95.363922,63.995303"
       down_left_point="71.249479,90.627428"
       down_right_point="98.486462,90.984166"
       id="path-effect690"
       is_visible="true"
       lpeversion="1"
       deform_type="perspective"
       horizontal_mirror="false"
       vertical_mirror="false"
       overflow_perspective="false" /><inkscape:path-effect
       effect="perspective-envelope"
       up_left_point="75.128073,68.571065"
       up_right_point="93.683088,68.571065"
       down_left_point="74.505351,87.869534"
       down_right_point="98.363831,89.201547"
       id="path-effect688"
       is_visible="true"
       lpeversion="1"
       deform_type="perspective"
       horizontal_mirror="false"
       vertical_mirror="false"
       overflow_perspective="false" /><inkscape:path-effect
       effect="mirror_symmetry"
       start_point="99.999999,0"
       end_point="99.999999,200"
       center_point="99.999999,99.999999"
       id="path-effect686"
       is_visible="false"
       lpeversion="1.2"
       lpesatellites=""
       mode="vertical"
       discard_orig_path="false"
       fuse_paths="false"
       oposite_fuse="false"
       split_items="false"
       split_open="false"
       link_styles="false" /><inkscape:path-effect
       effect="mirror_symmetry"
       start_point="110.13948,36.909781"
       end_point="84.257573,133.50236"
       center_point="97.198524,85.206069"
       id="path-effect683"
       is_visible="true"
       lpeversion="1.2"
       lpesatellites=""
       mode="vertical"
       discard_orig_path="false"
       fuse_paths="false"
       oposite_fuse="false"
       split_items="false"
       split_open="false"
       link_styles="false" /><inkscape:path-effect
       effect="mirror_symmetry"
       start_point="0.4110583,93.126275"
       end_point="100.41105,93.126275"
       center_point="50.411054,93.126275"
       id="path-effect681"
       is_visible="true"
       lpeversion="1.2"
       lpesatellites=""
       mode="vertical"
       discard_orig_path="false"
       fuse_paths="false"
       oposite_fuse="false"
       split_items="false"
       split_open="false"
       link_styles="false" /><inkscape:path-effect
       effect="bend_path"
       id="path-effect679"
       is_visible="true"
       lpeversion="1"
       bendpath="M 71.706703,113.5565 H 84.669444"
       prop_scale="1"
       scale_y_rel="false"
       vertical="false"
       hide_knot="false" /><inkscape:path-effect
       effect="mirror_symmetry"
       start_point="121.13877,38.68326"
       end_point="121.13877,144.14249"
       center_point="121.13877,91.412875"
       id="path-effect677"
       is_visible="true"
       lpeversion="1.2"
       lpesatellites=""
       mode="vertical"
       discard_orig_path="false"
       fuse_paths="false"
       oposite_fuse="false"
       split_items="false"
       split_open="false"
       link_styles="false" /><inkscape:path-effect
       effect="mirror_symmetry"
       start_point="99.999999,0"
       end_point="99.999999,200"
       center_point="99.999999,99.999999"
       id="path-effect675"
       is_visible="false"
       lpeversion="1.2"
       lpesatellites=""
       mode="vertical"
       discard_orig_path="false"
       fuse_paths="false"
       oposite_fuse="false"
       split_items="false"
       split_open="false"
       link_styles="false" /><inkscape:path-effect
       effect="perspective-envelope"
       up_left_point="75.128073,68.571065"
       up_right_point="93.683088,68.571065"
       down_left_point="75.347369,87.818045"
       down_right_point="99.492565,89.201547"
       id="path-effect673"
       is_visible="true"
       lpeversion="1"
       deform_type="perspective"
       horizontal_mirror="false"
       vertical_mirror="false"
       overflow_perspective="false" /><inkscape:path-effect
       effect="mirror_symmetry"
       start_point="99.999999,0"
       end_point="99.999999,200"
       center_point="99.999999,99.999999"
       id="path-effect671"
       is_visible="false"
       lpeversion="1.2"
       lpesatellites=""
       mode="vertical"
       discard_orig_path="false"
       fuse_paths="false"
       oposite_fuse="false"
       split_items="false"
       split_open="false"
       link_styles="false" /><inkscape:path-effect
       effect="mirror_symmetry"
       start_point="98.850248,-10.060325"
       end_point="98.850248,189.93967"
       center_point="98.850248,89.939674"
       id="path-effect668"
       is_visible="false"
       lpeversion="1.2"
       lpesatellites=""
       mode="vertical"
       discard_orig_path="false"
       fuse_paths="false"
       oposite_fuse="false"
       split_items="false"
       split_open="false"
       link_styles="false" /><inkscape:path-effect
       effect="lattice2"
       gridpoint0="68.435357,53.562641"
       gridpoint1="131.56484,53.562641"
       gridpoint2="68.435357,85.127381"
       gridpoint3="131.56484,85.127381"
       gridpoint4="84.217727,53.562641"
       gridpoint5="115.78247,53.562641"
       gridpoint6="84.217727,85.127381"
       gridpoint7="115.78247,85.127381"
       gridpoint8x9="100.0001,53.562641"
       gridpoint10x11="100.0001,85.127381"
       gridpoint12="68.435357,61.453826"
       gridpoint13="131.56484,61.453826"
       gridpoint14="68.435357,77.236196"
       gridpoint15="131.56484,77.236196"
       gridpoint16="84.217727,61.453826"
       gridpoint17="115.78247,61.453826"
       gridpoint18="84.217727,77.236196"
       gridpoint19="115.78247,77.236196"
       gridpoint20x21="100.0001,61.453826"
       gridpoint22x23="100.0001,77.236196"
       gridpoint24x26="68.435357,69.345011"
       gridpoint25x27="131.56484,69.345011"
       gridpoint28x30="84.217727,69.345011"
       gridpoint29x31="115.78247,69.345011"
       gridpoint32x33x34x35="100.0001,69.345011"
       id="path-effect495"
       is_visible="true"
       lpeversion="1"
       horizontal_mirror="false"
       vertical_mirror="true"
       perimetral="false"
       live_update="true" /><inkscape:path-effect
       effect="mirror_symmetry"
       start_point="100.00026,49.074544"
       end_point="100.00026,149.07454"
       center_point="100.00026,99.07454"
       id="path-effect494"
       is_visible="true"
       lpeversion="1.2"
       lpesatellites=""
       mode="vertical"
       discard_orig_path="false"
       fuse_paths="false"
       oposite_fuse="false"
       split_items="false"
       split_open="false"
       link_styles="false" /><inkscape:path-effect
       effect="mirror_symmetry"
       start_point="108.75519,-3.3769927"
       end_point="108.75519,171.31921"
       center_point="108.75519,83.971109"
       id="path-effect444"
       is_visible="true"
       lpeversion="1.2"
       lpesatellites=""
       mode="vertical"
       discard_orig_path="false"
       fuse_paths="false"
       oposite_fuse="false"
       split_items="false"
       split_open="false"
       link_styles="false" /><inkscape:path-effect
       effect="mirror_symmetry"
       start_point="106.80768,11.621287"
       end_point="106.80768,160.53271"
       center_point="106.80768,86.076997"
       id="path-effect433"
       is_visible="true"
       lpeversion="1.2"
       lpesatellites=""
       mode="vertical"
       discard_orig_path="false"
       fuse_paths="false"
       oposite_fuse="false"
       split_items="false"
       split_open="false"
       link_styles="false" /><inkscape:path-effect
       effect="mirror_symmetry"
       start_point="100.00002,41.345344"
       end_point="100.00002,141.34534"
       center_point="100.00002,91.34534"
       id="path-effect425"
       is_visible="true"
       lpeversion="1.2"
       lpesatellites=""
       mode="vertical"
       discard_orig_path="false"
       fuse_paths="false"
       oposite_fuse="false"
       split_items="false"
       split_open="false"
       link_styles="false" /><inkscape:path-effect
       effect="mirror_symmetry"
       start_point="100.00002,41.345344"
       end_point="100.00002,141.34534"
       center_point="100.00002,91.34534"
       id="path-effect411"
       is_visible="true"
       lpeversion="1.2"
       lpesatellites=""
       mode="vertical"
       discard_orig_path="false"
       fuse_paths="false"
       oposite_fuse="false"
       split_items="false"
       split_open="false"
       link_styles="false" /><linearGradient
       id="linearGradient4769"
       inkscape:swatch="gradient"><stop
         style="stop-color:#ffffff;stop-opacity:1;"
         offset="0"
         id="stop4765" /><stop
         style="stop-color:#ffffff;stop-opacity:0;"
         offset="1"
         id="stop4767" /></linearGradient><linearGradient
       id="linearGradient2383"
       inkscape:swatch="solid"><stop
         style="stop-color:#000000;stop-opacity:1;"
         offset="0"
         id="stop2381" /></linearGradient></defs><path
     id="path447"
     style="color:#000000;display:none;fill:#000000;stroke:#ffffff;stroke-width:2.5;stroke-linecap:round;stroke-linejoin:round;stroke-miterlimit:30;stroke-dasharray:none;stroke-opacity:1;paint-order:markers stroke fill"
     d="m 77.933508,60.222663 a 1.250125,1.250125 0 0 0 -1.400302,0.730447 c 0,0 -2.557808,5.923225 -3.246055,13.519588 -0.171868,1.897047 -0.205299,3.77347 -0.138751,5.613223 a 1.250125,1.250125 0 0 0 0.0059,0.07429 c 0.08979,0.932942 0.162186,1.857989 0.203088,2.77735 0.195423,4.44334 -0.163605,8.905927 -0.363285,13.388588 a 1.250125,1.250125 0 0 0 -0.0019,0.0079 c -0.07755,2.011096 -0.07769,4.059851 0.126866,6.095621 h -1.003815 -2.193406 a 1.250125,1.250125 0 0 0 -1.249924,1.25005 v 6.25582 a 1.250125,1.250125 0 0 0 0.363285,0.88289 c 0.408181,0.40995 0.825263,0.80434 1.24411,1.18934 v -0.002 c 0.140279,0.12914 0.279185,0.25425 0.414058,0.37504 0.301886,0.26985 0.608134,0.53593 0.917903,0.79685 0.141573,0.11954 0.295799,0.25265 0.468834,0.39455 a 1.250125,1.250125 0 0 0 0.0019,0.002 c 0.376131,0.30762 0.757049,0.60783 1.142566,0.9024 v -0.002 c 1.4666,1.12379 3.026997,2.17254 4.669999,3.15627 0.673736,0.40339 1.362415,0.7983 2.068349,1.18171 a 1.250125,1.250125 0 0 0 0.02338,0.0137 1.250125,1.250125 0 0 0 0.0059,0.002 c 9.53e-4,5.5e-4 0.003,0.003 0.0039,0.004 a 1.250125,1.250125 0 0 0 0.01176,0.006 1.250125,1.250125 0 0 0 0.0039,0.002 c 0.78161,0.42346 1.580056,0.8411 2.408251,1.24411 0.628287,0.30574 1.252154,0.59781 1.869137,0.87502 1.234107,0.55449 2.440246,1.05311 3.593708,1.50003 1.730099,0.67033 3.342574,1.22303 4.755782,1.6738 0.942169,0.30052 1.794945,0.55511 2.535246,0.76753 2.368745,0.67972 3.523561,0.94779 4.025335,1.06066 0.360485,0.11284 0.682931,0.15224 0.68368,0.15231 a 1.250125,1.250125 0 0 0 0.117047,-0.0394 1.250125,1.250125 0 0 0 0.117176,0.0391 c 7.5e-4,-7e-5 0.32307,-0.0395 0.68355,-0.15231 0.50178,-0.11287 1.65671,-0.38094 4.02546,-1.06066 0.7403,-0.21242 1.59295,-0.46701 2.53512,-0.76753 1.41321,-0.45076 3.02581,-1.00347 4.75591,-1.6738 1.15346,-0.44691 2.3596,-0.94554 3.59371,-1.50003 0.61698,-0.27721 1.24085,-0.56927 1.86913,-0.87501 0.82819,-0.40301 1.62665,-0.82065 2.40826,-1.24411 a 1.250125,1.250125 0 0 0 0.004,-0.002 1.250125,1.250125 0 0 0 0.0215,-0.0116 c 0.004,-0.002 0.008,-0.006 0.0117,-0.008 -0.0414,0.0242 -0.009,0.006 0.008,-0.004 0.70729,-0.38407 1.39726,-0.77953 2.07223,-1.18365 1.643,-0.98373 3.20327,-2.03235 4.66987,-3.15614 v 0.002 c 0.38552,-0.29457 0.76656,-0.59465 1.14269,-0.90227 a 1.250125,1.250125 0 0 0 0.002,-0.002 c 0.17261,-0.14155 0.32548,-0.27523 0.46677,-0.39455 0.31015,-0.26123 0.61772,-0.52667 0.91997,-0.79685 0.13487,-0.12079 0.27377,-0.2459 0.41405,-0.37504 v 0.002 c 0.41885,-0.385 0.83594,-0.77952 1.24411,-1.18947 a 1.250125,1.250125 0 0 0 0.36329,-0.88276 v -6.25595 a 1.250125,1.250125 0 0 0 -1.25005,-1.24992 h -2.19328 -1.00588 c 0.20456,-2.03579 0.20454,-4.084633 0.12699,-6.09575 a 1.250125,1.250125 0 0 0 0,-0.0078 c -0.19968,-4.482662 -0.5587,-8.945377 -0.36328,-13.388718 0.0409,-0.919361 0.11331,-1.844407 0.20309,-2.777349 a 1.250125,1.250125 0 0 0 0.006,-0.07416 c 0.0665,-1.839757 0.0333,-3.716314 -0.13862,-5.613352 -0.68275,-7.535755 -3.18441,-13.363556 -3.22461,-13.45706 a 1.250125,1.250125 0 0 0 -0.006,-0.01537 c -1.8e-4,-4.21e-4 -0.0156,-0.0469 -0.0156,-0.0469 l -0.0137,0.01176 a 1.250125,1.250125 0 0 0 -0.49015,-0.589886 1.250125,1.250125 0 0 0 -1.33984,0.119114 l -0.002,-0.08397 c -4.78004,3.214337 -8.91005,5.966279 -13.00192,9.105516 -2.7744,-0.529986 -5.66114,-0.86324 -8.61911,-0.863255 -2.957958,1.5e-5 -5.844827,0.333269 -8.619238,0.863255 -4.090525,-3.138064 -8.219032,-5.889145 -12.99635,-9.101621 a 1.250125,1.250125 0 0 0 -0.451264,-0.191591 z m 6.132959,12.651941 0.05206,0.03566 h -0.05206 z m 31.867173,0 v 0.03566 h -0.0522 z"
     inkscape:label="BGW"
     transform="translate(-50.000023,-41.345344)" /><path
     id="path404"
     style="color:#000000;display:inline;fill:#000000;stroke:#000000;stroke-width:2.5;stroke-linecap:round;stroke-linejoin:round;stroke-miterlimit:30;stroke-dasharray:none;stroke-opacity:1;paint-order:markers stroke fill"
     inkscape:label="BG"
     d="m 122.31904,61.446749 c -4.93959,3.321619 -9.18106,6.121906 -13.35396,9.353047 -2.86226,-0.586442 -5.88622,-0.898121 -8.96496,-0.898137 v 54.966411 c 7.5e-4,-7e-5 0.15408,-0.0149 0.42633,-0.10012 0.46269,-0.10357 1.64588,-0.37732 4.05427,-1.06841 0.73062,-0.20964 1.57235,-0.46072 2.50102,-0.75693 1.39298,-0.44432 2.98163,-0.99016 4.68408,-1.64977 1.135,-0.43977 2.32056,-0.93015 3.5326,-1.47472 0.60599,-0.27227 1.21847,-0.55799 1.83464,-0.85783 0.80658,-0.3925 1.58914,-0.80209 2.36019,-1.21982 0.001,-6e-4 0.002,-9.4e-4 0.003,-0.002 v -1.3e-4 c 0.70495,-0.38198 1.39296,-0.77601 2.06732,-1.17977 1.60642,-0.96182 3.12771,-1.98434 4.55243,-3.07604 0.37662,-0.28777 0.74788,-0.57946 1.1113,-0.87669 0.15387,-0.12618 0.30276,-0.25593 0.45424,-0.38383 0.30178,-0.25418 0.59917,-0.51144 0.89129,-0.77256 0.13439,-0.12036 0.26867,-0.24081 0.40101,-0.36264 0.41043,-0.37726 0.81455,-0.75911 1.20471,-1.15096 v -6.25634 h -2.19406 -2.36303 c 0.40703,-2.33696 0.33217,-4.81142 0.23629,-7.297874 -0.1983,-4.451685 -0.5648,-8.952409 -0.36484,-13.498917 0.0422,-0.948552 0.11768,-1.896132 0.20878,-2.842721 0.0649,-1.794175 0.0325,-3.617129 -0.13397,-5.454705 -0.66845,-7.377873 -3.14878,-13.138604 -3.14878,-13.138604 z m -6.3854,11.427855 v 0.03566 h -0.0522 z M 77.681005,61.446749 c 4.93959,3.321619 9.18106,6.121906 13.35396,9.353047 2.86226,-0.586442 5.88622,-0.898121 8.96496,-0.898137 v 54.966411 c -7.5e-4,-7e-5 -0.15408,-0.0149 -0.42633,-0.10012 -0.46269,-0.10357 -1.64588,-0.37732 -4.05427,-1.06841 -0.73062,-0.20964 -1.57235,-0.46072 -2.50102,-0.75693 -1.39298,-0.44432 -2.98163,-0.99016 -4.68408,-1.64977 -1.135,-0.43977 -2.32056,-0.93015 -3.5326,-1.47472 -0.60599,-0.27227 -1.21847,-0.55799 -1.83464,-0.85783 -0.80658,-0.3925 -1.58914,-0.80209 -2.36019,-1.21982 -0.001,-6e-4 -0.0021,-9.4e-4 -0.0031,-0.002 v -1.3e-4 c -0.70495,-0.38198 -1.39296,-0.77601 -2.06732,-1.17977 -1.60642,-0.96182 -3.12771,-1.98434 -4.55243,-3.07604 -0.37662,-0.28777 -0.74788,-0.57946 -1.1113,-0.87669 -0.15387,-0.12618 -0.30276,-0.25593 -0.45424,-0.38383 -0.30178,-0.25418 -0.59917,-0.51144 -0.89129,-0.77256 -0.13439,-0.12036 -0.26867,-0.24081 -0.40101,-0.36264 -0.41043,-0.37726 -0.81455,-0.75911 -1.20471,-1.15096 v -6.25634 h 2.19406 2.36303 c -0.40703,-2.33696 -0.33217,-4.81142 -0.23629,-7.297874 0.1983,-4.451685 0.5648,-8.952409 0.36484,-13.498917 -0.0422,-0.948552 -0.11768,-1.896132 -0.20878,-2.842721 -0.0649,-1.794175 -0.03251,-3.617129 0.13397,-5.454705 0.66845,-7.377873 3.14878,-13.138604 3.14878,-13.138604 z m 6.3854,11.427855 v 0.03566 h 0.05219 z"
     transform="translate(-50.000023,-41.345344)" /><path
     id="path683"
     style="display:inline;fill:#ffffff;stroke-width:0.500053;stroke-linecap:round;stroke-linejoin:round;stroke-miterlimit:30;paint-order:markers stroke fill"
     inkscape:label="BASE"
     inkscape:transform-center-x="-2.7191925"
     inkscape:transform-center-y="0.15192889"
     transform="matrix(0.7819511,-0.42168589,0.42168589,0.7819511,-59.56306,19.215817)"
     d="m 85.961941,47.489575 -6.9e-5,1.28e-4 c 0,0 -5.535059,4.382311 -10.139098,11.334583 -1.146609,1.731416 -2.152553,3.520032 -3.04677,5.332058 -0.415538,0.986659 -0.84715,1.965978 -1.312234,2.928427 -2.230976,4.611132 -4.998842,8.874366 -7.573726,13.178809 -1.998713,3.38705 -3.964962,6.768355 -4.389317,10.494054 -0.201932,1.663155 -0.07188,3.397424 0.425839,5.071474 0.281027,0.96346 0.694147,1.913339 1.185506,2.846932 1.009656,1.80951 2.144562,3.54807 3.3899,5.21072 l -0.0041,0.003 0.491053,3.53329 3.289802,0.94389 c 2.755838,2.92327 5.84861,5.55788 9.14795,7.8784 1.29e-4,7e-5 1.88e-4,2.7e-4 4.9e-5,5.2e-4 l 1.28e-4,7e-5 2.07e-4,-3.8e-4 c 3.751585,1.48191 7.652228,2.61844 11.60885,3.31504 l 2.596046,2.23035 3.222111,-1.53103 9.2e-5,-0.005 c 2.074557,0.12708 4.151856,0.12032 6.21948,-0.0308 1.04897,-0.10243 2.06857,-0.27897 3.02709,-0.57321 1.67222,-0.50377 3.19272,-1.34803 4.47146,-2.43049 2.87979,-2.40144 4.62485,-5.90213 6.3567,-9.43309 2.18197,-4.51625 4.22362,-9.171242 6.85069,-13.568721 0.54857,-0.917218 1.12965,-1.815696 1.72564,-2.70483 1.02289,-1.742859 1.96486,-3.566254 2.78158,-5.475726 3.27955,-7.666537 3.90005,-14.69914 3.90005,-14.69914 -6.66836,0.651712 -12.36674,1.159959 -18.2273,2.131658 -2.52239,-2.110309 -5.35204,-4.034842 -8.40239,-5.679777 C 100.50682,66.145807 97.344181,64.838873 94.195057,63.89063 91.787108,58.459927 89.08107,53.419413 85.96197,47.489575 Z m 38.127339,27.630029 -5.2e-4,4.9e-5 2.6e-4,1.38e-4 c 0.006,0.0052 0.007,0.01269 0.0105,0.01919 0.008,0.0019 0.0177,0.0023 0.0242,0.0078 0.0111,0.0091 0.0189,0.02258 0.0207,0.03792 0,0 0.39112,4.214731 -0.80172,9.136982 -0.87905,3.627453 -2.51993,7.079713 -4.45217,10.266857 0.12344,-1.13428 0.20754,-2.232148 0.24269,-3.285467 0.17333,-1.538647 0.0823,-3.20203 -0.28253,-4.9509 -0.1504,-0.830419 -0.35761,-1.610394 -0.63242,-2.330585 -4.6e-4,-0.0015 -0.002,-0.0035 -0.002,-0.0051 -0.0837,-0.252283 -0.16771,-0.504643 -0.26195,-0.759336 -0.75498,-2.040802 -1.83321,-4.089862 -3.16878,-6.084596 -1.2033,-0.102483 -2.43841,-0.190916 -3.73725,-0.253867 -1.50945,-0.07316 -3.00273,-0.106336 -4.48324,-0.09756 1.80264,-0.372866 3.69278,-0.674819 5.68152,-0.909721 3.99138,-0.471442 7.68194,-0.612999 11.79715,-0.809814 0.0158,-6.69e-4 0.0324,0.006 0.0456,0.018 z M 86.153105,54.661941 c 0.01723,0.0044 0.03203,0.01467 0.04012,0.02824 2.096512,3.546677 4.005836,6.708099 5.804793,10.302084 0.8964,1.790847 1.682512,3.535973 2.361345,5.24703 -0.806061,-1.241861 -1.654205,-2.471367 -2.544639,-3.692391 -0.766175,-1.050647 -1.518652,-2.034108 -2.265393,-2.983203 -2.400469,-0.02001 -4.70492,0.20493 -6.824963,0.695228 -0.264587,0.06119 -0.521599,0.129641 -0.778384,0.198312 -0.0018,4.49e-4 -0.0035,6.47e-4 -0.0053,9.43e-4 -0.752758,0.16605 -1.518286,0.421441 -2.294791,0.752014 -1.661695,0.656035 -3.101566,1.493822 -4.291969,2.483995 -0.86079,0.608065 -1.731915,1.281518 -2.611853,2.007839 1.601463,-3.365518 3.584366,-6.633331 6.132342,-9.360784 3.45748,-3.70098 7.19398,-5.689803 7.19398,-5.689803 0.01384,-0.0069 0.02935,-0.0079 0.04305,-0.0035 0.0082,0.0024 0.01347,0.01 0.01987,0.01584 0.0075,-4.18e-4 0.01415,-0.004 0.02179,-0.0018 z m -14.102962,17.783926 -6.9e-5,1.28e-4 c 0.01837,0.0094 0.03578,0.02329 0.05187,0.04168 0.03184,0.0366 0.05799,0.09021 0.07722,0.158283 l 2.65255,9.456659 8.176995,13.258793 c -0.04436,0.08938 -0.09054,0.178309 -0.138251,0.266781 -2.559862,4.746949 -8.483305,6.519989 -13.230175,3.960082 -4.746858,-2.559851 -6.519747,-8.483363 -3.959885,-13.230234 0.851777,-1.579489 2.078139,-2.825987 3.507462,-3.696794 l 2.328223,-9.489127 c 0.07806,-0.317771 0.21037,-0.580103 0.347129,-0.688119 0.06741,-0.05351 0.131867,-0.0663 0.186938,-0.03814 z m 44.927567,24.228267 3.8e-4,2.07e-4 c 0.0537,0.03056 0.0786,0.09145 0.0708,0.17715 -0.0151,0.17362 -0.16157,0.428311 -0.38424,0.668102 l -6.64962,7.158877 c 0.0577,1.6727 -0.3099,3.38231 -1.16165,4.96166 -2.55991,4.74692 -8.48324,6.51986 -13.230176,3.96009 -4.746871,-2.55991 -6.519884,-8.48339 -3.960012,-13.23031 0.04772,-0.0885 0.09626,-0.17611 0.14657,-0.26229 l 15.570878,-0.452018 9.35908,-2.979264 c 0.0674,-0.02135 0.12663,-0.02893 0.17468,-0.02244 0.0242,0.0033 0.0454,0.01005 0.0633,0.02024 z M 73.721183,84.854001 c -2.33512,-0.0017 -4.596451,1.246873 -5.782494,3.446191 -1.71906,3.187716 -0.528332,7.165519 2.65938,8.884565 3.18772,1.71905 7.165436,0.528463 8.884496,-2.659253 0.0291,-0.05396 0.057,-0.108309 0.08428,-0.162721 -1.479985,2.679062 -4.843411,3.674048 -7.54366,2.217886 -2.717207,-1.465328 -3.731996,-4.856065 -2.266679,-7.573276 0.975313,-1.808579 2.803891,-2.859693 4.718812,-2.930537 z m 31.970767,17.240999 -1.43602,0.0416 c 0.99296,1.63899 1.11933,3.74444 0.14398,5.55308 -1.46535,2.71726 -4.856139,3.73202 -7.573344,2.26681 -2.70084,-1.45652 -3.717221,-4.81461 -2.290407,-7.52346 -0.0312,0.0531 -0.06121,0.10708 -0.09062,0.16162 -1.719047,3.18762 -0.52833,7.16548 2.65938,8.88456 3.187751,1.71908 7.165411,0.52838 8.884491,-2.65925 1.18605,-2.19936 0.98688,-4.77475 -0.29746,-6.72496 z M 55.71022,85.185318 52.369337,91.380467 c 0.335742,1.139844 0.733628,2.330472 1.225582,3.581123 0.998781,2.539052 2.266967,5.07203 3.767036,7.59099 l 1.561798,-2.896109 c -0.599696,-1.121205 -1.110119,-2.282229 -1.469947,-3.484904 -0.587073,-1.993964 -0.743608,-4.02688 -0.505279,-5.967656 0.17351,-1.340698 0.509204,-2.615292 0.935409,-3.846364 z m 57.42653,30.968632 c -0.79445,1.0325 -1.67504,2.01323 -2.69993,2.89481 -1.49069,1.26544 -3.27527,2.25151 -5.26391,2.85648 -1.20255,0.3601 -2.45298,0.57143 -3.71923,0.68635 l -1.559311,2.8915 c 4.250531,-0.19093 8.287491,-0.81647 12.073491,-1.95856 l 3.34261,-6.19835 z m -52.822835,-14.17312 -6.9e-5,1.2e-4 -1.534948,2.84633 c 1.344977,2.05356 2.843559,4.0964 4.492828,6.12288 4.099047,5.03671 8.279198,8.95289 10.917152,11.29735 0,0 0.160991,0.0678 0.477034,0.12887 0.513731,0.14459 1.83223,0.50551 4.587523,1.1076 3.343317,0.73063 8.802911,1.75404 14.968055,2.01108 1.010284,0.0421 2.005842,0.0545 2.994332,0.0525 l 1.531703,-2.8403 c -1.404814,0.0264 -2.809671,0.009 -4.210903,-0.0799 l -4.47e-4,0.006 -3.222112,1.53104 -2.591979,-2.22718 c -4.260021,-0.73794 -8.441567,-1.95929 -12.440707,-3.56719 l 2.08e-4,-3.9e-4 -1.28e-4,-7e-5 c -8e-6,-6e-5 2.6e-5,-1.9e-4 1e-5,-3.2e-4 -7.5e-5,-3e-5 -1.59e-4,1.4e-4 -1.97e-4,6e-5 l -2.07e-4,3.8e-4 C 72.740441,115.91158 69.42273,113.0889 66.46572,109.9348 l -3.284977,-0.94212 -0.491112,-3.53348 0.0048,-0.004 c -0.844394,-1.12178 -1.630606,-2.28601 -2.380396,-3.47429 z" /></svg>
