<?xml version="1.0" encoding="UTF-8" standalone="no"?>
<!-- Created with Inkscape (http://www.inkscape.org/) -->

<svg
   width="399.99997mm"
   height="399.99997mm"
   viewBox="0 0 99.999992 99.999992"
   version="1.1"
   id="svg123"
   xml:space="preserve"
   inkscape:version="1.3 (0e150ed6c4, 2023-07-21)"
   sodipodi:docname="hachi_o.svg"
   inkscape:export-filename="LT0 - RBWH3023.622\colour_D.png"
   inkscape:export-xdpi="300"
   inkscape:export-ydpi="300"
   xmlns:inkscape="http://www.inkscape.org/namespaces/inkscape"
   xmlns:sodipodi="http://sodipodi.sourceforge.net/DTD/sodipodi-0.dtd"
   xmlns="http://www.w3.org/2000/svg"
   xmlns:svg="http://www.w3.org/2000/svg"><sodipodi:namedview
     id="namedview125"
     pagecolor="#282828"
     bordercolor="#1a1a1a"
     borderopacity="1"
     inkscape:showpageshadow="2"
     inkscape:pageopacity="0"
     inkscape:pagecheckerboard="0"
     inkscape:deskcolor="#282828"
     inkscape:document-units="mm"
     showgrid="false"
     showguides="false"
     inkscape:zoom="0.1767767"
     inkscape:cx="14.142135"
     inkscape:cy="506.28844"
     inkscape:window-width="1920"
     inkscape:window-height="1009"
     inkscape:window-x="1912"
     inkscape:window-y="-8"
     inkscape:window-maximized="1"
     inkscape:current-layer="svg123"><sodipodi:guide
       position="-50,-49.999998"
       orientation="0,-1"
       id="guide6584"
       inkscape:locked="false" /><sodipodi:guide
       position="150,150"
       orientation="0,-1"
       id="guide5725"
       inkscape:locked="false" /><sodipodi:guide
       position="-50,150"
       orientation="1,0"
       id="guide919"
       inkscape:locked="false" /><sodipodi:guide
       position="150,-49.999998"
       orientation="1,0"
       id="guide921"
       inkscape:locked="false" /><sodipodi:guide
       position="50.0001,150"
       orientation="1,0"
       id="guide923"
       inkscape:locked="false" /><sodipodi:guide
       position="-50,49.999904"
       orientation="0,-1"
       id="guide925"
       inkscape:locked="false" /><sodipodi:guide
       position="50.0001,-11.671348"
       orientation="0,-1"
       id="guide931"
       inkscape:locked="false" /><sodipodi:guide
       position="114.00007,49.9999"
       orientation="1,0"
       id="guide933"
       inkscape:locked="false" /><sodipodi:guide
       position="-13.999872,49.9999"
       orientation="1,0"
       id="guide1070"
       inkscape:locked="false" /><sodipodi:guide
       position="49.994292,16.416334"
       orientation="0,-1"
       id="guide1072"
       inkscape:locked="false" /><sodipodi:guide
       position="77.20744,41.307386"
       orientation="0,-1"
       id="guide1076"
       inkscape:locked="false" /><sodipodi:guide
       position="54.44156,43.548489"
       orientation="1,0"
       id="guide1080"
       inkscape:locked="false" /><sodipodi:guide
       position="27.658695,79.955402"
       orientation="0,-1"
       id="guide12587"
       inkscape:locked="false" /><inkscape:grid
       id="grid11"
       units="px"
       originx="-755.90552"
       originy="-755.90552"
       spacingx="0.066145833"
       spacingy="0.066145833"
       empcolor="#0099e5"
       empopacity="0.30196078"
       color="#0099e5"
       opacity="0.14901961"
       empspacing="5"
       dotted="false"
       gridanglex="30"
       gridanglez="30"
       visible="false" /><sodipodi:guide
       position="45.558249,43.548488"
       orientation="1,0"
       id="guide25"
       inkscape:locked="false" /><sodipodi:guide
       position="50.0001,116.32859"
       orientation="0,-1"
       id="guide304"
       inkscape:locked="false" /><sodipodi:guide
       position="49.999709,71.505482"
       orientation="0,-1"
       id="guide305"
       inkscape:locked="false" /><sodipodi:guide
       position="82.30438,58.654622"
       orientation="0,-1"
       id="guide306"
       inkscape:locked="false" /><sodipodi:guide
       position="40.234929,77.551552"
       orientation="1,0"
       id="guide349"
       inkscape:locked="false" /><sodipodi:guide
       position="59.76565,77.551552"
       orientation="1,0"
       id="guide350"
       inkscape:locked="false" /><sodipodi:guide
       position="50.0001,93.791042"
       orientation="0,-1"
       id="guide353"
       inkscape:locked="false" /><sodipodi:guide
       position="50.0001,3.8890296"
       orientation="0,-1"
       id="guide355"
       inkscape:locked="false" /><sodipodi:guide
       position="80.14043,37.665584"
       orientation="1,0"
       id="guide357"
       inkscape:locked="false" /><sodipodi:guide
       position="19.859559,37.665594"
       orientation="1,0"
       id="guide358"
       inkscape:locked="false" /><sodipodi:guide
       position="2.175032,62.713782"
       orientation="0,-1"
       id="guide359"
       inkscape:locked="false" /><sodipodi:guide
       position="97.82492,37.286215"
       orientation="0,-1"
       id="guide360"
       inkscape:locked="false" /><sodipodi:guide
       position="3.889128,50.000001"
       orientation="1,0"
       id="guide361"
       inkscape:locked="false" /><sodipodi:guide
       position="96.11107,50.000001"
       orientation="1,0"
       id="guide362"
       inkscape:locked="false" /><sodipodi:guide
       position="-10.779914,49.9999"
       orientation="1,0"
       id="guide363"
       inkscape:locked="false" /><sodipodi:guide
       position="110.78011,49.9999"
       orientation="1,0"
       id="guide364"
       inkscape:locked="false" /><sodipodi:guide
       position="50.0001,113.10863"
       orientation="0,-1"
       id="guide365"
       inkscape:locked="false" /><sodipodi:guide
       position="50.0001,-8.4513884"
       orientation="0,-1"
       id="guide366"
       inkscape:locked="false" /><sodipodi:guide
       position="49.924458,96.186602"
       orientation="0,-1"
       id="guide377"
       inkscape:locked="false" /><sodipodi:guide
       position="50.0001,6.2089606"
       orientation="0,-1"
       id="guide379"
       inkscape:locked="false" /><sodipodi:guide
       position="-18.938762,62.713782"
       orientation="1,0"
       id="guide1"
       inkscape:locked="false" /><sodipodi:guide
       position="118.93896,62.713782"
       orientation="1,0"
       id="guide2"
       inkscape:locked="false" /><sodipodi:guide
       position="80.97886,123.87761"
       orientation="0,-1"
       id="guide4"
       inkscape:locked="false" /><sodipodi:guide
       position="80.97886,128.81648"
       orientation="0,-1"
       id="guide5"
       inkscape:locked="false" /><sodipodi:guide
       position="19.021122,133.75535"
       orientation="0,-1"
       id="guide6"
       inkscape:locked="false" /><sodipodi:guide
       position="75.05607,138.69422"
       orientation="0,-1"
       id="guide7"
       inkscape:locked="false" /><sodipodi:guide
       position="66.66385,-23.412689"
       orientation="0,-1"
       id="guide8"
       inkscape:locked="false" /><sodipodi:guide
       position="64.5658,-28.351562"
       orientation="0,-1"
       id="guide9"
       inkscape:locked="false" /><sodipodi:guide
       position="64.5658,-33.290435"
       orientation="0,-1"
       id="guide10"
       inkscape:locked="false" /><sodipodi:guide
       position="66.66385,-38.229309"
       orientation="0,-1"
       id="guide11"
       inkscape:locked="false" /><sodipodi:guide
       position="64.5658,-43.168182"
       orientation="0,-1"
       id="guide12"
       inkscape:locked="false" /><sodipodi:guide
       position="-43.458097,144.67146"
       orientation="1,0"
       id="guide149"
       inkscape:locked="false" /><sodipodi:guide
       position="-43.458097,144.67146"
       orientation="0,-1"
       id="guide150"
       inkscape:locked="false" /><sodipodi:guide
       position="80.14043,37.665584"
       orientation="0,-1"
       id="guide386"
       inkscape:locked="false" /></sodipodi:namedview><defs
     id="defs120"><inkscape:path-effect
       effect="mirror_symmetry"
       start_point="100.00002,41.345344"
       end_point="100.00002,141.34534"
       center_point="100.00002,91.34534"
       id="path-effect753"
       is_visible="true"
       lpeversion="1.2"
       lpesatellites=""
       mode="vertical"
       discard_orig_path="false"
       fuse_paths="false"
       oposite_fuse="false"
       split_items="false"
       split_open="false"
       link_styles="false" /><inkscape:path-effect
       effect="mirror_symmetry"
       start_point="100.00002,41.345344"
       end_point="100.00002,141.34534"
       center_point="100.00002,91.34534"
       id="path-effect751"
       is_visible="true"
       lpeversion="1.2"
       lpesatellites=""
       mode="vertical"
       discard_orig_path="false"
       fuse_paths="false"
       oposite_fuse="false"
       split_items="false"
       split_open="false"
       link_styles="false" /><inkscape:path-effect
       effect="mirror_symmetry"
       start_point="100.00002,41.345344"
       end_point="100.00002,141.34534"
       center_point="100.00002,91.34534"
       id="path-effect749"
       is_visible="true"
       lpeversion="1.2"
       lpesatellites=""
       mode="vertical"
       discard_orig_path="false"
       fuse_paths="false"
       oposite_fuse="false"
       split_items="false"
       split_open="false"
       link_styles="false" /><inkscape:path-effect
       effect="mirror_symmetry"
       start_point="100.00002,41.345344"
       end_point="100.00002,141.34534"
       center_point="100.00002,91.34534"
       id="path-effect747"
       is_visible="true"
       lpeversion="1.2"
       lpesatellites=""
       mode="vertical"
       discard_orig_path="false"
       fuse_paths="false"
       oposite_fuse="false"
       split_items="false"
       split_open="false"
       link_styles="false" /><inkscape:path-effect
       effect="perspective-envelope"
       up_left_point="71.870702,63.933093"
       up_right_point="88.618549,63.933093"
       down_left_point="71.870702,83.74724"
       down_right_point="88.618549,83.74724"
       id="path-effect745"
       is_visible="true"
       lpeversion="1"
       deform_type="perspective"
       horizontal_mirror="false"
       vertical_mirror="false"
       overflow_perspective="false" /><inkscape:path-effect
       effect="mirror_symmetry"
       start_point="100.00002,41.345344"
       end_point="100.00002,141.34534"
       center_point="100.00002,91.34534"
       id="path-effect743"
       is_visible="true"
       lpeversion="1.2"
       lpesatellites=""
       mode="vertical"
       discard_orig_path="false"
       fuse_paths="false"
       oposite_fuse="false"
       split_items="false"
       split_open="false"
       link_styles="false" /><inkscape:path-effect
       effect="mirror_symmetry"
       start_point="97.253972,45.210534"
       end_point="97.253972,129.11928"
       center_point="97.253972,87.164906"
       id="path-effect741"
       is_visible="true"
       lpeversion="1.2"
       lpesatellites=""
       mode="vertical"
       discard_orig_path="false"
       fuse_paths="false"
       oposite_fuse="false"
       split_items="false"
       split_open="false"
       link_styles="false" /><inkscape:path-effect
       effect="perspective-envelope"
       up_left_point="74.071281,66.528614"
       up_right_point="87.227324,66.891006"
       down_left_point="74.071281,80.437755"
       down_right_point="87.227324,80.437755"
       id="path-effect739"
       is_visible="true"
       lpeversion="1"
       deform_type="perspective"
       horizontal_mirror="false"
       vertical_mirror="false"
       overflow_perspective="false" /><inkscape:path-effect
       effect="mirror_symmetry"
       start_point="100.00002,41.345344"
       end_point="100.00002,141.34534"
       center_point="100.00002,91.34534"
       id="path-effect737"
       is_visible="true"
       lpeversion="1.2"
       lpesatellites=""
       mode="vertical"
       discard_orig_path="false"
       fuse_paths="false"
       oposite_fuse="false"
       split_items="false"
       split_open="false"
       link_styles="false" /><inkscape:path-effect
       effect="mirror_symmetry"
       start_point="108.75519,-3.3769927"
       end_point="108.75519,171.31921"
       center_point="108.75519,83.971109"
       id="path-effect735"
       is_visible="true"
       lpeversion="1.2"
       lpesatellites=""
       mode="vertical"
       discard_orig_path="false"
       fuse_paths="false"
       oposite_fuse="false"
       split_items="false"
       split_open="false"
       link_styles="false" /><inkscape:path-effect
       effect="mirror_symmetry"
       start_point="106.80768,11.621287"
       end_point="106.80768,160.53271"
       center_point="106.80768,86.076997"
       id="path-effect733"
       is_visible="true"
       lpeversion="1.2"
       lpesatellites=""
       mode="vertical"
       discard_orig_path="false"
       fuse_paths="false"
       oposite_fuse="false"
       split_items="false"
       split_open="false"
       link_styles="false" /><inkscape:path-effect
       effect="mirror_symmetry"
       start_point="106.80768,11.621287"
       end_point="106.80768,160.53271"
       center_point="106.80768,86.076997"
       id="path-effect731"
       is_visible="true"
       lpeversion="1.2"
       lpesatellites=""
       mode="vertical"
       discard_orig_path="false"
       fuse_paths="false"
       oposite_fuse="false"
       split_items="false"
       split_open="false"
       link_styles="false" /><inkscape:path-effect
       effect="mirror_symmetry"
       start_point="100.00002,41.345344"
       end_point="100.00002,141.34534"
       center_point="100.00002,91.34534"
       id="path-effect729"
       is_visible="true"
       lpeversion="1.2"
       lpesatellites=""
       mode="vertical"
       discard_orig_path="false"
       fuse_paths="false"
       oposite_fuse="false"
       split_items="false"
       split_open="false"
       link_styles="false" /><inkscape:path-effect
       effect="mirror_symmetry"
       start_point="100.00002,41.345344"
       end_point="100.00002,141.34534"
       center_point="100.00002,91.34534"
       id="path-effect727"
       is_visible="true"
       lpeversion="1.2"
       lpesatellites=""
       mode="vertical"
       discard_orig_path="false"
       fuse_paths="false"
       oposite_fuse="false"
       split_items="false"
       split_open="false"
       link_styles="false" /><inkscape:path-effect
       effect="mirror_symmetry"
       start_point="100.00002,41.345344"
       end_point="100.00002,141.34534"
       center_point="100.00002,91.34534"
       id="path-effect725"
       is_visible="true"
       lpeversion="1.2"
       lpesatellites=""
       mode="vertical"
       discard_orig_path="false"
       fuse_paths="false"
       oposite_fuse="false"
       split_items="false"
       split_open="false"
       link_styles="false" /><inkscape:path-effect
       effect="mirror_symmetry"
       start_point="0.4110633,93.12628"
       end_point="100.41105,93.12628"
       center_point="50.411059,93.12628"
       id="path-effect723"
       is_visible="true"
       lpeversion="1.2"
       lpesatellites=""
       mode="vertical"
       discard_orig_path="false"
       fuse_paths="false"
       oposite_fuse="false"
       split_items="false"
       split_open="false"
       link_styles="false" /><inkscape:path-effect
       effect="bend_path"
       id="path-effect721"
       is_visible="true"
       lpeversion="1"
       bendpath="M 71.706703,113.5565 H 84.669444"
       prop_scale="1"
       scale_y_rel="false"
       vertical="false"
       hide_knot="false" /><inkscape:path-effect
       effect="mirror_symmetry"
       start_point="19.564793,70.62238"
       end_point="119.56479,70.62238"
       center_point="69.56479,70.62238"
       id="path-effect719"
       is_visible="true"
       lpeversion="1.2"
       lpesatellites=""
       mode="vertical"
       discard_orig_path="false"
       fuse_paths="false"
       oposite_fuse="false"
       split_items="false"
       split_open="false"
       link_styles="false" /><inkscape:path-effect
       effect="bend_path"
       id="path-effect717"
       is_visible="true"
       lpeversion="1"
       bendpath="m 44.591573,96.39293 c 24.205229,-8.116016 39.744281,4.45373 47.921992,-10.157214"
       prop_scale="1"
       scale_y_rel="false"
       vertical="false"
       hide_knot="false"
       bendpath-nodetypes="cc" /><inkscape:path-effect
       effect="mirror_symmetry"
       start_point="-96.181839,-89.123249"
       end_point="174.41065,-89.123249"
       center_point="39.114405,-89.123249"
       id="path-effect715"
       is_visible="true"
       lpeversion="1.2"
       lpesatellites=""
       mode="vertical"
       discard_orig_path="false"
       fuse_paths="false"
       oposite_fuse="false"
       split_items="false"
       split_open="false"
       link_styles="false" /><inkscape:path-effect
       effect="mirror_symmetry"
       start_point="100.00002,16.2097"
       end_point="100.00002,178.16005"
       center_point="100.00002,97.184875"
       id="path-effect713"
       is_visible="true"
       lpeversion="1.2"
       lpesatellites=""
       mode="vertical"
       discard_orig_path="false"
       fuse_paths="false"
       oposite_fuse="false"
       split_items="false"
       split_open="false"
       link_styles="false" /><inkscape:path-effect
       effect="mirror_symmetry"
       start_point="100.00002,41.345344"
       end_point="100.00002,141.34534"
       center_point="100.00002,91.34534"
       id="path-effect711"
       is_visible="true"
       lpeversion="1.2"
       lpesatellites=""
       mode="vertical"
       discard_orig_path="false"
       fuse_paths="false"
       oposite_fuse="false"
       split_items="false"
       split_open="false"
       link_styles="false" /><inkscape:path-effect
       effect="mirror_symmetry"
       start_point="100.00002,41.345344"
       end_point="100.00002,141.34534"
       center_point="100.00002,91.34534"
       id="path-effect709"
       is_visible="true"
       lpeversion="1.2"
       lpesatellites=""
       mode="vertical"
       discard_orig_path="false"
       fuse_paths="false"
       oposite_fuse="false"
       split_items="false"
       split_open="false"
       link_styles="false" /><inkscape:path-effect
       effect="mirror_symmetry"
       start_point="100.00087,41.749048"
       end_point="100.00087,141.74904"
       center_point="100.00087,91.749044"
       id="path-effect707"
       is_visible="true"
       lpeversion="1.2"
       lpesatellites=""
       mode="vertical"
       discard_orig_path="false"
       fuse_paths="false"
       oposite_fuse="false"
       split_items="false"
       split_open="false"
       link_styles="false" /><inkscape:path-effect
       effect="mirror_symmetry"
       start_point="100.00002,41.345344"
       end_point="100.00002,141.34534"
       center_point="100.00002,91.34534"
       id="path-effect704"
       is_visible="true"
       lpeversion="1.2"
       lpesatellites=""
       mode="vertical"
       discard_orig_path="false"
       fuse_paths="false"
       oposite_fuse="false"
       split_items="false"
       split_open="false"
       link_styles="false" /><inkscape:path-effect
       effect="mirror_symmetry"
       start_point="100.00002,41.345344"
       end_point="100.00002,141.34534"
       center_point="100.00002,91.34534"
       id="path-effect702"
       is_visible="true"
       lpeversion="1.2"
       lpesatellites=""
       mode="vertical"
       discard_orig_path="false"
       fuse_paths="false"
       oposite_fuse="false"
       split_items="false"
       split_open="false"
       link_styles="false" /><inkscape:path-effect
       effect="mirror_symmetry"
       start_point="118.8141,39.499162"
       end_point="65.386538,138.57229"
       center_point="92.100319,89.035726"
       id="path-effect700"
       is_visible="true"
       lpeversion="1.2"
       lpesatellites=""
       mode="vertical"
       discard_orig_path="false"
       fuse_paths="false"
       oposite_fuse="false"
       split_items="false"
       split_open="false"
       link_styles="false" /><inkscape:path-effect
       effect="mirror_symmetry"
       start_point="99.999999,0"
       end_point="99.999999,200"
       center_point="99.999999,99.999999"
       id="path-effect698"
       is_visible="false"
       lpeversion="1.2"
       lpesatellites=""
       mode="vertical"
       discard_orig_path="false"
       fuse_paths="false"
       oposite_fuse="false"
       split_items="false"
       split_open="false"
       link_styles="false" /><inkscape:path-effect
       effect="mirror_symmetry"
       start_point="112.66949,34.670966"
       end_point="83.53655,143.39659"
       center_point="98.103021,89.033777"
       id="path-effect695"
       is_visible="true"
       lpeversion="1.2"
       lpesatellites=""
       mode="vertical"
       discard_orig_path="false"
       fuse_paths="false"
       oposite_fuse="false"
       split_items="false"
       split_open="false"
       link_styles="false" /><inkscape:path-effect
       effect="perspective-envelope"
       up_left_point="75.128073,68.571065"
       up_right_point="93.683088,68.571065"
       down_left_point="70.413099,87.869534"
       down_right_point="102.89451,89.201547"
       id="path-effect693"
       is_visible="true"
       lpeversion="1"
       deform_type="perspective"
       horizontal_mirror="false"
       vertical_mirror="false"
       overflow_perspective="false" /><inkscape:path-effect
       effect="perspective-envelope"
       up_left_point="73.771994,63.995303"
       up_right_point="95.363922,63.995303"
       down_left_point="71.249479,90.627428"
       down_right_point="98.486462,90.984166"
       id="path-effect690"
       is_visible="true"
       lpeversion="1"
       deform_type="perspective"
       horizontal_mirror="false"
       vertical_mirror="false"
       overflow_perspective="false" /><inkscape:path-effect
       effect="perspective-envelope"
       up_left_point="75.128073,68.571065"
       up_right_point="93.683088,68.571065"
       down_left_point="74.505351,87.869534"
       down_right_point="98.363831,89.201547"
       id="path-effect688"
       is_visible="true"
       lpeversion="1"
       deform_type="perspective"
       horizontal_mirror="false"
       vertical_mirror="false"
       overflow_perspective="false" /><inkscape:path-effect
       effect="mirror_symmetry"
       start_point="99.999999,0"
       end_point="99.999999,200"
       center_point="99.999999,99.999999"
       id="path-effect686"
       is_visible="false"
       lpeversion="1.2"
       lpesatellites=""
       mode="vertical"
       discard_orig_path="false"
       fuse_paths="false"
       oposite_fuse="false"
       split_items="false"
       split_open="false"
       link_styles="false" /><inkscape:path-effect
       effect="mirror_symmetry"
       start_point="110.13948,36.909781"
       end_point="84.257573,133.50236"
       center_point="97.198524,85.206069"
       id="path-effect683"
       is_visible="true"
       lpeversion="1.2"
       lpesatellites=""
       mode="vertical"
       discard_orig_path="false"
       fuse_paths="false"
       oposite_fuse="false"
       split_items="false"
       split_open="false"
       link_styles="false" /><inkscape:path-effect
       effect="mirror_symmetry"
       start_point="0.4110583,93.126275"
       end_point="100.41105,93.126275"
       center_point="50.411054,93.126275"
       id="path-effect681"
       is_visible="true"
       lpeversion="1.2"
       lpesatellites=""
       mode="vertical"
       discard_orig_path="false"
       fuse_paths="false"
       oposite_fuse="false"
       split_items="false"
       split_open="false"
       link_styles="false" /><inkscape:path-effect
       effect="bend_path"
       id="path-effect679"
       is_visible="true"
       lpeversion="1"
       bendpath="M 71.706703,113.5565 H 84.669444"
       prop_scale="1"
       scale_y_rel="false"
       vertical="false"
       hide_knot="false" /><inkscape:path-effect
       effect="mirror_symmetry"
       start_point="121.13877,38.68326"
       end_point="121.13877,144.14249"
       center_point="121.13877,91.412875"
       id="path-effect677"
       is_visible="true"
       lpeversion="1.2"
       lpesatellites=""
       mode="vertical"
       discard_orig_path="false"
       fuse_paths="false"
       oposite_fuse="false"
       split_items="false"
       split_open="false"
       link_styles="false" /><inkscape:path-effect
       effect="mirror_symmetry"
       start_point="99.999999,0"
       end_point="99.999999,200"
       center_point="99.999999,99.999999"
       id="path-effect675"
       is_visible="false"
       lpeversion="1.2"
       lpesatellites=""
       mode="vertical"
       discard_orig_path="false"
       fuse_paths="false"
       oposite_fuse="false"
       split_items="false"
       split_open="false"
       link_styles="false" /><inkscape:path-effect
       effect="perspective-envelope"
       up_left_point="75.128073,68.571065"
       up_right_point="93.683088,68.571065"
       down_left_point="75.347369,87.818045"
       down_right_point="99.492565,89.201547"
       id="path-effect673"
       is_visible="true"
       lpeversion="1"
       deform_type="perspective"
       horizontal_mirror="false"
       vertical_mirror="false"
       overflow_perspective="false" /><inkscape:path-effect
       effect="mirror_symmetry"
       start_point="99.999999,0"
       end_point="99.999999,200"
       center_point="99.999999,99.999999"
       id="path-effect671"
       is_visible="false"
       lpeversion="1.2"
       lpesatellites=""
       mode="vertical"
       discard_orig_path="false"
       fuse_paths="false"
       oposite_fuse="false"
       split_items="false"
       split_open="false"
       link_styles="false" /><inkscape:path-effect
       effect="mirror_symmetry"
       start_point="98.850248,-10.060325"
       end_point="98.850248,189.93967"
       center_point="98.850248,89.939674"
       id="path-effect668"
       is_visible="false"
       lpeversion="1.2"
       lpesatellites=""
       mode="vertical"
       discard_orig_path="false"
       fuse_paths="false"
       oposite_fuse="false"
       split_items="false"
       split_open="false"
       link_styles="false" /><inkscape:path-effect
       effect="lattice2"
       gridpoint0="68.435357,53.562641"
       gridpoint1="131.56484,53.562641"
       gridpoint2="68.435357,85.127381"
       gridpoint3="131.56484,85.127381"
       gridpoint4="84.217727,53.562641"
       gridpoint5="115.78247,53.562641"
       gridpoint6="84.217727,85.127381"
       gridpoint7="115.78247,85.127381"
       gridpoint8x9="100.0001,53.562641"
       gridpoint10x11="100.0001,85.127381"
       gridpoint12="68.435357,61.453826"
       gridpoint13="131.56484,61.453826"
       gridpoint14="68.435357,77.236196"
       gridpoint15="131.56484,77.236196"
       gridpoint16="84.217727,61.453826"
       gridpoint17="115.78247,61.453826"
       gridpoint18="84.217727,77.236196"
       gridpoint19="115.78247,77.236196"
       gridpoint20x21="100.0001,61.453826"
       gridpoint22x23="100.0001,77.236196"
       gridpoint24x26="68.435357,69.345011"
       gridpoint25x27="131.56484,69.345011"
       gridpoint28x30="84.217727,69.345011"
       gridpoint29x31="115.78247,69.345011"
       gridpoint32x33x34x35="100.0001,69.345011"
       id="path-effect495"
       is_visible="true"
       lpeversion="1"
       horizontal_mirror="false"
       vertical_mirror="true"
       perimetral="false"
       live_update="true" /><inkscape:path-effect
       effect="mirror_symmetry"
       start_point="100.00026,49.074544"
       end_point="100.00026,149.07454"
       center_point="100.00026,99.07454"
       id="path-effect494"
       is_visible="true"
       lpeversion="1.2"
       lpesatellites=""
       mode="vertical"
       discard_orig_path="false"
       fuse_paths="false"
       oposite_fuse="false"
       split_items="false"
       split_open="false"
       link_styles="false" /><inkscape:path-effect
       effect="mirror_symmetry"
       start_point="108.75519,-3.3769927"
       end_point="108.75519,171.31921"
       center_point="108.75519,83.971109"
       id="path-effect444"
       is_visible="true"
       lpeversion="1.2"
       lpesatellites=""
       mode="vertical"
       discard_orig_path="false"
       fuse_paths="false"
       oposite_fuse="false"
       split_items="false"
       split_open="false"
       link_styles="false" /><inkscape:path-effect
       effect="mirror_symmetry"
       start_point="106.80768,11.621287"
       end_point="106.80768,160.53271"
       center_point="106.80768,86.076997"
       id="path-effect433"
       is_visible="true"
       lpeversion="1.2"
       lpesatellites=""
       mode="vertical"
       discard_orig_path="false"
       fuse_paths="false"
       oposite_fuse="false"
       split_items="false"
       split_open="false"
       link_styles="false" /><inkscape:path-effect
       effect="mirror_symmetry"
       start_point="100.00002,41.345344"
       end_point="100.00002,141.34534"
       center_point="100.00002,91.34534"
       id="path-effect425"
       is_visible="true"
       lpeversion="1.2"
       lpesatellites=""
       mode="vertical"
       discard_orig_path="false"
       fuse_paths="false"
       oposite_fuse="false"
       split_items="false"
       split_open="false"
       link_styles="false" /><inkscape:path-effect
       effect="mirror_symmetry"
       start_point="100.00002,41.345344"
       end_point="100.00002,141.34534"
       center_point="100.00002,91.34534"
       id="path-effect411"
       is_visible="true"
       lpeversion="1.2"
       lpesatellites=""
       mode="vertical"
       discard_orig_path="false"
       fuse_paths="false"
       oposite_fuse="false"
       split_items="false"
       split_open="false"
       link_styles="false" /><linearGradient
       id="linearGradient4769"
       inkscape:swatch="gradient"><stop
         style="stop-color:#ffffff;stop-opacity:1;"
         offset="0"
         id="stop4765" /><stop
         style="stop-color:#ffffff;stop-opacity:0;"
         offset="1"
         id="stop4767" /></linearGradient><linearGradient
       id="linearGradient2383"
       inkscape:swatch="solid"><stop
         style="stop-color:#000000;stop-opacity:1;"
         offset="0"
         id="stop2381" /></linearGradient></defs><path
     id="path382"
     style="display:inline;color:#000000;fill:#ffffff;stroke-linecap:square;stroke-linejoin:round;stroke-miterlimit:30;-inkscape-stroke:none;paint-order:markers stroke fill;fill-opacity:1"
     d="m 77.781192,60.956986 a 0.50005,0.50005 0 0 0 -0.558493,0.291067 c 0,0 -2.511165,5.827733 -3.187531,13.292987 -0.168635,1.86136 -0.202244,3.705089 -0.136685,5.517493 a 0.50005,0.50005 0 0 0 0.0019,0.02933 c 0.09057,0.941128 0.165413,1.879621 0.207094,2.816495 0.198143,4.50523 -0.166372,8.990927 -0.365224,13.454992 a 0.50005,0.50005 0 0 0 0,0.0039 c -0.08832,2.290469 -0.121866,4.58839 0.19327,6.81651 h -1.820302 -2.193277 a 0.50005,0.50005 0 0 0 -0.500099,0.49997 v 6.25582 a 0.50005,0.50005 0 0 0 0.144565,0.3536 c 0.397368,0.39909 0.80693,0.78559 1.220727,1.16595 0.135514,0.12475 0.271595,0.24662 0.406176,0.36716 0.296173,0.26474 0.597271,0.52433 0.9024,0.78134 0.147518,0.12455 0.297481,0.25614 0.459016,0.38861 a 0.50005,0.50005 0 0 0 0.0019,0 c 0.368502,0.30139 0.74288,0.59628 1.123058,0.88677 1.441468,1.10453 2.978541,2.13879 4.59959,3.10937 0.677957,0.40592 1.37052,0.80084 2.080105,1.18546 4.9e-4,2.9e-4 0.0016,0.002 0.0021,0.002 0.0013,7e-4 0.0026,9.4e-4 0.0039,0.002 a 0.50005,0.50005 0 0 0 0.0039,0.002 c 0.775271,0.42002 1.563699,0.83372 2.378925,1.23041 0.621014,0.30219 1.239243,0.58901 1.849628,0.86326 1.220865,0.54853 2.414248,1.0437 3.556631,1.48634 1.713505,0.66389 3.311824,1.21334 4.71289,1.66024 0.934068,0.29793 1.779181,0.54902 2.513671,0.75977 2.392351,0.68649 3.564477,0.95905 4.042906,1.06634 0.01585,0.005 0.01202,10e-4 0.02739,0.006 0.0016,3.6e-4 0.01211,0.004 0.01369,0.004 0.270485,0.0788 0.487521,0.10924 0.488213,0.1093 a 0.50005,0.50005 0 0 0 0.0469,-0.0156 0.50005,0.50005 0 0 0 0.0469,0.0156 c 6.9e-4,-6e-5 0.21785,-0.0305 0.48834,-0.1093 l 0.0137,-0.004 c 0.47197,-0.10571 1.66196,-0.38122 4.0703,-1.07229 0.73449,-0.21075 1.5796,-0.46184 2.51367,-0.75977 1.40107,-0.4469 2.99938,-0.99635 4.71289,-1.66024 1.14239,-0.44264 2.3377,-0.93768 3.55857,-1.48621 0.61038,-0.27425 1.22668,-0.5612 1.84769,-0.86339 0.81523,-0.39671 1.60352,-0.81039 2.37879,-1.23041 a 0.50005,0.50005 0 0 0 0.004,-0.002 c 0.004,-0.002 0.008,-0.004 0.0118,-0.006 -0.0251,0.0147 0.004,-0.002 0.004,-0.002 0.70635,-0.38304 1.39528,-0.77756 2.07029,-1.18171 1.62104,-0.97058 3.15812,-2.00484 4.59959,-3.10937 0.38018,-0.29049 0.75455,-0.58538 1.12305,-0.88677 a 0.50005,0.50005 0 0 0 0.002,0 c 0.16154,-0.13247 0.3115,-0.26406 0.45902,-0.38861 0.30513,-0.25701 0.6061,-0.51647 0.90227,-0.78121 0.13458,-0.12054 0.27079,-0.24254 0.4063,-0.36729 0.4138,-0.38036 0.82324,-0.76686 1.2206,-1.16595 a 0.50005,0.50005 0 0 0 0.14457,-0.35347 v -6.25595 a 0.50005,0.50005 0 0 0 -0.49997,-0.49997 h -2.19341 -1.8203 c 0.31514,-2.22812 0.28173,-4.525912 0.1934,-6.816381 a 0.50005,0.50005 0 0 0 0,-0.0039 c -0.19885,-4.464065 -0.56338,-8.949891 -0.36523,-13.455121 0.0417,-0.936874 0.11639,-1.875238 0.20697,-2.816366 a 0.50005,0.50005 0 0 0 0.002,-0.02933 c 0.0656,-1.812404 0.0319,-3.656266 -0.13668,-5.517622 -0.6738,-7.436969 -3.15895,-13.219741 -3.17784,-13.263661 a 0.50005,0.50005 0 0 0 -0.004,-0.01176 l -0.006,-0.01757 -0.004,0.004 a 0.50005,0.50005 0 0 0 -0.19728,-0.234482 0.50005,0.50005 0 0 0 -0.53705,0.04883 v -0.03514 c -4.87566,3.27864 -9.07188,6.061393 -13.21288,9.255895 -2.82748,-0.563244 -5.79618,-0.884814 -8.826302,-0.884829 -3.03067,1.6e-5 -5.998192,0.321352 -8.826205,0.884829 C 87.032889,67.092663 82.83669,64.30991 77.961014,61.03127 l 0.0056,0.01059 a 0.50005,0.50005 0 0 0 -0.185389,-0.08488 z m -0.100511,0.489892 c 4.939479,3.321539 9.181059,6.121978 13.353966,9.353176 2.862302,-0.586458 5.886516,-0.898163 8.965344,-0.898136 3.078859,-4.1e-5 6.102989,0.311694 8.965339,0.898136 4.17278,-3.231053 8.41451,-6.03152 13.35397,-9.353047 0,0 2.48024,5.760924 3.14877,13.138604 0.16648,1.837548 0.19889,3.660543 0.13398,5.454706 -0.0911,0.946574 -0.1666,1.894182 -0.20878,2.84272 -0.19985,4.546359 0.1664,9.047312 0.36484,13.498918 0.13464,3.491382 0.24627,6.964515 -0.99284,10.056755 -0.54345,1.38565 -1.37644,2.68691 -2.47155,3.78607 -0.62544,0.63427 -1.34827,1.20227 -2.12532,1.7247 -1.55326,0.98956 -3.17444,1.87117 -4.85022,2.64661 l 0.002,0.004 -1.87391,2.55592 -2.97049,-0.64931 c -3.38761,1.12373 -6.9171,1.87975 -10.47546,2.30308 v 2.6e-4 h -1.3e-4 v -1.3e-4 c -3e-5,-1.9e-4 -1.7e-4,-2.1e-4 -2.58e-4,-2.5e-4 h -1.3e-4 C 96.44134,118.3864 92.911979,117.63045 89.524403,116.5067 l -2.970491,0.64918 -1.873916,-2.55579 0.0019,-0.004 c -1.674878,-0.77493 -3.295485,-1.65587 -4.848025,-2.64506 -0.777898,-0.52282 -1.501495,-1.09138 -2.127519,-1.72625 -1.095111,-1.09914 -1.928132,-2.40043 -2.471554,-3.78607 -1.239243,-3.09224 -1.127585,-6.565441 -0.992963,-10.056754 0.198311,-4.451628 0.564897,-8.9525 0.364965,-13.498918 -0.04218,-0.948699 -0.117641,-1.8965 -0.208773,-2.843237 -0.06487,-1.793984 -0.03251,-3.616812 0.133971,-5.454189 0.668455,-7.37775 3.148645,-13.138604 3.148645,-13.138604 z m 41.464909,5.52744 c -0.0154,-0.0038 -0.0312,-0.002 -0.0433,0.0052 -3.13485,1.889199 -5.96104,3.556175 -8.8833,5.607926 -1.456,1.022275 -2.80672,2.055465 -4.05906,3.107175 1.15399,-0.631172 2.33565,-1.234925 3.54681,-1.81423 1.04218,-0.498478 2.04527,-0.950153 3.0294,-1.377435 1.8855,0.996583 3.59274,2.144168 5.04362,3.421625 0.1811,0.159418 0.3532,0.321326 0.52504,0.483304 6.7e-4,0.0013 0.003,0.0021 0.004,0.0031 0.51858,0.447265 1.00952,0.969798 1.4773,1.555719 1.02275,1.213676 1.79536,2.475999 2.30865,3.752225 0.41668,0.838461 0.81388,1.732415 1.19566,2.671414 0.16695,-3.306972 -0.006,-6.698445 -0.84801,-9.905597 -1.14289,-4.351936 -3.22603,-7.482748 -3.22603,-7.482748 -0.008,-0.01124 -0.0197,-0.01849 -0.0322,-0.02093 -0.007,-0.0016 -0.0152,0.0022 -0.0222,0.0041 -0.005,-0.0036 -0.009,-0.0091 -0.0163,-0.01059 h -2.6e-4 z m -38.290942,2.59e-4 c -0.0069,0.0015 -0.01059,0.0071 -0.01628,0.01059 -0.0075,-0.0019 -0.0148,-0.0056 -0.02222,-0.004 -0.01257,0.0023 -0.02426,0.0097 -0.03217,0.02093 0,0 -2.083106,3.130822 -3.22603,7.482747 -0.842254,3.20716 -1.014804,6.598632 -0.847881,9.905597 0.381791,-0.939 0.778983,-1.832961 1.195663,-2.671413 0.513293,-1.276235 1.285929,-2.538536 2.308645,-3.752226 0.46779,-0.585933 0.958699,-1.108454 1.4773,-1.555719 0.0013,-9.91e-4 0.0025,-0.0019 0.0037,-0.003 0.171836,-0.161979 0.343942,-0.323883 0.525033,-0.483303 1.451005,-1.277368 3.158148,-2.425038 5.04362,-3.421626 0.984131,0.427251 1.987255,0.878968 3.029401,1.377435 1.211161,0.579293 2.392845,1.183063 3.546812,1.814231 -1.252334,-1.051706 -2.60295,-2.084827 -4.059054,-3.107175 -2.922207,-2.05171 -5.748375,-3.718679 -8.883308,-5.607927 -0.01205,-0.0072 -0.02795,-0.009 -0.04328,-0.0052 z m 3.211819,5.900027 0.05206,0.03566 h -0.05206 z m 31.867173,0 v 0.03566 h -0.0522 z M 77.326052,86.827758 c -0.05494,0.0012 -0.09995,0.03838 -0.130095,0.108649 -0.06139,0.142133 -0.05423,0.403057 0.01873,0.684455 l 2.180875,8.401812 c -0.750446,1.283643 -1.183778,2.775507 -1.183778,4.369756 3e-6,4.79125 3.884211,8.67558 8.675439,8.67557 4.791269,5e-5 8.675488,-3.88424 8.67544,-8.67557 0,-0.0893 -0.0014,-0.17831 -0.0044,-0.26691 L 83.573216,93.205921 77.511312,86.929819 c -0.04374,-0.04512 -0.08679,-0.07602 -0.127124,-0.09121 -0.02034,-0.0076 -0.03981,-0.01112 -0.05814,-0.01072 z m 45.347878,0 c -0.0183,-4.2e-4 -0.0377,0.0032 -0.058,0.01085 -0.0403,0.01519 -0.0834,0.04609 -0.12712,0.09121 l -6.06203,6.276231 -11.98506,6.919471 c -0.003,0.0886 -0.004,0.17759 -0.004,0.26691 3e-5,4.79131 3.8843,8.67552 8.67557,8.67557 4.79126,-1.5e-4 8.67543,-3.88423 8.67544,-8.67557 6e-5,-1.594094 -0.43343,-3.08599 -1.1839,-4.369627 l 2.18087,-8.401942 c 0.073,-0.281402 0.0801,-0.542325 0.0187,-0.684455 -0.03,-0.0703 -0.0752,-0.107397 -0.13009,-0.108649 z m -38.808872,8.9979 1.105359,0.638204 c -1.46749,0.862886 -2.454121,2.455905 -2.454113,4.281388 5e-6,2.74261 2.223364,4.9661 4.965975,4.96611 2.725489,-1e-5 4.935966,-2.19637 4.963522,-4.91533 0.0016,0.0541 0.0027,0.10831 0.0027,0.16278 -9e-6,3.21752 -2.608354,5.82586 -5.825872,5.82587 -3.21751,0 -5.82601,-2.60835 -5.826001,-5.82587 9e-6,-2.219881 1.241762,-4.1498 3.068417,-5.133152 z m 32.269862,0 c 1.82667,0.98338 3.06841,2.913219 3.06842,5.133152 -8e-5,3.21743 -2.6083,5.82588 -5.82587,5.82587 -3.21752,-4e-5 -5.82605,-2.60847 -5.826,-5.82587 0,-0.055 7.1e-4,-0.10991 0.003,-0.16459 0.0266,2.71985 2.23742,4.91711 4.96352,4.91714 2.74254,-1.2e-4 4.96611,-2.22343 4.96611,-4.96611 0,-1.825553 -0.98666,-3.418625 -2.45425,-4.281517 z M 69.921078,103.6797 h 2.194052 c 0.185849,1.14235 0.460842,2.2806 0.890514,3.40212 0.632038,1.61808 1.611701,3.14173 2.911579,4.45334 0.788516,0.7887 1.677241,1.48133 2.618962,2.10517 v 2.92321 c -2.235154,-1.3371 -4.294987,-2.78305 -6.146653,-4.34728 -0.912063,-0.77049 -1.725268,-1.53373 -2.468454,-2.28345 z m 57.963772,0 h 2.19405 v 6.25634 c -2.47886,2.48956 -5.37176,4.68108 -8.61497,6.62272 v -2.91856 c 0.94168,-0.62382 1.83034,-1.31636 2.61883,-2.10504 1.29991,-1.31163 2.27955,-2.83523 2.91158,-4.45334 0.42966,-1.12153 0.70468,-2.25975 0.89051,-3.40212 z m -47.281479,11.19208 c 1.087392,0.61303 2.1931,1.19196 3.326412,1.71308 l -0.0019,0.005 1.873917,2.55592 2.965969,-0.64854 c 3.64211,1.21941 7.426653,2.02742 11.231614,2.45657 1.74e-4,2e-5 3.43e-4,1.1e-4 5.17e-4,1.3e-4 v -1.3e-4 c 1.3e-4,-5e-5 2.6e-4,-1e-4 3.9e-4,-1.3e-4 v 2.6e-4 c 3.80514,-0.42907 7.58997,-1.23735 11.23226,-2.4567 l 2.96597,0.64854 1.87391,-2.55592 -0.002,-0.005 c 1.13318,-0.52136 2.23906,-1.10017 3.32641,-1.7132 v 2.86688 c -0.7721,0.41839 -1.55581,0.82853 -2.36355,1.22163 -4.92917,2.39879 -9.62995,3.90074 -12.55234,4.73925 -2.40838,0.69105 -3.59159,0.96484 -4.05427,1.06841 -0.27288,0.0855 -0.427366,0.10038 -0.427366,0.10038 -3.051359,-0.72087 -7.971469,-2.0204 -13.300609,-4.23036 -2.144174,-0.88914 -4.177474,-1.85466 -6.095106,-2.89324 z"
     transform="translate(-50.000023,-41.345344)"
     inkscape:label="O" /></svg>
