<?xml version="1.0" encoding="UTF-8" standalone="no"?>
<!-- Created with Inkscape (http://www.inkscape.org/) -->

<svg
   width="399.99997mm"
   height="399.99997mm"
   viewBox="0 0 99.999992 99.999992"
   version="1.1"
   id="svg123"
   xml:space="preserve"
   inkscape:version="1.3 (0e150ed6c4, 2023-07-21)"
   sodipodi:docname="hachi_coin.svg"
   inkscape:export-filename="LT0 - RBWH3023.622\colour_D.png"
   inkscape:export-xdpi="300"
   inkscape:export-ydpi="300"
   xmlns:inkscape="http://www.inkscape.org/namespaces/inkscape"
   xmlns:sodipodi="http://sodipodi.sourceforge.net/DTD/sodipodi-0.dtd"
   xmlns="http://www.w3.org/2000/svg"
   xmlns:svg="http://www.w3.org/2000/svg"><sodipodi:namedview
     id="namedview125"
     pagecolor="#282828"
     bordercolor="#1a1a1a"
     borderopacity="1"
     inkscape:showpageshadow="2"
     inkscape:pageopacity="0"
     inkscape:pagecheckerboard="0"
     inkscape:deskcolor="#282828"
     inkscape:document-units="mm"
     showgrid="false"
     showguides="false"
     inkscape:zoom="0.1767767"
     inkscape:cx="14.142135"
     inkscape:cy="506.28844"
     inkscape:window-width="1920"
     inkscape:window-height="1009"
     inkscape:window-x="1912"
     inkscape:window-y="-8"
     inkscape:window-maximized="1"
     inkscape:current-layer="svg123"><sodipodi:guide
       position="-50,-49.999998"
       orientation="0,-1"
       id="guide6584"
       inkscape:locked="false" /><sodipodi:guide
       position="150,150"
       orientation="0,-1"
       id="guide5725"
       inkscape:locked="false" /><sodipodi:guide
       position="-50,150"
       orientation="1,0"
       id="guide919"
       inkscape:locked="false" /><sodipodi:guide
       position="150,-49.999998"
       orientation="1,0"
       id="guide921"
       inkscape:locked="false" /><sodipodi:guide
       position="50.0001,150"
       orientation="1,0"
       id="guide923"
       inkscape:locked="false" /><sodipodi:guide
       position="-50,49.999904"
       orientation="0,-1"
       id="guide925"
       inkscape:locked="false" /><sodipodi:guide
       position="50.0001,-11.671348"
       orientation="0,-1"
       id="guide931"
       inkscape:locked="false" /><sodipodi:guide
       position="114.00007,49.9999"
       orientation="1,0"
       id="guide933"
       inkscape:locked="false" /><sodipodi:guide
       position="-13.999872,49.9999"
       orientation="1,0"
       id="guide1070"
       inkscape:locked="false" /><sodipodi:guide
       position="49.994292,16.416334"
       orientation="0,-1"
       id="guide1072"
       inkscape:locked="false" /><sodipodi:guide
       position="77.20744,41.307386"
       orientation="0,-1"
       id="guide1076"
       inkscape:locked="false" /><sodipodi:guide
       position="54.44156,43.548489"
       orientation="1,0"
       id="guide1080"
       inkscape:locked="false" /><sodipodi:guide
       position="27.658695,79.955402"
       orientation="0,-1"
       id="guide12587"
       inkscape:locked="false" /><inkscape:grid
       id="grid11"
       units="px"
       originx="-755.90552"
       originy="-755.90552"
       spacingx="0.066145833"
       spacingy="0.066145833"
       empcolor="#0099e5"
       empopacity="0.30196078"
       color="#0099e5"
       opacity="0.14901961"
       empspacing="5"
       dotted="false"
       gridanglex="30"
       gridanglez="30"
       visible="false" /><sodipodi:guide
       position="45.558249,43.548488"
       orientation="1,0"
       id="guide25"
       inkscape:locked="false" /><sodipodi:guide
       position="50.0001,116.32859"
       orientation="0,-1"
       id="guide304"
       inkscape:locked="false" /><sodipodi:guide
       position="49.999709,71.505482"
       orientation="0,-1"
       id="guide305"
       inkscape:locked="false" /><sodipodi:guide
       position="82.30438,58.654622"
       orientation="0,-1"
       id="guide306"
       inkscape:locked="false" /><sodipodi:guide
       position="40.234929,77.551552"
       orientation="1,0"
       id="guide349"
       inkscape:locked="false" /><sodipodi:guide
       position="59.76565,77.551552"
       orientation="1,0"
       id="guide350"
       inkscape:locked="false" /><sodipodi:guide
       position="50.0001,93.791042"
       orientation="0,-1"
       id="guide353"
       inkscape:locked="false" /><sodipodi:guide
       position="50.0001,3.8890296"
       orientation="0,-1"
       id="guide355"
       inkscape:locked="false" /><sodipodi:guide
       position="80.14043,37.665584"
       orientation="1,0"
       id="guide357"
       inkscape:locked="false" /><sodipodi:guide
       position="19.859559,37.665594"
       orientation="1,0"
       id="guide358"
       inkscape:locked="false" /><sodipodi:guide
       position="2.175032,62.713782"
       orientation="0,-1"
       id="guide359"
       inkscape:locked="false" /><sodipodi:guide
       position="97.82492,37.286215"
       orientation="0,-1"
       id="guide360"
       inkscape:locked="false" /><sodipodi:guide
       position="3.889128,50.000001"
       orientation="1,0"
       id="guide361"
       inkscape:locked="false" /><sodipodi:guide
       position="96.11107,50.000001"
       orientation="1,0"
       id="guide362"
       inkscape:locked="false" /><sodipodi:guide
       position="-10.779914,49.9999"
       orientation="1,0"
       id="guide363"
       inkscape:locked="false" /><sodipodi:guide
       position="110.78011,49.9999"
       orientation="1,0"
       id="guide364"
       inkscape:locked="false" /><sodipodi:guide
       position="50.0001,113.10863"
       orientation="0,-1"
       id="guide365"
       inkscape:locked="false" /><sodipodi:guide
       position="50.0001,-8.4513884"
       orientation="0,-1"
       id="guide366"
       inkscape:locked="false" /><sodipodi:guide
       position="49.924458,96.186602"
       orientation="0,-1"
       id="guide377"
       inkscape:locked="false" /><sodipodi:guide
       position="50.0001,6.2089606"
       orientation="0,-1"
       id="guide379"
       inkscape:locked="false" /><sodipodi:guide
       position="-18.938762,62.713782"
       orientation="1,0"
       id="guide1"
       inkscape:locked="false" /><sodipodi:guide
       position="118.93896,62.713782"
       orientation="1,0"
       id="guide2"
       inkscape:locked="false" /><sodipodi:guide
       position="80.97886,123.87761"
       orientation="0,-1"
       id="guide4"
       inkscape:locked="false" /><sodipodi:guide
       position="80.97886,128.81648"
       orientation="0,-1"
       id="guide5"
       inkscape:locked="false" /><sodipodi:guide
       position="19.021122,133.75535"
       orientation="0,-1"
       id="guide6"
       inkscape:locked="false" /><sodipodi:guide
       position="75.05607,138.69422"
       orientation="0,-1"
       id="guide7"
       inkscape:locked="false" /><sodipodi:guide
       position="66.66385,-23.412689"
       orientation="0,-1"
       id="guide8"
       inkscape:locked="false" /><sodipodi:guide
       position="64.5658,-28.351562"
       orientation="0,-1"
       id="guide9"
       inkscape:locked="false" /><sodipodi:guide
       position="64.5658,-33.290435"
       orientation="0,-1"
       id="guide10"
       inkscape:locked="false" /><sodipodi:guide
       position="66.66385,-38.229309"
       orientation="0,-1"
       id="guide11"
       inkscape:locked="false" /><sodipodi:guide
       position="64.5658,-43.168182"
       orientation="0,-1"
       id="guide12"
       inkscape:locked="false" /><sodipodi:guide
       position="-43.458097,144.67146"
       orientation="1,0"
       id="guide149"
       inkscape:locked="false" /><sodipodi:guide
       position="-43.458097,144.67146"
       orientation="0,-1"
       id="guide150"
       inkscape:locked="false" /><sodipodi:guide
       position="80.14043,37.665584"
       orientation="0,-1"
       id="guide386"
       inkscape:locked="false" /></sodipodi:namedview><defs
     id="defs120"><inkscape:path-effect
       effect="mirror_symmetry"
       start_point="100.00002,41.345344"
       end_point="100.00002,141.34534"
       center_point="100.00002,91.34534"
       id="path-effect753"
       is_visible="true"
       lpeversion="1.2"
       lpesatellites=""
       mode="vertical"
       discard_orig_path="false"
       fuse_paths="false"
       oposite_fuse="false"
       split_items="false"
       split_open="false"
       link_styles="false" /><inkscape:path-effect
       effect="mirror_symmetry"
       start_point="100.00002,41.345344"
       end_point="100.00002,141.34534"
       center_point="100.00002,91.34534"
       id="path-effect751"
       is_visible="true"
       lpeversion="1.2"
       lpesatellites=""
       mode="vertical"
       discard_orig_path="false"
       fuse_paths="false"
       oposite_fuse="false"
       split_items="false"
       split_open="false"
       link_styles="false" /><inkscape:path-effect
       effect="mirror_symmetry"
       start_point="100.00002,41.345344"
       end_point="100.00002,141.34534"
       center_point="100.00002,91.34534"
       id="path-effect749"
       is_visible="true"
       lpeversion="1.2"
       lpesatellites=""
       mode="vertical"
       discard_orig_path="false"
       fuse_paths="false"
       oposite_fuse="false"
       split_items="false"
       split_open="false"
       link_styles="false" /><inkscape:path-effect
       effect="mirror_symmetry"
       start_point="100.00002,41.345344"
       end_point="100.00002,141.34534"
       center_point="100.00002,91.34534"
       id="path-effect747"
       is_visible="true"
       lpeversion="1.2"
       lpesatellites=""
       mode="vertical"
       discard_orig_path="false"
       fuse_paths="false"
       oposite_fuse="false"
       split_items="false"
       split_open="false"
       link_styles="false" /><inkscape:path-effect
       effect="perspective-envelope"
       up_left_point="71.870702,63.933093"
       up_right_point="88.618549,63.933093"
       down_left_point="71.870702,83.74724"
       down_right_point="88.618549,83.74724"
       id="path-effect745"
       is_visible="true"
       lpeversion="1"
       deform_type="perspective"
       horizontal_mirror="false"
       vertical_mirror="false"
       overflow_perspective="false" /><inkscape:path-effect
       effect="mirror_symmetry"
       start_point="100.00002,41.345344"
       end_point="100.00002,141.34534"
       center_point="100.00002,91.34534"
       id="path-effect743"
       is_visible="true"
       lpeversion="1.2"
       lpesatellites=""
       mode="vertical"
       discard_orig_path="false"
       fuse_paths="false"
       oposite_fuse="false"
       split_items="false"
       split_open="false"
       link_styles="false" /><inkscape:path-effect
       effect="mirror_symmetry"
       start_point="97.253972,45.210534"
       end_point="97.253972,129.11928"
       center_point="97.253972,87.164906"
       id="path-effect741"
       is_visible="true"
       lpeversion="1.2"
       lpesatellites=""
       mode="vertical"
       discard_orig_path="false"
       fuse_paths="false"
       oposite_fuse="false"
       split_items="false"
       split_open="false"
       link_styles="false" /><inkscape:path-effect
       effect="perspective-envelope"
       up_left_point="74.071281,66.528614"
       up_right_point="87.227324,66.891006"
       down_left_point="74.071281,80.437755"
       down_right_point="87.227324,80.437755"
       id="path-effect739"
       is_visible="true"
       lpeversion="1"
       deform_type="perspective"
       horizontal_mirror="false"
       vertical_mirror="false"
       overflow_perspective="false" /><inkscape:path-effect
       effect="mirror_symmetry"
       start_point="100.00002,41.345344"
       end_point="100.00002,141.34534"
       center_point="100.00002,91.34534"
       id="path-effect737"
       is_visible="true"
       lpeversion="1.2"
       lpesatellites=""
       mode="vertical"
       discard_orig_path="false"
       fuse_paths="false"
       oposite_fuse="false"
       split_items="false"
       split_open="false"
       link_styles="false" /><inkscape:path-effect
       effect="mirror_symmetry"
       start_point="108.75519,-3.3769927"
       end_point="108.75519,171.31921"
       center_point="108.75519,83.971109"
       id="path-effect735"
       is_visible="true"
       lpeversion="1.2"
       lpesatellites=""
       mode="vertical"
       discard_orig_path="false"
       fuse_paths="false"
       oposite_fuse="false"
       split_items="false"
       split_open="false"
       link_styles="false" /><inkscape:path-effect
       effect="mirror_symmetry"
       start_point="106.80768,11.621287"
       end_point="106.80768,160.53271"
       center_point="106.80768,86.076997"
       id="path-effect733"
       is_visible="true"
       lpeversion="1.2"
       lpesatellites=""
       mode="vertical"
       discard_orig_path="false"
       fuse_paths="false"
       oposite_fuse="false"
       split_items="false"
       split_open="false"
       link_styles="false" /><inkscape:path-effect
       effect="mirror_symmetry"
       start_point="106.80768,11.621287"
       end_point="106.80768,160.53271"
       center_point="106.80768,86.076997"
       id="path-effect731"
       is_visible="true"
       lpeversion="1.2"
       lpesatellites=""
       mode="vertical"
       discard_orig_path="false"
       fuse_paths="false"
       oposite_fuse="false"
       split_items="false"
       split_open="false"
       link_styles="false" /><inkscape:path-effect
       effect="mirror_symmetry"
       start_point="100.00002,41.345344"
       end_point="100.00002,141.34534"
       center_point="100.00002,91.34534"
       id="path-effect729"
       is_visible="true"
       lpeversion="1.2"
       lpesatellites=""
       mode="vertical"
       discard_orig_path="false"
       fuse_paths="false"
       oposite_fuse="false"
       split_items="false"
       split_open="false"
       link_styles="false" /><inkscape:path-effect
       effect="mirror_symmetry"
       start_point="100.00002,41.345344"
       end_point="100.00002,141.34534"
       center_point="100.00002,91.34534"
       id="path-effect727"
       is_visible="true"
       lpeversion="1.2"
       lpesatellites=""
       mode="vertical"
       discard_orig_path="false"
       fuse_paths="false"
       oposite_fuse="false"
       split_items="false"
       split_open="false"
       link_styles="false" /><inkscape:path-effect
       effect="mirror_symmetry"
       start_point="100.00002,41.345344"
       end_point="100.00002,141.34534"
       center_point="100.00002,91.34534"
       id="path-effect725"
       is_visible="true"
       lpeversion="1.2"
       lpesatellites=""
       mode="vertical"
       discard_orig_path="false"
       fuse_paths="false"
       oposite_fuse="false"
       split_items="false"
       split_open="false"
       link_styles="false" /><inkscape:path-effect
       effect="mirror_symmetry"
       start_point="0.4110633,93.12628"
       end_point="100.41105,93.12628"
       center_point="50.411059,93.12628"
       id="path-effect723"
       is_visible="true"
       lpeversion="1.2"
       lpesatellites=""
       mode="vertical"
       discard_orig_path="false"
       fuse_paths="false"
       oposite_fuse="false"
       split_items="false"
       split_open="false"
       link_styles="false" /><inkscape:path-effect
       effect="bend_path"
       id="path-effect721"
       is_visible="true"
       lpeversion="1"
       bendpath="M 71.706703,113.5565 H 84.669444"
       prop_scale="1"
       scale_y_rel="false"
       vertical="false"
       hide_knot="false" /><inkscape:path-effect
       effect="mirror_symmetry"
       start_point="19.564793,70.62238"
       end_point="119.56479,70.62238"
       center_point="69.56479,70.62238"
       id="path-effect719"
       is_visible="true"
       lpeversion="1.2"
       lpesatellites=""
       mode="vertical"
       discard_orig_path="false"
       fuse_paths="false"
       oposite_fuse="false"
       split_items="false"
       split_open="false"
       link_styles="false" /><inkscape:path-effect
       effect="bend_path"
       id="path-effect717"
       is_visible="true"
       lpeversion="1"
       bendpath="m 44.591573,96.39293 c 24.205229,-8.116016 39.744281,4.45373 47.921992,-10.157214"
       prop_scale="1"
       scale_y_rel="false"
       vertical="false"
       hide_knot="false"
       bendpath-nodetypes="cc" /><inkscape:path-effect
       effect="mirror_symmetry"
       start_point="-96.181839,-89.123249"
       end_point="174.41065,-89.123249"
       center_point="39.114405,-89.123249"
       id="path-effect715"
       is_visible="true"
       lpeversion="1.2"
       lpesatellites=""
       mode="vertical"
       discard_orig_path="false"
       fuse_paths="false"
       oposite_fuse="false"
       split_items="false"
       split_open="false"
       link_styles="false" /><inkscape:path-effect
       effect="mirror_symmetry"
       start_point="100.00002,16.2097"
       end_point="100.00002,178.16005"
       center_point="100.00002,97.184875"
       id="path-effect713"
       is_visible="true"
       lpeversion="1.2"
       lpesatellites=""
       mode="vertical"
       discard_orig_path="false"
       fuse_paths="false"
       oposite_fuse="false"
       split_items="false"
       split_open="false"
       link_styles="false" /><inkscape:path-effect
       effect="mirror_symmetry"
       start_point="100.00002,41.345344"
       end_point="100.00002,141.34534"
       center_point="100.00002,91.34534"
       id="path-effect711"
       is_visible="true"
       lpeversion="1.2"
       lpesatellites=""
       mode="vertical"
       discard_orig_path="false"
       fuse_paths="false"
       oposite_fuse="false"
       split_items="false"
       split_open="false"
       link_styles="false" /><inkscape:path-effect
       effect="mirror_symmetry"
       start_point="100.00002,41.345344"
       end_point="100.00002,141.34534"
       center_point="100.00002,91.34534"
       id="path-effect709"
       is_visible="true"
       lpeversion="1.2"
       lpesatellites=""
       mode="vertical"
       discard_orig_path="false"
       fuse_paths="false"
       oposite_fuse="false"
       split_items="false"
       split_open="false"
       link_styles="false" /><inkscape:path-effect
       effect="mirror_symmetry"
       start_point="100.00087,41.749048"
       end_point="100.00087,141.74904"
       center_point="100.00087,91.749044"
       id="path-effect707"
       is_visible="true"
       lpeversion="1.2"
       lpesatellites=""
       mode="vertical"
       discard_orig_path="false"
       fuse_paths="false"
       oposite_fuse="false"
       split_items="false"
       split_open="false"
       link_styles="false" /><inkscape:path-effect
       effect="mirror_symmetry"
       start_point="100.00002,41.345344"
       end_point="100.00002,141.34534"
       center_point="100.00002,91.34534"
       id="path-effect704"
       is_visible="true"
       lpeversion="1.2"
       lpesatellites=""
       mode="vertical"
       discard_orig_path="false"
       fuse_paths="false"
       oposite_fuse="false"
       split_items="false"
       split_open="false"
       link_styles="false" /><inkscape:path-effect
       effect="mirror_symmetry"
       start_point="100.00002,41.345344"
       end_point="100.00002,141.34534"
       center_point="100.00002,91.34534"
       id="path-effect702"
       is_visible="true"
       lpeversion="1.2"
       lpesatellites=""
       mode="vertical"
       discard_orig_path="false"
       fuse_paths="false"
       oposite_fuse="false"
       split_items="false"
       split_open="false"
       link_styles="false" /><inkscape:path-effect
       effect="mirror_symmetry"
       start_point="118.8141,39.499162"
       end_point="65.386538,138.57229"
       center_point="92.100319,89.035726"
       id="path-effect700"
       is_visible="true"
       lpeversion="1.2"
       lpesatellites=""
       mode="vertical"
       discard_orig_path="false"
       fuse_paths="false"
       oposite_fuse="false"
       split_items="false"
       split_open="false"
       link_styles="false" /><inkscape:path-effect
       effect="mirror_symmetry"
       start_point="99.999999,0"
       end_point="99.999999,200"
       center_point="99.999999,99.999999"
       id="path-effect698"
       is_visible="false"
       lpeversion="1.2"
       lpesatellites=""
       mode="vertical"
       discard_orig_path="false"
       fuse_paths="false"
       oposite_fuse="false"
       split_items="false"
       split_open="false"
       link_styles="false" /><inkscape:path-effect
       effect="mirror_symmetry"
       start_point="112.66949,34.670966"
       end_point="83.53655,143.39659"
       center_point="98.103021,89.033777"
       id="path-effect695"
       is_visible="true"
       lpeversion="1.2"
       lpesatellites=""
       mode="vertical"
       discard_orig_path="false"
       fuse_paths="false"
       oposite_fuse="false"
       split_items="false"
       split_open="false"
       link_styles="false" /><inkscape:path-effect
       effect="perspective-envelope"
       up_left_point="75.128073,68.571065"
       up_right_point="93.683088,68.571065"
       down_left_point="70.413099,87.869534"
       down_right_point="102.89451,89.201547"
       id="path-effect693"
       is_visible="true"
       lpeversion="1"
       deform_type="perspective"
       horizontal_mirror="false"
       vertical_mirror="false"
       overflow_perspective="false" /><inkscape:path-effect
       effect="perspective-envelope"
       up_left_point="73.771994,63.995303"
       up_right_point="95.363922,63.995303"
       down_left_point="71.249479,90.627428"
       down_right_point="98.486462,90.984166"
       id="path-effect690"
       is_visible="true"
       lpeversion="1"
       deform_type="perspective"
       horizontal_mirror="false"
       vertical_mirror="false"
       overflow_perspective="false" /><inkscape:path-effect
       effect="perspective-envelope"
       up_left_point="75.128073,68.571065"
       up_right_point="93.683088,68.571065"
       down_left_point="74.505351,87.869534"
       down_right_point="98.363831,89.201547"
       id="path-effect688"
       is_visible="true"
       lpeversion="1"
       deform_type="perspective"
       horizontal_mirror="false"
       vertical_mirror="false"
       overflow_perspective="false" /><inkscape:path-effect
       effect="mirror_symmetry"
       start_point="99.999999,0"
       end_point="99.999999,200"
       center_point="99.999999,99.999999"
       id="path-effect686"
       is_visible="false"
       lpeversion="1.2"
       lpesatellites=""
       mode="vertical"
       discard_orig_path="false"
       fuse_paths="false"
       oposite_fuse="false"
       split_items="false"
       split_open="false"
       link_styles="false" /><inkscape:path-effect
       effect="mirror_symmetry"
       start_point="110.13948,36.909781"
       end_point="84.257573,133.50236"
       center_point="97.198524,85.206069"
       id="path-effect683"
       is_visible="true"
       lpeversion="1.2"
       lpesatellites=""
       mode="vertical"
       discard_orig_path="false"
       fuse_paths="false"
       oposite_fuse="false"
       split_items="false"
       split_open="false"
       link_styles="false" /><inkscape:path-effect
       effect="mirror_symmetry"
       start_point="0.4110583,93.126275"
       end_point="100.41105,93.126275"
       center_point="50.411054,93.126275"
       id="path-effect681"
       is_visible="true"
       lpeversion="1.2"
       lpesatellites=""
       mode="vertical"
       discard_orig_path="false"
       fuse_paths="false"
       oposite_fuse="false"
       split_items="false"
       split_open="false"
       link_styles="false" /><inkscape:path-effect
       effect="bend_path"
       id="path-effect679"
       is_visible="true"
       lpeversion="1"
       bendpath="M 71.706703,113.5565 H 84.669444"
       prop_scale="1"
       scale_y_rel="false"
       vertical="false"
       hide_knot="false" /><inkscape:path-effect
       effect="mirror_symmetry"
       start_point="121.13877,38.68326"
       end_point="121.13877,144.14249"
       center_point="121.13877,91.412875"
       id="path-effect677"
       is_visible="true"
       lpeversion="1.2"
       lpesatellites=""
       mode="vertical"
       discard_orig_path="false"
       fuse_paths="false"
       oposite_fuse="false"
       split_items="false"
       split_open="false"
       link_styles="false" /><inkscape:path-effect
       effect="mirror_symmetry"
       start_point="99.999999,0"
       end_point="99.999999,200"
       center_point="99.999999,99.999999"
       id="path-effect675"
       is_visible="false"
       lpeversion="1.2"
       lpesatellites=""
       mode="vertical"
       discard_orig_path="false"
       fuse_paths="false"
       oposite_fuse="false"
       split_items="false"
       split_open="false"
       link_styles="false" /><inkscape:path-effect
       effect="perspective-envelope"
       up_left_point="75.128073,68.571065"
       up_right_point="93.683088,68.571065"
       down_left_point="75.347369,87.818045"
       down_right_point="99.492565,89.201547"
       id="path-effect673"
       is_visible="true"
       lpeversion="1"
       deform_type="perspective"
       horizontal_mirror="false"
       vertical_mirror="false"
       overflow_perspective="false" /><inkscape:path-effect
       effect="mirror_symmetry"
       start_point="99.999999,0"
       end_point="99.999999,200"
       center_point="99.999999,99.999999"
       id="path-effect671"
       is_visible="false"
       lpeversion="1.2"
       lpesatellites=""
       mode="vertical"
       discard_orig_path="false"
       fuse_paths="false"
       oposite_fuse="false"
       split_items="false"
       split_open="false"
       link_styles="false" /><inkscape:path-effect
       effect="mirror_symmetry"
       start_point="98.850248,-10.060325"
       end_point="98.850248,189.93967"
       center_point="98.850248,89.939674"
       id="path-effect668"
       is_visible="false"
       lpeversion="1.2"
       lpesatellites=""
       mode="vertical"
       discard_orig_path="false"
       fuse_paths="false"
       oposite_fuse="false"
       split_items="false"
       split_open="false"
       link_styles="false" /><inkscape:path-effect
       effect="lattice2"
       gridpoint0="68.435357,53.562641"
       gridpoint1="131.56484,53.562641"
       gridpoint2="68.435357,85.127381"
       gridpoint3="131.56484,85.127381"
       gridpoint4="84.217727,53.562641"
       gridpoint5="115.78247,53.562641"
       gridpoint6="84.217727,85.127381"
       gridpoint7="115.78247,85.127381"
       gridpoint8x9="100.0001,53.562641"
       gridpoint10x11="100.0001,85.127381"
       gridpoint12="68.435357,61.453826"
       gridpoint13="131.56484,61.453826"
       gridpoint14="68.435357,77.236196"
       gridpoint15="131.56484,77.236196"
       gridpoint16="84.217727,61.453826"
       gridpoint17="115.78247,61.453826"
       gridpoint18="84.217727,77.236196"
       gridpoint19="115.78247,77.236196"
       gridpoint20x21="100.0001,61.453826"
       gridpoint22x23="100.0001,77.236196"
       gridpoint24x26="68.435357,69.345011"
       gridpoint25x27="131.56484,69.345011"
       gridpoint28x30="84.217727,69.345011"
       gridpoint29x31="115.78247,69.345011"
       gridpoint32x33x34x35="100.0001,69.345011"
       id="path-effect495"
       is_visible="true"
       lpeversion="1"
       horizontal_mirror="false"
       vertical_mirror="true"
       perimetral="false"
       live_update="true" /><inkscape:path-effect
       effect="mirror_symmetry"
       start_point="100.00026,49.074544"
       end_point="100.00026,149.07454"
       center_point="100.00026,99.07454"
       id="path-effect494"
       is_visible="true"
       lpeversion="1.2"
       lpesatellites=""
       mode="vertical"
       discard_orig_path="false"
       fuse_paths="false"
       oposite_fuse="false"
       split_items="false"
       split_open="false"
       link_styles="false" /><inkscape:path-effect
       effect="mirror_symmetry"
       start_point="108.75519,-3.3769927"
       end_point="108.75519,171.31921"
       center_point="108.75519,83.971109"
       id="path-effect444"
       is_visible="true"
       lpeversion="1.2"
       lpesatellites=""
       mode="vertical"
       discard_orig_path="false"
       fuse_paths="false"
       oposite_fuse="false"
       split_items="false"
       split_open="false"
       link_styles="false" /><inkscape:path-effect
       effect="mirror_symmetry"
       start_point="106.80768,11.621287"
       end_point="106.80768,160.53271"
       center_point="106.80768,86.076997"
       id="path-effect433"
       is_visible="true"
       lpeversion="1.2"
       lpesatellites=""
       mode="vertical"
       discard_orig_path="false"
       fuse_paths="false"
       oposite_fuse="false"
       split_items="false"
       split_open="false"
       link_styles="false" /><inkscape:path-effect
       effect="mirror_symmetry"
       start_point="100.00002,41.345344"
       end_point="100.00002,141.34534"
       center_point="100.00002,91.34534"
       id="path-effect425"
       is_visible="true"
       lpeversion="1.2"
       lpesatellites=""
       mode="vertical"
       discard_orig_path="false"
       fuse_paths="false"
       oposite_fuse="false"
       split_items="false"
       split_open="false"
       link_styles="false" /><inkscape:path-effect
       effect="mirror_symmetry"
       start_point="100.00002,41.345344"
       end_point="100.00002,141.34534"
       center_point="100.00002,91.34534"
       id="path-effect411"
       is_visible="true"
       lpeversion="1.2"
       lpesatellites=""
       mode="vertical"
       discard_orig_path="false"
       fuse_paths="false"
       oposite_fuse="false"
       split_items="false"
       split_open="false"
       link_styles="false" /><linearGradient
       id="linearGradient4769"
       inkscape:swatch="gradient"><stop
         style="stop-color:#ffffff;stop-opacity:1;"
         offset="0"
         id="stop4765" /><stop
         style="stop-color:#ffffff;stop-opacity:0;"
         offset="1"
         id="stop4767" /></linearGradient><linearGradient
       id="linearGradient2383"
       inkscape:swatch="solid"><stop
         style="stop-color:#000000;stop-opacity:1;"
         offset="0"
         id="stop2381" /></linearGradient></defs><path
     id="path70"
     style="display:inline;fill:#ffffff;fill-opacity:1;stroke:none;stroke-width:5.5;stroke-linecap:round;stroke-linejoin:round;stroke-miterlimit:30;stroke-dasharray:none;stroke-opacity:1;paint-order:stroke fill markers"
     inkscape:label="G"
     d="M 100.00005 51.560418 A 46.11099 46.11099 0 0 0 53.889168 97.671427 A 46.11099 46.11099 0 0 0 100.00005 143.78231 A 46.11099 46.11099 0 0 0 146.11106 97.671427 A 46.11099 46.11099 0 0 0 100.00005 51.560418 z M 100.00005 53.880302 A 43.79103 43.79103 0 0 1 117.99624 57.763269 L 119.50571 63.680092 L 125.41361 62.020891 A 43.79103 43.79103 0 0 1 143.79117 97.671427 A 43.79103 43.79103 0 0 1 125.56257 133.21254 L 119.50571 131.51148 L 117.95231 137.59974 A 43.79103 43.79103 0 0 1 100.00005 141.46242 A 43.79103 43.79103 0 0 1 81.879062 137.53127 L 80.343367 131.51148 L 74.507419 133.15027 A 43.79103 43.79103 0 0 1 56.209052 97.671427 A 43.79103 43.79103 0 0 1 74.654438 62.082386 L 80.343367 63.680092 L 81.836429 57.827348 A 43.79103 43.79103 0 0 1 100.00005 53.880302 z M 100.00005 55.32763 A 42.343829 42.343829 0 0 0 82.827453 58.998336 L 82.673328 59.602692 A 41.830143 41.830143 0 0 1 100.00005 55.841294 A 41.830143 41.830143 0 0 1 117.15908 59.540164 L 117.0047 58.935678 A 42.343829 42.343829 0 0 0 100.00005 55.32763 z M 124.81339 63.487339 L 124.19172 63.661876 A 41.830143 41.830143 0 0 1 141.83018 97.671427 A 41.830143 41.830143 0 0 1 124.33926 131.57052 L 124.96093 131.74506 A 42.343829 42.343829 0 0 0 142.34385 97.671427 A 42.343829 42.343829 0 0 0 124.81339 63.487339 z M 75.144977 63.518474 A 42.343829 42.343829 0 0 0 57.656251 97.671427 A 42.343829 42.343829 0 0 0 74.998216 131.71431 L 75.619883 131.53977 A 41.830143 41.830143 0 0 1 58.169915 97.671427 A 41.830143 41.830143 0 0 1 75.766902 63.693011 L 75.144977 63.518474 z M 77.68061 67.772865 C 77.68061 67.772865 75.200419 73.533719 74.531965 80.911469 C 74.365486 82.748846 74.333127 84.571674 74.397994 86.365658 C 74.489126 87.312395 74.564586 88.260196 74.606767 89.208895 C 74.806698 93.755313 74.440113 98.256185 74.241802 102.70781 C 74.107179 106.19913 73.995521 109.67233 75.234764 112.76456 C 75.778187 114.15021 76.611207 115.4515 77.706319 116.55064 C 78.332343 117.1855 79.055939 117.75407 79.833838 118.27689 C 81.386378 119.26608 83.006984 120.14702 84.681862 120.92195 L 84.679924 120.92608 L 86.553841 123.48187 L 89.524331 122.83268 C 92.911908 123.95644 96.441268 124.71238 99.999661 125.13564 L 99.99979 125.13564 C 99.999874 125.13569 100.00002 125.13571 100.00005 125.1359 L 100.00005 125.13603 L 100.00018 125.13603 L 100.00018 125.13577 C 103.55854 124.71243 107.08803 123.95642 110.47564 122.83268 L 113.44613 123.482 L 115.32004 120.92608 L 115.31811 120.92208 C 116.99388 120.14664 118.61507 119.26503 120.16833 118.27547 C 120.94538 117.75304 121.66821 117.18504 122.29365 116.55077 C 123.38876 115.45161 124.22175 114.15035 124.7652 112.76469 C 126.00431 109.67246 125.89268 106.19932 125.75804 102.70794 C 125.5596 98.256336 125.19335 93.755383 125.3932 89.209024 C 125.43538 88.260486 125.51087 87.312878 125.60197 86.366304 C 125.66689 84.572141 125.63447 82.749146 125.468 80.911598 C 124.79947 73.533917 122.31923 67.772994 122.31923 67.772994 C 117.37976 71.094521 113.13804 73.894988 108.96526 77.126041 C 106.1029 76.539599 103.07878 76.227864 99.999919 76.227904 C 96.921092 76.227878 93.896877 76.539583 91.034575 77.126041 C 86.861669 73.894843 82.620088 71.094404 77.68061 67.772865 z M 119.14552 73.300305 L 119.14513 73.300564 L 119.14539 73.300564 C 119.15228 73.3021 119.15632 73.307551 119.1618 73.311157 C 119.16886 73.30927 119.17662 73.305464 119.18402 73.307023 C 119.19654 73.309458 119.20831 73.316716 119.21619 73.327952 C 119.21619 73.327952 121.29933 76.458764 122.44222 80.8107 C 123.28448 84.017852 123.45718 87.409325 123.29023 90.716297 C 122.90845 89.777298 122.51125 88.883344 122.09457 88.044883 C 121.58128 86.768656 120.80867 85.506334 119.78592 84.292658 C 119.31814 83.706737 118.8272 83.184204 118.30862 82.736939 C 118.30763 82.73596 118.30555 82.735089 118.30487 82.733838 C 118.13304 82.57186 117.96093 82.409952 117.77984 82.250534 C 116.32896 80.973077 114.62172 79.825492 112.73622 78.828908 C 111.75209 79.256191 110.74899 79.707866 109.70682 80.206344 C 108.49565 80.785649 107.31399 81.389402 106.16001 82.020574 C 107.41235 80.968864 108.76307 79.935674 110.21906 78.913399 C 113.14132 76.861648 115.96752 75.194672 119.10237 73.305473 C 119.11441 73.298308 119.13018 73.296532 119.14552 73.300305 z M 80.854576 73.300564 C 80.869905 73.296739 80.885807 73.298532 80.897855 73.305731 C 84.032789 75.194979 86.858957 76.861948 89.781163 78.913658 C 91.237268 79.936006 92.587883 80.969127 93.840218 82.020832 C 92.686251 81.389665 91.504567 80.785894 90.293406 80.206602 C 89.25126 79.708135 88.248136 79.256417 87.264004 78.829167 C 85.378533 79.825755 83.67139 80.973425 82.220385 82.250793 C 82.039294 82.410213 81.867188 82.572117 81.695352 82.734096 C 81.694134 82.735207 81.692888 82.736077 81.691605 82.737068 C 81.173004 83.184333 80.682096 83.706854 80.214305 84.292787 C 79.19159 85.506476 78.418953 86.768778 77.905661 88.045013 C 77.48898 88.883465 77.091789 89.777426 76.709997 90.716426 C 76.543075 87.409461 76.715624 84.017989 77.557878 80.810829 C 78.700803 76.458904 80.783909 73.328082 80.783909 73.328082 C 80.791821 73.31685 80.803639 73.309618 80.816207 73.307282 C 80.823631 73.305701 80.830831 73.309419 80.838298 73.311287 C 80.843987 73.307797 80.847804 73.302194 80.854706 73.300693 L 80.854576 73.300564 z M 77.32598 93.153745 L 77.32598 93.153874 C 77.344309 93.153478 77.36378 93.157002 77.384116 93.164597 C 77.424447 93.17979 77.467498 93.210685 77.51124 93.255806 L 83.573144 99.531908 L 95.558201 106.45151 C 95.561204 106.54011 95.562594 106.62912 95.562593 106.71842 C 95.562642 111.50975 91.678423 115.39404 86.887154 115.39399 C 82.095926 115.394 78.211718 111.50966 78.211714 106.71842 C 78.211715 105.12417 78.645046 103.6323 79.395492 102.34866 L 77.214618 93.946849 C 77.141657 93.665451 77.134495 93.404527 77.195885 93.262394 C 77.226032 93.192126 77.271043 93.154948 77.32598 93.153745 z M 122.67386 93.153745 L 122.67425 93.153745 C 122.72912 93.154997 122.7743 93.192221 122.80434 93.262524 C 122.86575 93.404653 122.85861 93.665447 122.78561 93.946849 L 120.60473 102.34879 C 121.35521 103.63243 121.7887 105.12432 121.78864 106.71842 C 121.78863 111.50975 117.90446 115.39397 113.1132 115.39412 C 108.32193 115.39407 104.43766 111.50973 104.43763 106.71842 C 104.43763 106.62909 104.43864 106.54024 104.44164 106.45164 L 116.42669 99.532167 L 122.48873 93.255935 C 122.53243 93.210819 122.57554 93.179913 122.61585 93.164726 C 122.63617 93.157102 122.65556 93.153325 122.67386 93.153745 z M 83.864987 102.15164 C 82.038332 103.135 80.796579 105.06492 80.79657 107.28479 C 80.796561 110.50232 83.405061 113.11067 86.622571 113.11067 C 89.840088 113.11066 92.448433 110.50232 92.448442 107.28479 C 92.448443 107.23033 92.447342 107.17606 92.445729 107.12201 C 92.418173 109.84098 90.207696 112.03733 87.482208 112.03735 C 84.739596 112.03734 82.516237 109.81385 82.516232 107.07124 C 82.516225 105.24575 83.502856 103.65273 84.970346 102.78985 L 83.864987 102.15164 z M 116.13485 102.15164 L 115.02949 102.78972 C 116.49708 103.65261 117.48373 105.24568 117.48374 107.07124 C 117.48373 109.81392 115.26017 112.03722 112.51763 112.03735 C 109.79153 112.03732 107.5807 109.84005 107.55411 107.1202 C 107.5521 107.17488 107.55139 107.22974 107.5514 107.28479 C 107.55134 110.5022 110.15987 113.11063 113.3774 113.11067 C 116.59497 113.11067 119.20319 110.50223 119.20327 107.28479 C 119.20326 105.06486 117.96152 103.13502 116.13485 102.15164 z M 69.921006 110.00569 L 69.921006 116.25879 C 70.664193 117.00851 71.477398 117.77175 72.38946 118.54225 C 74.241126 120.10648 76.30096 121.55242 78.536113 122.88953 L 78.536113 119.96632 C 77.594392 119.34248 76.705667 118.64984 75.917152 117.86115 C 74.617274 116.54954 73.63761 115.02589 73.005572 113.40781 C 72.575901 112.28629 72.300907 111.14804 72.115058 110.00569 L 69.921006 110.00569 z M 127.88478 110.00569 C 127.69895 111.14806 127.42393 112.28627 126.99427 113.40781 C 126.36224 115.02592 125.3826 116.54951 124.08269 117.86115 C 123.2942 118.64983 122.40554 119.34237 121.46385 119.96619 L 121.46385 122.88475 C 124.70707 120.94311 127.59997 118.75158 130.07883 116.26202 L 130.07883 110.00569 L 127.88478 110.00569 z M 80.6033 121.19777 L 80.6033 124.07072 C 82.520931 125.1093 84.554232 126.07482 86.698406 126.96395 C 92.027545 129.17391 96.947655 130.47344 99.999015 131.19432 C 99.999015 131.19432 100.1535 131.17945 100.42638 131.09393 C 100.88906 130.99036 102.07227 130.71658 104.48065 130.02552 C 107.40304 129.18702 112.10382 127.68507 117.03299 125.28628 C 117.84073 124.89318 118.62444 124.48304 119.39654 124.06465 L 119.39654 121.1979 C 118.30919 121.81093 117.2033 122.38961 116.07013 122.91097 L 116.07232 122.91588 L 114.19841 125.4718 L 111.23244 124.82326 C 107.59015 126.0426 103.80532 126.85088 100.00018 127.27996 L 100.00018 127.2797 C 100.00005 127.27972 99.999924 127.27977 99.99979 127.27983 L 99.99979 127.27996 C 99.999616 127.27994 99.999447 127.27984 99.999273 127.27983 C 96.194312 126.85068 92.40977 126.04267 88.767659 124.82326 L 85.80169 125.4718 L 83.927774 122.91588 L 83.929712 122.91084 C 82.7964 122.38972 81.690691 121.81079 80.6033 121.19777 z M 82.715961 135.75592 L 82.870086 136.36028 A 42.343829 42.343829 0 0 0 100.00005 140.0151 A 42.343829 42.343829 0 0 0 116.96387 136.42216 L 117.118 135.81781 A 41.830143 41.830143 0 0 1 100.00005 139.50143 A 41.830143 41.830143 0 0 1 82.715961 135.75592 z "
     transform="translate(-50,-47.671379)" /><path
     id="path415"
     style="font-style:normal;font-variant:normal;font-weight:normal;font-stretch:normal;font-size:78.6356px;font-family:'Libre Barcode 128';-inkscape-font-specification:'Libre Barcode 128, ';text-align:center;text-anchor:middle;display:inline;fill:#ffffff;stroke:none;stroke-width:39.8042;stroke-linecap:square;stroke-miterlimit:30;stroke-dasharray:none;stroke-opacity:1;paint-order:stroke fill markers"
     inkscape:label="D"
     d="m 201.29795,28.71455 v 8.990965 c 3.19565,0.02393 6.34527,0.09236 9.43616,0.199691 v -8.980185 c -3.12093,-0.117269 -6.27104,-0.186297 -9.43616,-0.210471 z m -9.43642,0.06923 c -1.57898,0.0352 -3.15212,0.08096 -4.71795,0.139492 v 8.981938 c 1.55815,-0.0541 3.13154,-0.09745 4.71795,-0.131763 z m -7.07705,0.237227 c -0.78806,0.03551 -1.5757,0.07145 -2.35911,0.112866 v 8.961807 c 0.78108,-0.03652 1.56951,-0.06942 2.35911,-0.101697 z m 28.30873,0.0031 v 6.5e-5 6.5e-5 6.5e-5 6.5e-5 6.4e-5 6.5e-5 6.5e-5 8.96947 c 0.78964,0.03228 1.57798,0.06518 2.3591,0.101697 v -8.959535 c -0.78305,-0.04155 -1.57139,-0.07643 -2.3591,-0.112086 z m -35.38604,0.394122 c -0.79205,0.0546 -1.57362,0.118784 -2.35911,0.179494 v 7.317912 c 0.79165,0.144229 1.57362,0.294436 2.35911,0.440554 z m 42.46335,0.0045 v 6.5e-5 6.5e-5 6.5e-5 6.5e-5 7.933155 c 0.78549,-0.146118 1.56745,-0.296325 2.3591,-0.440554 v -7.314015 c -0.78498,-0.06085 -1.56746,-0.124106 -2.3591,-0.178846 z m 7.07706,0.583423 v 6.067489 c 0.76957,-0.135585 1.57827,-0.277284 2.3591,-0.413149 v -5.417503 c -0.78303,-0.08152 -1.56742,-0.161674 -2.3591,-0.236837 z m -63.30181,0.473024 v 6.5e-5 6.5e-5 6.5e-5 6.5e-5 l -0.39297,0.389251 v 3.983819 c 0.77843,0.13321 1.59445,0.272271 2.3591,0.404058 v -4.768426 c -0.13622,0.01544 -0.27606,0.02845 -0.41199,0.04409 a 2.4869818,0.62839725 0 0 1 -1.55414,-0.05306 z m -10.88339,1.702666 a 2.4869818,0.62839725 0 0 1 -0.89363,0.346586 c -0.94753,0.170178 -1.85727,0.350531 -2.77032,0.529911 v 2.85464 c 1.49934,-1.291664 2.85514,-2.093606 2.85514,-2.093606 0.29235,-0.171666 0.87193,-0.301545 1.58139,-0.354378 l 5.1e-4,-6.5e-5 c 0.0919,-0.0068 0.18723,-0.0086 0.28117,-0.01266 v -1.195873 z m 90.69867,0.05364 -4.71795,0.334766 v 1.474077 c 0.99971,-0.169858 1.87988,-0.323411 2.90833,-0.498156 0.30326,-0.05156 0.64777,-0.08559 1.00903,-0.09968 v 2.6e-4 c 0.26682,-0.01041 0.53577,-0.006 0.80059,0.0055 z m -82.56735,0.279762 a 2.4869818,0.62839725 0 0 1 -2.03116,0.09955 l -0.32795,-0.02325 v 1.452776 c 0.81092,0.13778 1.56526,0.268851 2.35911,0.404058 z m 84.92645,0.09228 v 6.5e-5 6.5e-5 6.5e-5 6.5e-5 1.530769 c 0.48902,0.311524 1.30141,0.863627 2.3591,1.77488 v -2.855744 c -0.77672,-0.1526 -1.55733,-0.304207 -2.3591,-0.450165 z m -99.08082,0.93332 c -1.63475,0.346853 -3.20778,0.708318 -4.71821,1.084046 v 8.922973 h 3.23217 c -0.009,-0.02474 -0.0119,-0.04895 -0.0213,-0.07371 -0.006,-0.01242 -0.009,-0.02487 -0.0121,-0.03734 -0.13229,-0.924785 -0.0659,-1.868004 0.27603,-2.821585 0.27816,-0.775744 0.7321,-1.503063 1.24342,-2.19147 z m 106.15813,0.509455 v 9.497499 h 2.35911 V 34.62463 c -0.77758,-0.193421 -1.54831,-0.388423 -2.35911,-0.574331 z m 4.71795,1.187172 v 8.310327 h 9.43642 V 38.34024 c -2.73376,-1.104269 -5.88956,-2.143216 -9.43642,-3.10284 z M 135.24407,36.62732 c -0.81734,0.265356 -1.59604,0.537347 -2.35911,0.812077 v 6.108466 h 2.35911 z m 136.82597,3.904852 v 3.015626 h 2.35884 V 41.92747 c -0.71021,-0.47356 -1.51251,-0.937084 -2.35884,-1.395369 z m -146.26239,3.24e-4 c -0.84675,0.458492 -1.64839,0.922381 -2.35885,1.396149 v 1.619218 h 2.35885 z m -5.16027,3.654638 c -0.25161,0.253153 -0.45919,0.50951 -0.67259,0.765514 h 25.9707 c -0.004,-0.02746 -0.005,-0.05495 -0.01,-0.08241 -0.0398,-0.226121 -0.13111,-0.455485 -0.19764,-0.683105 z m 78.29095,0 v 0.765514 h 5.1e-4 v -0.765514 z m 53.2005,0 c -0.0665,0.22762 -0.15783,0.456984 -0.19764,0.683105 -0.005,0.02746 -0.005,0.05495 -0.01,0.08241 h 25.97122 c -0.21337,-0.255982 -0.42025,-0.512385 -0.67183,-0.765514 z m -126.08471,1.781633 c -1.71527,5e-6 -3.11795,0.354381 -3.1178,0.787789 3e-5,0.433377 1.40265,0.787784 3.1178,0.787789 1.47515,-4.3e-5 2.54172,-0.283107 2.86105,-0.632257 h 17.0902 c 0.007,-0.103644 0.0282,-0.207527 0.0321,-0.311128 h -17.12233 c -0.31923,-0.349177 -1.3858,-0.63215 -2.86105,-0.632193 z m 143.48461,0 c -1.47556,4.3e-5 -2.54189,0.284068 -2.86079,0.633362 h -14.83801 c 0.004,0.103212 0.0252,0.206705 0.0321,0.309959 h 14.80126 c 0.31715,0.349888 1.3882,0.633318 2.86541,0.633361 1.71529,4e-5 3.12215,-0.35438 3.12217,-0.787789 -2e-5,-0.433407 -1.40688,-0.788932 -3.12217,-0.788893 z m -143.48461,0.30996 c 1.05128,3.1e-5 1.89119,0.212198 1.89109,0.477829 -1e-5,0.26561 -0.83989,0.4778 -1.89109,0.47783 -1.05126,-3e-6 -1.89107,-0.2122 -1.89108,-0.47783 -10e-5,-0.265651 0.83974,-0.477826 1.89108,-0.477829 z m 143.48461,0.0011 c 1.05135,-2.5e-5 1.89109,0.212179 1.89109,0.477829 0,0.265651 -0.83974,0.47675 -1.89109,0.476726 -1.05119,-3e-5 -1.88671,-0.211115 -1.88671,-0.476726 0,-0.26561 0.83552,-0.477799 1.88671,-0.477829 z m -133.10804,1.264514 c -1.71528,-3.9e-5 -3.11778,0.354383 -3.1178,0.787789 2e-5,0.433407 1.40252,0.788932 3.1178,0.788894 1.47598,-4.3e-5 2.54671,-0.283911 2.86515,-0.633362 h 6.52294 c 0.0178,-0.103182 0.0395,-0.206819 0.0558,-0.309959 h -6.57871 c -0.31733,-0.349826 -1.38811,-0.633319 -2.86515,-0.633362 z m 139.11773,0.0011 c -1.47509,4.3e-5 -2.54139,0.283141 -2.86079,0.632258 h -20.68476 c 0.0163,0.103506 0.0379,0.207515 0.0558,0.311063 h 20.62898 c 0.31952,0.349089 1.38581,0.632215 2.86079,0.632258 1.71516,-5e-6 3.11778,-0.354412 3.1178,-0.78779 1.6e-4,-0.433406 -1.40251,-0.787783 -3.1178,-0.787789 z m -139.11773,0.30996 c 1.0512,3e-5 1.89081,0.211114 1.89083,0.476725 -2e-5,0.26561 -0.83963,0.4778 -1.89083,0.47783 -1.05135,2.4e-5 -1.89108,-0.212181 -1.89109,-0.47783 1e-5,-0.265651 0.83974,-0.476749 1.89109,-0.476725 z m 139.11773,0 c 1.05137,3e-6 1.89118,0.212179 1.89109,0.477829 -2e-5,0.265631 -0.83981,0.477827 -1.89109,0.47783 -1.05118,-3e-5 -1.89106,-0.212219 -1.89108,-0.47783 -10e-5,-0.26563 0.83981,-0.477799 1.89108,-0.477829 z M 122.29868,49.12102 c -1.71516,5e-6 -3.11778,0.354411 -3.1178,0.787789 -1.5e-4,0.433406 1.40252,0.787783 3.1178,0.787789 1.47508,-4.3e-5 2.54138,-0.283138 2.86079,-0.632258 h 20.3527 c 0.0216,-0.103708 0.0392,-0.207397 0.0607,-0.311063 h -20.41335 c -0.31951,-0.34909 -1.38582,-0.632214 -2.86079,-0.632257 z m 139.11774,0 c -1.476,4.3e-5 -2.54672,0.283912 -2.86516,0.633361 h -6.2464 c 0.0213,0.103298 0.0389,0.206619 0.0604,0.309959 h 6.186 c 0.31733,0.349829 1.38811,0.633322 2.86516,0.633362 1.71527,4e-5 3.11777,-0.354383 3.1178,-0.787789 -3e-5,-0.433409 -1.40253,-0.788932 -3.1178,-0.788893 z m -139.11774,0.309959 c 1.0512,3e-5 1.89107,0.212217 1.89109,0.47783 9e-5,0.265628 -0.83981,0.477799 -1.89109,0.477829 -1.05135,-3e-6 -1.89118,-0.212182 -1.89109,-0.477829 2e-5,-0.265633 0.83982,-0.477827 1.89109,-0.47783 z m 139.11774,0.0011 c 1.05135,-2.4e-5 1.89106,0.212179 1.89108,0.47783 -2e-5,0.265649 -0.83973,0.47675 -1.89108,0.476725 -1.05119,-3e-5 -1.89081,-0.211116 -1.89083,-0.476725 2e-5,-0.265612 0.83964,-0.4778 1.89083,-0.47783 z m -133.10805,1.264515 c -1.71528,-4e-5 -3.12215,0.35438 -3.12217,0.787789 2e-5,0.433406 1.40689,0.788932 3.12217,0.788893 1.47556,-4.3e-5 2.54189,-0.284067 2.86079,-0.633361 h 14.03794 c 0.002,-0.01183 2.5e-4,-0.0239 0.002,-0.03572 0.001,-0.0013 0.003,-0.0027 0.004,-0.004 0.0159,-0.0903 0.0359,-0.180018 0.0527,-0.270281 h -14.09243 c -0.31716,-0.349886 -1.38818,-0.633318 -2.86541,-0.633361 z m 143.48461,0.0011 c -1.47516,4.5e-5 -2.54174,0.283112 -2.86105,0.632257 h -16.32071 c 0.0168,0.09026 0.0368,0.179986 0.0527,0.270281 0.002,0.0013 0.003,0.0027 0.004,0.004 0.002,0.01221 2.4e-4,0.02467 0.002,0.03689 h 16.26186 c 0.31922,0.349183 1.3858,0.632148 2.86105,0.632193 1.71529,-5e-6 3.11796,-0.354378 3.1178,-0.787789 -2e-5,-0.433378 -1.40265,-0.787779 -3.1178,-0.787789 z m -143.48461,0.309959 c 1.0512,3e-5 1.8867,0.211113 1.88672,0.476726 -2e-5,0.265609 -0.83552,0.477799 -1.88672,0.47783 -1.05135,2.4e-5 -1.89108,-0.212181 -1.89109,-0.47783 10e-6,-0.265652 0.83974,-0.47675 1.89109,-0.476726 z m 143.48461,0 c 1.05125,5e-6 1.89106,0.2122 1.89108,0.47783 1e-4,0.265652 -0.83974,0.477824 -1.89108,0.47783 -1.05128,-3.1e-5 -1.89118,-0.212198 -1.89109,-0.47783 2e-5,-0.265609 0.83988,-0.4778 1.89109,-0.47783 z m -151.78941,2.263814 c 0.20607,0.245148 0.40652,0.490583 0.64767,0.73311 h 24.60932 c -0.058,-0.24448 -0.0951,-0.488859 -0.11643,-0.73311 z m 78.93476,0 v 0.73311 h 5.1e-4 v -0.73311 z m 53.79471,0 c -0.0213,0.244251 -0.0585,0.48863 -0.11642,0.73311 h 24.61034 c 0.2411,-0.242506 0.44111,-0.487984 0.64715,-0.73311 z m -0.31072,1.374264 c -0.003,0.0075 -0.004,0.01503 -0.007,0.02253 h 1.99723 1.14396 v -0.02253 z m 10.2113,6.5e-5 v 6.920543 c 0.81734,-0.265358 1.59604,-0.537344 2.3591,-0.812077 v -6.108466 z m 9.43642,0 v 3.015366 c 0.84673,-0.458491 1.64837,-0.922386 2.35884,-1.396148 v -1.619218 z m -148.62124,6.5e-5 v 1.620127 c 0.71027,0.473597 1.51243,0.937187 2.35885,1.395499 v -3.015626 z m 7.07706,0 v 5.207356 c 2.73383,1.104304 5.88945,2.143326 9.43641,3.102971 v -3.44001 c -0.0506,-0.01169 -0.0992,-0.02253 -0.15009,-0.03435 v 10e-4 c -0.83327,-0.193527 -1.66301,-0.391776 -2.47502,-0.597839 -0.46377,-0.117951 -0.72366,-0.277534 -0.72271,-0.443802 V 55.29659 c 8e-5,-0.347026 1.11343,-0.628341 2.48684,-0.628361 h 0.86098 v -0.0224 z m 11.79526,0 v 0.0224 h 1.14344 1.21566 v -0.0224 z m 113.23545,5.393215 c -0.049,0.01046 -0.0964,0.02139 -0.14547,0.03182 -0.28108,0.05998 -0.5852,0.127175 -0.92858,0.198327 -0.002,5.03e-4 -0.003,7.12e-4 -0.004,0.001 -0.74826,0.154631 -1.50605,0.305536 -2.273,0.453607 v -10e-4 c -0.44186,0.08555 -0.91672,0.16443 -1.36704,0.248266 v 3.681653 c 1.63475,-0.34685 3.20778,-0.708319 4.71821,-1.084046 z m -113.23545,6.5e-5 v 3.529887 c 0.77757,0.193427 1.54831,0.38842 2.3591,0.574331 v -3.617362 c -0.42781,-0.08496 -0.85936,-0.168562 -1.28119,-0.255734 -0.001,-3.27e-4 -0.003,-5.36e-4 -0.004,-10e-4 -0.34339,-0.07115 -0.6475,-0.138349 -0.92858,-0.198327 -0.0489,-0.0104 -0.0961,-0.02132 -0.14496,-0.03176 z m 106.15813,1.360367 c -1.52984,0.2666 -3.10285,0.524588 -4.7182,0.774086 v 3.763542 l 1.05425,0.07462 a 2.4869818,0.62839725 0 0 1 0.89363,-0.346586 c 0.94757,-0.170178 1.85728,-0.35053 2.77032,-0.529912 z m -99.08082,6.4e-5 v 3.736268 c 0.77672,0.152599 1.55734,0.304205 2.35911,0.450165 v -6.5e-5 -6.5e-5 -6.5e-5 -3.790882 c -0.79446,-0.130151 -1.58679,-0.260767 -2.35911,-0.395356 z m 4.71821,0.774087 v 3.784453 l 4.71795,-0.334766 v -2.754892 c -1.31796,-0.182024 -2.61117,-0.368229 -3.87264,-0.55907 -0.28923,-0.04376 -0.55868,-0.09145 -0.84531,-0.135725 z m 84.92646,0.69473 c -0.0826,0.0114 -0.15983,0.02364 -0.24262,0.035 -0.0159,0.0024 -0.0306,0.0049 -0.0465,0.0069 -0.0143,0.0018 -0.029,0.0038 -0.0429,0.0058 -0.002,5.03e-4 -0.006,6.92e-4 -0.008,10e-4 -0.65535,0.08971 -1.34996,0.17525 -2.01908,0.263592 v 2.497599 a 2.4869818,0.62839725 0 0 1 2.03116,-0.09955 l 0.32795,0.02331 z m -4.71821,0.620308 c -0.141,0.01755 -0.27065,0.03639 -0.41251,0.05384 -0.65433,0.08046 -1.29779,0.153676 -1.9466,0.230278 v 3.932581 c 0.13628,-0.01543 0.27606,-0.02846 0.41199,-0.04409 a 2.4869818,0.62839725 0 0 1 1.55415,0.05306 v -6.5e-5 -6.5e-5 -6.5e-5 l 0.39297,-0.389251 z m -66.05388,0.557901 v 3.904073 c 0.78302,0.08152 1.56739,0.161673 2.3591,0.236837 v -6.5e-5 -3.882967 c -0.77944,-0.08317 -1.56545,-0.168903 -2.3591,-0.257878 z m 54.25861,0.737656 c -0.81151,0.07857 -1.5771,0.147444 -2.3591,0.219497 v 3.77153 c 0.79203,-0.0546 1.57363,-0.118782 2.3591,-0.179494 z m -47.18156,6.5e-5 V 68.5919 c 0.78503,0.06085 1.56745,0.124105 2.35911,0.178845 v -6.5e-5 -6.5e-5 -6.5e-5 -3.766854 c -0.78197,-0.07205 -1.54763,-0.140866 -2.35911,-0.219432 z m 40.10425,0.635699 c -0.61741,0.05162 -1.28438,0.110626 -1.86898,0.15774 -0.18213,0.01468 -0.31139,0.02322 -0.49012,0.03747 v 3.557032 c 0.78805,-0.03549 1.5757,-0.07145 2.3591,-0.112866 z m -33.02694,6.5e-5 v 3.637168 c 0.78304,0.04157 1.57139,0.07643 2.35911,0.112087 v -6.5e-5 -6.5e-5 -6.5e-5 -6.5e-5 -3.553785 c -0.17892,-0.01426 -0.30831,-0.02284 -0.49064,-0.03754 -0.58443,-0.0471 -1.25124,-0.106075 -1.86847,-0.157675 z m 28.30874,0.375614 c -0.7217,0.05464 -1.5536,0.121413 -2.19436,0.16787 -1.1018,0.07989 -1.67158,0.11572 -2.5236,0.174624 v 3.271296 c 1.57898,-0.03519 3.15213,-0.08096 4.71796,-0.139492 z m -23.59053,6.5e-5 v 3.47248 c 3.12092,0.117272 6.27102,0.186298 9.43616,0.210471 v -3.028874 c -1.19744,-0.07029 -3.22062,-0.194699 -7.24206,-0.486272 -0.64064,-0.04645 -1.47255,-0.11318 -2.1941,-0.167805 z"
     transform="matrix(0.50266753,0,0,1.9893865,-50,-47.671379)" /></svg>
