<?xml version="1.0" encoding="UTF-8" standalone="no"?>
<!-- Created with Inkscape (http://www.inkscape.org/) -->

<svg
   width="399.99997mm"
   height="399.99997mm"
   viewBox="0 0 99.999992 99.999992"
   version="1.1"
   id="svg123"
   xml:space="preserve"
   inkscape:version="1.3 (0e150ed6c4, 2023-07-21)"
   sodipodi:docname="byte_coin.svg"
   inkscape:export-filename="LT0 - RBWH3023.622\B_c.png"
   inkscape:export-xdpi="300"
   inkscape:export-ydpi="300"
   xmlns:inkscape="http://www.inkscape.org/namespaces/inkscape"
   xmlns:sodipodi="http://sodipodi.sourceforge.net/DTD/sodipodi-0.dtd"
   xmlns="http://www.w3.org/2000/svg"
   xmlns:svg="http://www.w3.org/2000/svg"><path
     id="path70"
     style="display:inline;fill:#ffffff;fill-opacity:1;stroke:none;stroke-width:5.5;stroke-linecap:round;stroke-linejoin:round;stroke-miterlimit:30;stroke-dasharray:none;stroke-opacity:1;paint-order:stroke fill markers"
     inkscape:label="G"
     d="M 100.00005,51.560418 A 46.11099,46.11099 0 0 0 53.889168,97.671427 46.11099,46.11099 0 0 0 100.00005,143.78231 46.11099,46.11099 0 0 0 146.11106,97.671427 46.11099,46.11099 0 0 0 100.00005,51.560418 Z m 0,2.319884 a 43.79103,43.79103 0 0 1 17.99619,3.882967 l 1.50947,5.916823 5.9079,-1.659201 a 43.79103,43.79103 0 0 1 18.37756,35.650536 43.79103,43.79103 0 0 1 -18.2286,35.541113 l -6.05686,-1.70106 -1.5534,6.08826 a 43.79103,43.79103 0 0 1 -17.95226,3.86268 43.79103,43.79103 0 0 1 -18.120988,-3.93115 l -1.535695,-6.01979 -5.835948,1.63879 A 43.79103,43.79103 0 0 1 56.209052,97.671427 43.79103,43.79103 0 0 1 74.654438,62.082386 l 5.688929,1.597706 1.493062,-5.852744 a 43.79103,43.79103 0 0 1 18.163621,-3.947046 z m 0,1.447328 a 42.343829,42.343829 0 0 0 -17.172597,3.670706 l -0.154125,0.604356 a 41.830143,41.830143 0 0 1 17.326722,-3.761398 41.830143,41.830143 0 0 1 17.15903,3.69887 L 117.0047,58.935678 A 42.343829,42.343829 0 0 0 100.00005,55.32763 Z m 24.81334,8.159709 -0.62167,0.174537 a 41.830143,41.830143 0 0 1 17.63846,34.009551 41.830143,41.830143 0 0 1 -17.49092,33.899093 l 0.62167,0.17454 A 42.343829,42.343829 0 0 0 142.34385,97.671427 42.343829,42.343829 0 0 0 124.81339,63.487339 Z m -49.668413,0.03113 A 42.343829,42.343829 0 0 0 57.656251,97.671427 42.343829,42.343829 0 0 0 74.998216,131.71431 l 0.621667,-0.17454 A 41.830143,41.830143 0 0 1 58.169915,97.671427 41.830143,41.830143 0 0 1 75.766902,63.693011 Z m 2.513541,4.197547 c -0.01909,0.0074 -0.03331,0.02388 -0.03811,0.0438 l -3.597584,15.570238 c -0.0018,0.007 -0.0024,0.01425 -0.0018,0.02145 l 1.322271,10.576227 -1.322271,14.546909 c -6.2e-4,0.0131 0.0029,0.0261 0.01008,0.0371 l 6.36124,10.18155 c 0.0056,0.008 0.01297,0.0145 0.02157,0.0195 1.360007,0.83099 2.769037,1.5821 4.218734,2.254 l 1.871075,2.55268 c 0.01489,0.0194 0.04015,0.0294 0.06434,0.0234 l 2.957055,-0.64454 c 3.385953,1.12164 6.911379,1.87593 10.466802,2.29883 0.0027,-10e-4 0.0054,-9.4e-4 0.008,-0.002 v 0.73639 h 1.3e-4 1.3e-4 v -0.73639 c 0.003,8.2e-4 0.005,9.4e-4 0.008,0.002 3.55542,-0.4229 7.08085,-1.17719 10.4668,-2.29883 l 2.95706,0.64454 c 0.0242,0.006 0.0493,-0.004 0.0642,-0.0235 l 1.87108,-2.55268 c 1.4497,-0.6719 2.85872,-1.42301 4.21873,-2.254 0.009,-0.005 0.016,-0.0114 0.0216,-0.0195 l 6.36124,-10.18155 c 0.007,-0.011 0.0108,-0.024 0.0102,-0.0371 l -1.32227,-14.546908 1.32227,-10.576228 c 6e-4,-0.0072 -4e-5,-0.01445 -0.002,-0.02144 L 122.3795,67.759726 c -0.005,-0.01992 -0.019,-0.03623 -0.0381,-0.04367 -0.0191,-0.0074 -0.0405,-0.005 -0.0575,0.0065 l -13.5099,9.304729 c -2.80677,-0.560698 -5.76338,-0.861275 -8.77375,-0.861317 h -2.6e-4 -2.58e-4 c -3.010374,4.2e-5 -5.966851,0.300619 -8.773625,0.861317 l -13.50984,-9.304804 c -0.01699,-0.0115 -0.03852,-0.01382 -0.05762,-0.0065 z m 2.419362,5.541135 c 0.03283,-0.01167 0.06913,-0.0083 0.09922,0.0093 l 13.717768,8.072893 c 0.135871,0.06898 0.04053,0.273847 -0.09974,0.214328 l -7.198912,-2.51289 -6.809016,5.570978 -2.710688,6.648302 c -0.04834,0.115918 -0.220247,0.08651 -0.227247,-0.03889 L 76.440892,83.29246 c -5e-4,-0.0158 0.0023,-0.03152 0.008,-0.04625 L 80.0076,73.329244 c 0.01152,-0.0333 0.03728,-0.05973 0.07028,-0.07209 z m 39.84421,0 c 0.033,0.01236 0.0589,0.03879 0.0704,0.07209 l 3.55869,9.916966 c 0.006,0.01473 0.008,0.03045 0.008,0.04625 l -0.40838,7.928715 c -0.007,0.1254 -0.1789,0.154801 -0.22724,0.03889 l -2.71069,-6.648302 -6.80902,-5.570978 -7.19891,2.512896 c -0.14028,0.05952 -0.23556,-0.145344 -0.0996,-0.214328 L 119.823,73.266457 c 0.0301,-0.01754 0.0663,-0.02092 0.0991,-0.0093 z M 77.32598,93.153745 v 1.29e-4 c 0.01832,-4.2e-4 0.0378,0.0031 0.05814,0.01072 0.04033,0.01519 0.08337,0.04609 0.127124,0.09121 l 6.061904,6.276102 11.985057,6.919604 c 0.003,0.0886 0.0044,0.17761 0.0044,0.26691 0,4.79135 -3.884089,8.67557 -8.675439,8.67557 -4.791334,0 -8.67544,-3.88422 -8.67544,-8.67557 0,-1.5943 0.43331,-3.08608 1.183778,-4.36976 L 77.21463,93.946847 c -0.07296,-0.281401 -0.08012,-0.542322 -0.01873,-0.684455 0.03014,-0.07027 0.07515,-0.107449 0.130095,-0.108649 z m 45.34788,0 h 3.9e-4 c 0.0549,0.0012 0.1,0.03838 0.13009,0.108649 0.0614,0.142133 0.0544,0.403054 -0.0186,0.684455 l -2.18088,8.401941 c 0.75043,1.28366 1.18391,2.77537 1.18391,4.36963 0,4.79135 -3.88409,8.67557 -8.67544,8.67557 -4.79134,0 -8.67557,-3.88422 -8.67557,-8.67557 0,-0.0893 0.001,-0.17831 0.004,-0.26691 l 11.98505,-6.919473 6.06204,-6.276231 c 0.0437,-0.04513 0.0868,-0.07602 0.12712,-0.09121 0.0203,-0.0076 0.0396,-0.01127 0.0579,-0.01085 z m -38.808873,8.997895 c -1.826684,0.98338 -3.068417,2.91322 -3.068417,5.13315 0,3.21759 2.608424,5.82588 5.826001,5.82588 3.217585,0 5.825871,-2.60829 5.825871,-5.82588 0,-0.0545 -9.72e-4,-0.10872 -0.0026,-0.16278 -0.02755,2.71903 -2.237981,4.91534 -4.963521,4.91534 -2.742669,0 -4.965976,-2.22343 -4.965976,-4.96611 0,-1.82552 0.986592,-3.41849 2.454114,-4.28139 z m 32.269863,0 -1.10536,0.63808 c 1.46758,0.86289 2.45425,2.45596 2.45425,4.28152 0,2.74268 -2.22344,4.96611 -4.96611,4.96611 -2.72615,0 -4.93695,-2.19728 -4.96352,-4.91715 -0.002,0.0547 -0.003,0.10955 -0.003,0.16459 0,3.21759 2.60841,5.82588 5.826,5.82588 3.21757,0 5.82587,-2.60829 5.82587,-5.82588 0,-2.21993 -1.24173,-4.14977 -3.06842,-5.13315 z m -46.21294,7.79165 c -0.03449,0 -0.06241,0.028 -0.0624,0.0625 v 6.25582 c -3.7e-4,0.0167 0.006,0.0328 0.01757,0.0448 2.483065,2.49381 5.38018,4.68878 8.626993,6.63279 0.04185,0.0241 0.09403,-0.006 0.09366,-0.0546 v -3.73634 c 5e-4,-0.0116 -0.0022,-0.0231 -0.0079,-0.0332 l -5.712959,-9.14259 c -0.01138,-0.0181 -0.03121,-0.0291 -0.05258,-0.0292 z m 57.25374,0 c -0.0214,1.1e-4 -0.0412,0.0111 -0.0526,0.0292 l -5.71296,9.14259 c -0.006,0.0101 -0.008,0.0216 -0.008,0.0332 v 3.73634 c -3.6e-4,0.0483 0.0519,0.0787 0.0938,0.0546 3.24681,-1.94401 6.14393,-4.13898 8.627,-6.63279 0.0116,-0.012 0.0179,-0.0281 0.0176,-0.0448 v -6.25582 c 1e-5,-0.0345 -0.0279,-0.0625 -0.0624,-0.0625 z m -46.583202,10.95308 c -0.03005,0.005 -0.05184,0.0316 -0.05155,0.0621 v 3.10536 c 1.6e-4,0.023 0.01291,0.044 0.0332,0.0548 0.772658,0.41867 1.556382,0.8291 2.36523,1.22266 4.93419,2.40105 9.638196,3.90507 12.56254,4.74416 2.409376,0.69137 3.595228,0.96454 4.058667,1.06828 h -0.0058 c 0.27735,0.0868 0.439508,0.10154 0.439508,0.10154 0.0019,9e-5 0.0039,9e-5 0.0058,0 0.002,9e-5 0.004,9e-5 0.006,0 0,0 0.16216,-0.0147 0.43951,-0.10154 h -0.006 c 0.46344,-0.10374 1.64929,-0.37691 4.05866,-1.06828 2.92434,-0.83909 7.62835,-2.34311 12.56254,-4.74416 0.80886,-0.39356 1.59258,-0.80399 2.36523,-1.22266 0.0203,-0.0108 0.033,-0.0318 0.0332,-0.0548 v -3.10536 c 2.9e-4,-0.0305 -0.0217,-0.0568 -0.0518,-0.0621 v 3.8e-4 c -0.0145,-0.003 -0.0294,-4e-5 -0.0421,0.007 -0.99618,0.55777 -2.00587,1.09159 -3.04296,1.57226 -0.009,0.004 -0.0174,0.0112 -0.0235,0.0195 l -1.99019,2.71482 c -10e-4,0.001 -0.002,0.002 -0.004,0.002 -6.4e-4,-10e-6 -8.6e-4,-10e-6 -0.002,0 l -3.14451,-0.68562 c -0.0111,-0.002 -0.0225,-0.002 -0.0332,0.002 -3.59799,1.19187 -7.34417,1.99393 -11.12296,2.44339 -6.5e-4,-1e-5 -10e-4,-1e-5 -0.0021,0 -6.05e-4,-1e-5 -0.0013,-1e-5 -0.0019,0 -3.778802,-0.44946 -7.524972,-1.25152 -11.122964,-2.44339 -0.01068,-0.004 -0.02215,-0.004 -0.0332,-0.002 l -3.144511,0.68562 c -6e-4,-10e-6 -0.0012,-10e-6 -0.0018,0 -0.002,0 -0.003,-10e-4 -0.004,-0.002 L 83.7013,122.49551 c -0.0061,-0.008 -0.01421,-0.0155 -0.02351,-0.0195 -1.037088,-0.48067 -2.046779,-1.01449 -3.042967,-1.57226 -0.01277,-0.007 -0.02761,-0.01 -0.04212,-0.007 z m 2.123513,14.85955 0.154125,0.60436 a 42.343829,42.343829 0 0 0 17.129964,3.65482 42.343829,42.343829 0 0 0 16.96382,-3.59294 l 0.15413,-0.60435 a 41.830143,41.830143 0 0 1 -17.11795,3.68362 41.830143,41.830143 0 0 1 -17.284089,-3.74551 z"
     transform="translate(-50,-47.671379)" /><sodipodi:namedview
     id="namedview125"
     pagecolor="#282828"
     bordercolor="#1a1a1a"
     borderopacity="1"
     inkscape:showpageshadow="2"
     inkscape:pageopacity="0"
     inkscape:pagecheckerboard="0"
     inkscape:deskcolor="#282828"
     inkscape:document-units="mm"
     showgrid="false"
     showguides="false"
     inkscape:zoom="0.3535534"
     inkscape:cx="18.384776"
     inkscape:cy="456.79097"
     inkscape:window-width="1920"
     inkscape:window-height="1009"
     inkscape:window-x="1912"
     inkscape:window-y="-8"
     inkscape:window-maximized="1"
     inkscape:current-layer="svg123"><sodipodi:guide
       position="-50,-49.999997"
       orientation="0,-1"
       id="guide6584"
       inkscape:locked="false" /><sodipodi:guide
       position="150,150"
       orientation="0,-1"
       id="guide5725"
       inkscape:locked="false" /><sodipodi:guide
       position="-50,150"
       orientation="1,0"
       id="guide919"
       inkscape:locked="false" /><sodipodi:guide
       position="150,-49.999997"
       orientation="1,0"
       id="guide921"
       inkscape:locked="false" /><sodipodi:guide
       position="50.0001,150"
       orientation="1,0"
       id="guide923"
       inkscape:locked="false" /><sodipodi:guide
       position="-50,49.999903"
       orientation="0,-1"
       id="guide925"
       inkscape:locked="false" /><sodipodi:guide
       position="50.0001,-11.671347"
       orientation="0,-1"
       id="guide931"
       inkscape:locked="false" /><sodipodi:guide
       position="114.00007,49.999899"
       orientation="1,0"
       id="guide933"
       inkscape:locked="false" /><sodipodi:guide
       position="-13.999873,49.999899"
       orientation="1,0"
       id="guide1070"
       inkscape:locked="false" /><sodipodi:guide
       position="49.994291,16.416334"
       orientation="0,-1"
       id="guide1072"
       inkscape:locked="false" /><sodipodi:guide
       position="77.20744,41.307385"
       orientation="0,-1"
       id="guide1076"
       inkscape:locked="false" /><sodipodi:guide
       position="54.44156,43.548488"
       orientation="1,0"
       id="guide1080"
       inkscape:locked="false" /><sodipodi:guide
       position="27.658694,79.955402"
       orientation="0,-1"
       id="guide12587"
       inkscape:locked="false" /><inkscape:grid
       id="grid11"
       units="px"
       originx="-755.90552"
       originy="-755.90552"
       spacingx="0.066145833"
       spacingy="0.066145833"
       empcolor="#0099e5"
       empopacity="0.30196078"
       color="#0099e5"
       opacity="0.14901961"
       empspacing="5"
       dotted="false"
       gridanglex="30"
       gridanglez="30"
       visible="false" /><sodipodi:guide
       position="45.558248,43.548487"
       orientation="1,0"
       id="guide25"
       inkscape:locked="false" /><sodipodi:guide
       position="50.0001,116.32859"
       orientation="0,-1"
       id="guide304"
       inkscape:locked="false" /><sodipodi:guide
       position="49.999708,71.505482"
       orientation="0,-1"
       id="guide305"
       inkscape:locked="false" /><sodipodi:guide
       position="82.30438,58.654621"
       orientation="0,-1"
       id="guide306"
       inkscape:locked="false" /><sodipodi:guide
       position="40.234928,77.551552"
       orientation="1,0"
       id="guide349"
       inkscape:locked="false" /><sodipodi:guide
       position="59.76565,77.551551"
       orientation="1,0"
       id="guide350"
       inkscape:locked="false" /><sodipodi:guide
       position="50.0001,93.791041"
       orientation="0,-1"
       id="guide353"
       inkscape:locked="false" /><sodipodi:guide
       position="50.0001,3.8890308"
       orientation="0,-1"
       id="guide355"
       inkscape:locked="false" /><sodipodi:guide
       position="80.14043,37.665584"
       orientation="1,0"
       id="guide357"
       inkscape:locked="false" /><sodipodi:guide
       position="19.859558,37.665594"
       orientation="1,0"
       id="guide358"
       inkscape:locked="false" /><sodipodi:guide
       position="2.175031,62.713782"
       orientation="0,-1"
       id="guide359"
       inkscape:locked="false" /><sodipodi:guide
       position="97.82492,37.286215"
       orientation="0,-1"
       id="guide360"
       inkscape:locked="false" /><sodipodi:guide
       position="3.889128,50"
       orientation="1,0"
       id="guide361"
       inkscape:locked="false" /><sodipodi:guide
       position="96.11107,50"
       orientation="1,0"
       id="guide362"
       inkscape:locked="false" /><sodipodi:guide
       position="-10.779915,49.999899"
       orientation="1,0"
       id="guide363"
       inkscape:locked="false" /><sodipodi:guide
       position="110.78011,49.999899"
       orientation="1,0"
       id="guide364"
       inkscape:locked="false" /><sodipodi:guide
       position="50.0001,113.10863"
       orientation="0,-1"
       id="guide365"
       inkscape:locked="false" /><sodipodi:guide
       position="50.0001,-8.4513872"
       orientation="0,-1"
       id="guide366"
       inkscape:locked="false" /><sodipodi:guide
       position="49.924457,96.186602"
       orientation="0,-1"
       id="guide377"
       inkscape:locked="false" /><sodipodi:guide
       position="50.0001,6.2089618"
       orientation="0,-1"
       id="guide379"
       inkscape:locked="false" /><sodipodi:guide
       position="-18.938762,62.713782"
       orientation="1,0"
       id="guide1"
       inkscape:locked="false" /><sodipodi:guide
       position="118.93896,62.713782"
       orientation="1,0"
       id="guide2"
       inkscape:locked="false" /><sodipodi:guide
       position="80.97886,123.87761"
       orientation="0,-1"
       id="guide4"
       inkscape:locked="false" /><sodipodi:guide
       position="80.97886,128.81648"
       orientation="0,-1"
       id="guide5"
       inkscape:locked="false" /><sodipodi:guide
       position="19.021121,133.75535"
       orientation="0,-1"
       id="guide6"
       inkscape:locked="false" /><sodipodi:guide
       position="75.05607,138.69422"
       orientation="0,-1"
       id="guide7"
       inkscape:locked="false" /><sodipodi:guide
       position="66.66385,-23.412688"
       orientation="0,-1"
       id="guide8"
       inkscape:locked="false" /><sodipodi:guide
       position="64.5658,-28.351561"
       orientation="0,-1"
       id="guide9"
       inkscape:locked="false" /><sodipodi:guide
       position="64.5658,-33.290434"
       orientation="0,-1"
       id="guide10"
       inkscape:locked="false" /><sodipodi:guide
       position="66.66385,-38.229308"
       orientation="0,-1"
       id="guide11"
       inkscape:locked="false" /><sodipodi:guide
       position="64.5658,-43.168181"
       orientation="0,-1"
       id="guide12"
       inkscape:locked="false" /><sodipodi:guide
       position="-43.458097,144.67146"
       orientation="1,0"
       id="guide149"
       inkscape:locked="false" /><sodipodi:guide
       position="-43.458097,144.67146"
       orientation="0,-1"
       id="guide150"
       inkscape:locked="false" /></sodipodi:namedview><defs
     id="defs120"><inkscape:path-effect
       effect="mirror_symmetry"
       start_point="100.00002,41.345344"
       end_point="100.00002,141.34534"
       center_point="100.00002,91.34534"
       id="path-effect753"
       is_visible="true"
       lpeversion="1.2"
       lpesatellites=""
       mode="vertical"
       discard_orig_path="false"
       fuse_paths="false"
       oposite_fuse="false"
       split_items="false"
       split_open="false"
       link_styles="false" /><inkscape:path-effect
       effect="mirror_symmetry"
       start_point="100.00002,41.345344"
       end_point="100.00002,141.34534"
       center_point="100.00002,91.34534"
       id="path-effect751"
       is_visible="true"
       lpeversion="1.2"
       lpesatellites=""
       mode="vertical"
       discard_orig_path="false"
       fuse_paths="false"
       oposite_fuse="false"
       split_items="false"
       split_open="false"
       link_styles="false" /><inkscape:path-effect
       effect="mirror_symmetry"
       start_point="100.00002,41.345344"
       end_point="100.00002,141.34534"
       center_point="100.00002,91.34534"
       id="path-effect749"
       is_visible="true"
       lpeversion="1.2"
       lpesatellites=""
       mode="vertical"
       discard_orig_path="false"
       fuse_paths="false"
       oposite_fuse="false"
       split_items="false"
       split_open="false"
       link_styles="false" /><inkscape:path-effect
       effect="mirror_symmetry"
       start_point="100.00002,41.345344"
       end_point="100.00002,141.34534"
       center_point="100.00002,91.34534"
       id="path-effect747"
       is_visible="true"
       lpeversion="1.2"
       lpesatellites=""
       mode="vertical"
       discard_orig_path="false"
       fuse_paths="false"
       oposite_fuse="false"
       split_items="false"
       split_open="false"
       link_styles="false" /><inkscape:path-effect
       effect="perspective-envelope"
       up_left_point="71.870702,63.933093"
       up_right_point="88.618549,63.933093"
       down_left_point="71.870702,83.74724"
       down_right_point="88.618549,83.74724"
       id="path-effect745"
       is_visible="true"
       lpeversion="1"
       deform_type="perspective"
       horizontal_mirror="false"
       vertical_mirror="false"
       overflow_perspective="false" /><inkscape:path-effect
       effect="mirror_symmetry"
       start_point="100.00002,41.345344"
       end_point="100.00002,141.34534"
       center_point="100.00002,91.34534"
       id="path-effect743"
       is_visible="true"
       lpeversion="1.2"
       lpesatellites=""
       mode="vertical"
       discard_orig_path="false"
       fuse_paths="false"
       oposite_fuse="false"
       split_items="false"
       split_open="false"
       link_styles="false" /><inkscape:path-effect
       effect="mirror_symmetry"
       start_point="97.253972,45.210534"
       end_point="97.253972,129.11928"
       center_point="97.253972,87.164906"
       id="path-effect741"
       is_visible="true"
       lpeversion="1.2"
       lpesatellites=""
       mode="vertical"
       discard_orig_path="false"
       fuse_paths="false"
       oposite_fuse="false"
       split_items="false"
       split_open="false"
       link_styles="false" /><inkscape:path-effect
       effect="perspective-envelope"
       up_left_point="74.071281,66.528614"
       up_right_point="87.227324,66.891006"
       down_left_point="74.071281,80.437755"
       down_right_point="87.227324,80.437755"
       id="path-effect739"
       is_visible="true"
       lpeversion="1"
       deform_type="perspective"
       horizontal_mirror="false"
       vertical_mirror="false"
       overflow_perspective="false" /><inkscape:path-effect
       effect="mirror_symmetry"
       start_point="100.00002,41.345344"
       end_point="100.00002,141.34534"
       center_point="100.00002,91.34534"
       id="path-effect737"
       is_visible="true"
       lpeversion="1.2"
       lpesatellites=""
       mode="vertical"
       discard_orig_path="false"
       fuse_paths="false"
       oposite_fuse="false"
       split_items="false"
       split_open="false"
       link_styles="false" /><inkscape:path-effect
       effect="mirror_symmetry"
       start_point="108.75519,-3.3769927"
       end_point="108.75519,171.31921"
       center_point="108.75519,83.971109"
       id="path-effect735"
       is_visible="true"
       lpeversion="1.2"
       lpesatellites=""
       mode="vertical"
       discard_orig_path="false"
       fuse_paths="false"
       oposite_fuse="false"
       split_items="false"
       split_open="false"
       link_styles="false" /><inkscape:path-effect
       effect="mirror_symmetry"
       start_point="106.80768,11.621287"
       end_point="106.80768,160.53271"
       center_point="106.80768,86.076997"
       id="path-effect733"
       is_visible="true"
       lpeversion="1.2"
       lpesatellites=""
       mode="vertical"
       discard_orig_path="false"
       fuse_paths="false"
       oposite_fuse="false"
       split_items="false"
       split_open="false"
       link_styles="false" /><inkscape:path-effect
       effect="mirror_symmetry"
       start_point="106.80768,11.621287"
       end_point="106.80768,160.53271"
       center_point="106.80768,86.076997"
       id="path-effect731"
       is_visible="true"
       lpeversion="1.2"
       lpesatellites=""
       mode="vertical"
       discard_orig_path="false"
       fuse_paths="false"
       oposite_fuse="false"
       split_items="false"
       split_open="false"
       link_styles="false" /><inkscape:path-effect
       effect="mirror_symmetry"
       start_point="100.00002,41.345344"
       end_point="100.00002,141.34534"
       center_point="100.00002,91.34534"
       id="path-effect729"
       is_visible="true"
       lpeversion="1.2"
       lpesatellites=""
       mode="vertical"
       discard_orig_path="false"
       fuse_paths="false"
       oposite_fuse="false"
       split_items="false"
       split_open="false"
       link_styles="false" /><inkscape:path-effect
       effect="mirror_symmetry"
       start_point="100.00002,41.345344"
       end_point="100.00002,141.34534"
       center_point="100.00002,91.34534"
       id="path-effect727"
       is_visible="true"
       lpeversion="1.2"
       lpesatellites=""
       mode="vertical"
       discard_orig_path="false"
       fuse_paths="false"
       oposite_fuse="false"
       split_items="false"
       split_open="false"
       link_styles="false" /><inkscape:path-effect
       effect="mirror_symmetry"
       start_point="100.00002,41.345344"
       end_point="100.00002,141.34534"
       center_point="100.00002,91.34534"
       id="path-effect725"
       is_visible="true"
       lpeversion="1.2"
       lpesatellites=""
       mode="vertical"
       discard_orig_path="false"
       fuse_paths="false"
       oposite_fuse="false"
       split_items="false"
       split_open="false"
       link_styles="false" /><inkscape:path-effect
       effect="mirror_symmetry"
       start_point="0.4110633,93.12628"
       end_point="100.41105,93.12628"
       center_point="50.411059,93.12628"
       id="path-effect723"
       is_visible="true"
       lpeversion="1.2"
       lpesatellites=""
       mode="vertical"
       discard_orig_path="false"
       fuse_paths="false"
       oposite_fuse="false"
       split_items="false"
       split_open="false"
       link_styles="false" /><inkscape:path-effect
       effect="bend_path"
       id="path-effect721"
       is_visible="true"
       lpeversion="1"
       bendpath="M 71.706703,113.5565 H 84.669444"
       prop_scale="1"
       scale_y_rel="false"
       vertical="false"
       hide_knot="false" /><inkscape:path-effect
       effect="mirror_symmetry"
       start_point="19.564793,70.62238"
       end_point="119.56479,70.62238"
       center_point="69.56479,70.62238"
       id="path-effect719"
       is_visible="true"
       lpeversion="1.2"
       lpesatellites=""
       mode="vertical"
       discard_orig_path="false"
       fuse_paths="false"
       oposite_fuse="false"
       split_items="false"
       split_open="false"
       link_styles="false" /><inkscape:path-effect
       effect="bend_path"
       id="path-effect717"
       is_visible="true"
       lpeversion="1"
       bendpath="m 44.591573,96.39293 c 24.205229,-8.116016 39.744281,4.45373 47.921992,-10.157214"
       prop_scale="1"
       scale_y_rel="false"
       vertical="false"
       hide_knot="false"
       bendpath-nodetypes="cc" /><inkscape:path-effect
       effect="mirror_symmetry"
       start_point="-96.181839,-89.123249"
       end_point="174.41065,-89.123249"
       center_point="39.114405,-89.123249"
       id="path-effect715"
       is_visible="true"
       lpeversion="1.2"
       lpesatellites=""
       mode="vertical"
       discard_orig_path="false"
       fuse_paths="false"
       oposite_fuse="false"
       split_items="false"
       split_open="false"
       link_styles="false" /><inkscape:path-effect
       effect="mirror_symmetry"
       start_point="100.00002,16.2097"
       end_point="100.00002,178.16005"
       center_point="100.00002,97.184875"
       id="path-effect713"
       is_visible="true"
       lpeversion="1.2"
       lpesatellites=""
       mode="vertical"
       discard_orig_path="false"
       fuse_paths="false"
       oposite_fuse="false"
       split_items="false"
       split_open="false"
       link_styles="false" /><inkscape:path-effect
       effect="mirror_symmetry"
       start_point="100.00002,41.345344"
       end_point="100.00002,141.34534"
       center_point="100.00002,91.34534"
       id="path-effect711"
       is_visible="true"
       lpeversion="1.2"
       lpesatellites=""
       mode="vertical"
       discard_orig_path="false"
       fuse_paths="false"
       oposite_fuse="false"
       split_items="false"
       split_open="false"
       link_styles="false" /><inkscape:path-effect
       effect="mirror_symmetry"
       start_point="100.00002,41.345344"
       end_point="100.00002,141.34534"
       center_point="100.00002,91.34534"
       id="path-effect709"
       is_visible="true"
       lpeversion="1.2"
       lpesatellites=""
       mode="vertical"
       discard_orig_path="false"
       fuse_paths="false"
       oposite_fuse="false"
       split_items="false"
       split_open="false"
       link_styles="false" /><inkscape:path-effect
       effect="mirror_symmetry"
       start_point="100.00087,41.749048"
       end_point="100.00087,141.74904"
       center_point="100.00087,91.749044"
       id="path-effect707"
       is_visible="true"
       lpeversion="1.2"
       lpesatellites=""
       mode="vertical"
       discard_orig_path="false"
       fuse_paths="false"
       oposite_fuse="false"
       split_items="false"
       split_open="false"
       link_styles="false" /><inkscape:path-effect
       effect="mirror_symmetry"
       start_point="100.00002,41.345344"
       end_point="100.00002,141.34534"
       center_point="100.00002,91.34534"
       id="path-effect704"
       is_visible="true"
       lpeversion="1.2"
       lpesatellites=""
       mode="vertical"
       discard_orig_path="false"
       fuse_paths="false"
       oposite_fuse="false"
       split_items="false"
       split_open="false"
       link_styles="false" /><inkscape:path-effect
       effect="mirror_symmetry"
       start_point="100.00002,41.345344"
       end_point="100.00002,141.34534"
       center_point="100.00002,91.34534"
       id="path-effect702"
       is_visible="true"
       lpeversion="1.2"
       lpesatellites=""
       mode="vertical"
       discard_orig_path="false"
       fuse_paths="false"
       oposite_fuse="false"
       split_items="false"
       split_open="false"
       link_styles="false" /><inkscape:path-effect
       effect="mirror_symmetry"
       start_point="118.8141,39.499162"
       end_point="65.386538,138.57229"
       center_point="92.100319,89.035726"
       id="path-effect700"
       is_visible="true"
       lpeversion="1.2"
       lpesatellites=""
       mode="vertical"
       discard_orig_path="false"
       fuse_paths="false"
       oposite_fuse="false"
       split_items="false"
       split_open="false"
       link_styles="false" /><inkscape:path-effect
       effect="mirror_symmetry"
       start_point="99.999999,0"
       end_point="99.999999,200"
       center_point="99.999999,99.999999"
       id="path-effect698"
       is_visible="false"
       lpeversion="1.2"
       lpesatellites=""
       mode="vertical"
       discard_orig_path="false"
       fuse_paths="false"
       oposite_fuse="false"
       split_items="false"
       split_open="false"
       link_styles="false" /><inkscape:path-effect
       effect="mirror_symmetry"
       start_point="112.66949,34.670966"
       end_point="83.53655,143.39659"
       center_point="98.103021,89.033777"
       id="path-effect695"
       is_visible="true"
       lpeversion="1.2"
       lpesatellites=""
       mode="vertical"
       discard_orig_path="false"
       fuse_paths="false"
       oposite_fuse="false"
       split_items="false"
       split_open="false"
       link_styles="false" /><inkscape:path-effect
       effect="perspective-envelope"
       up_left_point="75.128073,68.571065"
       up_right_point="93.683088,68.571065"
       down_left_point="70.413099,87.869534"
       down_right_point="102.89451,89.201547"
       id="path-effect693"
       is_visible="true"
       lpeversion="1"
       deform_type="perspective"
       horizontal_mirror="false"
       vertical_mirror="false"
       overflow_perspective="false" /><inkscape:path-effect
       effect="perspective-envelope"
       up_left_point="73.771994,63.995303"
       up_right_point="95.363922,63.995303"
       down_left_point="71.249479,90.627428"
       down_right_point="98.486462,90.984166"
       id="path-effect690"
       is_visible="true"
       lpeversion="1"
       deform_type="perspective"
       horizontal_mirror="false"
       vertical_mirror="false"
       overflow_perspective="false" /><inkscape:path-effect
       effect="perspective-envelope"
       up_left_point="75.128073,68.571065"
       up_right_point="93.683088,68.571065"
       down_left_point="74.505351,87.869534"
       down_right_point="98.363831,89.201547"
       id="path-effect688"
       is_visible="true"
       lpeversion="1"
       deform_type="perspective"
       horizontal_mirror="false"
       vertical_mirror="false"
       overflow_perspective="false" /><inkscape:path-effect
       effect="mirror_symmetry"
       start_point="99.999999,0"
       end_point="99.999999,200"
       center_point="99.999999,99.999999"
       id="path-effect686"
       is_visible="false"
       lpeversion="1.2"
       lpesatellites=""
       mode="vertical"
       discard_orig_path="false"
       fuse_paths="false"
       oposite_fuse="false"
       split_items="false"
       split_open="false"
       link_styles="false" /><inkscape:path-effect
       effect="mirror_symmetry"
       start_point="110.13948,36.909781"
       end_point="84.257573,133.50236"
       center_point="97.198524,85.206069"
       id="path-effect683"
       is_visible="true"
       lpeversion="1.2"
       lpesatellites=""
       mode="vertical"
       discard_orig_path="false"
       fuse_paths="false"
       oposite_fuse="false"
       split_items="false"
       split_open="false"
       link_styles="false" /><inkscape:path-effect
       effect="mirror_symmetry"
       start_point="0.4110583,93.126275"
       end_point="100.41105,93.126275"
       center_point="50.411054,93.126275"
       id="path-effect681"
       is_visible="true"
       lpeversion="1.2"
       lpesatellites=""
       mode="vertical"
       discard_orig_path="false"
       fuse_paths="false"
       oposite_fuse="false"
       split_items="false"
       split_open="false"
       link_styles="false" /><inkscape:path-effect
       effect="bend_path"
       id="path-effect679"
       is_visible="true"
       lpeversion="1"
       bendpath="M 71.706703,113.5565 H 84.669444"
       prop_scale="1"
       scale_y_rel="false"
       vertical="false"
       hide_knot="false" /><inkscape:path-effect
       effect="mirror_symmetry"
       start_point="121.13877,38.68326"
       end_point="121.13877,144.14249"
       center_point="121.13877,91.412875"
       id="path-effect677"
       is_visible="true"
       lpeversion="1.2"
       lpesatellites=""
       mode="vertical"
       discard_orig_path="false"
       fuse_paths="false"
       oposite_fuse="false"
       split_items="false"
       split_open="false"
       link_styles="false" /><inkscape:path-effect
       effect="mirror_symmetry"
       start_point="99.999999,0"
       end_point="99.999999,200"
       center_point="99.999999,99.999999"
       id="path-effect675"
       is_visible="false"
       lpeversion="1.2"
       lpesatellites=""
       mode="vertical"
       discard_orig_path="false"
       fuse_paths="false"
       oposite_fuse="false"
       split_items="false"
       split_open="false"
       link_styles="false" /><inkscape:path-effect
       effect="perspective-envelope"
       up_left_point="75.128073,68.571065"
       up_right_point="93.683088,68.571065"
       down_left_point="75.347369,87.818045"
       down_right_point="99.492565,89.201547"
       id="path-effect673"
       is_visible="true"
       lpeversion="1"
       deform_type="perspective"
       horizontal_mirror="false"
       vertical_mirror="false"
       overflow_perspective="false" /><inkscape:path-effect
       effect="mirror_symmetry"
       start_point="99.999999,0"
       end_point="99.999999,200"
       center_point="99.999999,99.999999"
       id="path-effect671"
       is_visible="false"
       lpeversion="1.2"
       lpesatellites=""
       mode="vertical"
       discard_orig_path="false"
       fuse_paths="false"
       oposite_fuse="false"
       split_items="false"
       split_open="false"
       link_styles="false" /><inkscape:path-effect
       effect="mirror_symmetry"
       start_point="98.850248,-10.060325"
       end_point="98.850248,189.93967"
       center_point="98.850248,89.939674"
       id="path-effect668"
       is_visible="false"
       lpeversion="1.2"
       lpesatellites=""
       mode="vertical"
       discard_orig_path="false"
       fuse_paths="false"
       oposite_fuse="false"
       split_items="false"
       split_open="false"
       link_styles="false" /><linearGradient
       id="linearGradient4769"
       inkscape:swatch="gradient"><stop
         style="stop-color:#ffffff;stop-opacity:1;"
         offset="0"
         id="stop4765" /><stop
         style="stop-color:#ffffff;stop-opacity:0;"
         offset="1"
         id="stop4767" /></linearGradient><linearGradient
       id="linearGradient2383"
       inkscape:swatch="solid"><stop
         style="stop-color:#000000;stop-opacity:1;"
         offset="0"
         id="stop2381" /></linearGradient></defs><path
     id="path69"
     style="font-style:normal;font-variant:normal;font-weight:normal;font-stretch:normal;font-size:78.6356px;font-family:'Libre Barcode 128';-inkscape-font-specification:'Libre Barcode 128, ';text-align:center;text-anchor:middle;display:inline;fill:#ffffff;stroke:none;stroke-width:39.8042;stroke-linecap:square;stroke-miterlimit:30;stroke-dasharray:none;stroke-opacity:1;paint-order:stroke fill markers"
     inkscape:label="D"
     d="m 201.29795,28.71455 v 8.959339 c 3.1952,0.02417 6.34524,0.09254 9.43616,0.199886 v -8.948754 c -3.12093,-0.117269 -6.27104,-0.186297 -9.43616,-0.210471 z m -9.43642,0.06923 c -1.57898,0.0352 -3.15212,0.08096 -4.71795,0.139492 v 8.950507 c 1.55801,-0.05411 3.13197,-0.09721 4.71795,-0.131698 z m -7.07705,0.237227 c -0.78806,0.03551 -1.5757,0.07145 -2.35911,0.112866 v 8.929207 c 0.78009,-0.03625 1.57071,-0.06722 2.35911,-0.09936 z m 28.30873,0.0031 v 6.5e-5 6.5e-5 6.5e-5 6.5e-5 6.4e-5 6.5e-5 6.5e-5 8.939208 c 0.78839,0.03214 1.57901,0.06311 2.3591,0.09936 v -8.926935 c -0.78305,-0.04155 -1.57139,-0.07643 -2.3591,-0.112087 z m -35.38604,0.394122 c -0.79205,0.0546 -1.57362,0.118784 -2.35911,0.179494 v 7.289988 l 2.35911,0.410552 z m 42.46335,0.0045 v 6.5e-5 6.5e-5 6.5e-5 6.5e-5 7.875229 l 2.3591,-0.410617 v -7.286026 c -0.78498,-0.06085 -1.56746,-0.124106 -2.3591,-0.178846 z m 7.07706,0.583423 v 6.060346 l 2.3591,-0.410552 v -5.412957 c -0.78303,-0.08152 -1.56742,-0.161674 -2.3591,-0.236837 z m -63.30181,0.473024 v 6.5e-5 6.5e-5 6.5e-5 6.5e-5 l -0.39297,0.389251 v 3.966156 l 2.3591,0.410551 v -4.757256 c -0.13622,0.01544 -0.27606,0.02845 -0.41199,0.04409 a 2.4869818,0.62839725 0 0 1 -1.55414,-0.05306 z m -10.88339,1.702666 a 2.4869818,0.62839725 0 0 1 -0.89363,0.346586 c -0.94753,0.170178 -1.85727,0.350531 -2.77032,0.529911 v 3.698992 l 2.5953,-2.83808 a 2.6113308,0.65981708 0 0 1 1.60092,-0.466335 2.6113308,0.65981708 0 0 1 0.52199,-0.01701 v -1.179509 z m 90.69867,0.05364 -4.71795,0.334766 v 1.443295 l 2.81504,-0.489908 a 2.6113308,0.65981708 0 0 1 1.60143,-0.115594 2.6113308,0.65981708 0 0 1 0.30148,0.02961 z m -82.56735,0.279762 a 2.4869818,0.62839725 0 0 1 -2.03116,0.09955 l -0.32795,-0.02325 v 1.422124 l 2.35911,0.410552 z m 84.92645,0.09228 v 6.5e-5 6.5e-5 6.5e-5 6.5e-5 1.570318 l 2.3591,2.579748 v -3.700161 c -0.77672,-0.1526 -1.55733,-0.304207 -2.3591,-0.450165 z m -99.08082,0.93332 c -1.63475,0.346853 -3.20778,0.708318 -4.71821,1.084046 v 8.922973 h 3.24579 l -0.77694,-1.571227 a 2.6113308,0.65981708 0 0 1 0.0465,-0.230668 l 2.20284,-2.40889 z m 106.15813,0.509455 v 9.497499 h 2.35911 V 34.62463 c -0.77758,-0.193421 -1.54831,-0.388423 -2.35911,-0.574331 z m 4.71795,1.187172 v 8.310327 h 9.43642 V 38.34024 c -2.73376,-1.104269 -5.88956,-2.143216 -9.43642,-3.10284 z M 135.24407,36.62732 c -0.81734,0.265356 -1.59604,0.537347 -2.35911,0.812077 v 6.108466 h 2.35911 z m 136.82597,3.904852 v 3.015626 h 2.35884 V 41.92747 c -0.71021,-0.47356 -1.51251,-0.937084 -2.35884,-1.395369 z m -146.26239,3.24e-4 c -0.84675,0.458492 -1.64839,0.922381 -2.35885,1.396149 v 1.619218 h 2.35885 z m -5.16027,3.654638 c -0.25161,0.253153 -0.45919,0.50951 -0.67259,0.765514 h 26.28682 l -0.37857,-0.765514 z m 131.34676,0 -0.37858,0.765514 h 26.28734 c -0.21337,-0.255982 -0.42025,-0.512385 -0.67183,-0.765514 z m -125.94002,1.781633 c -1.71527,5e-6 -3.11795,0.354381 -3.1178,0.787789 3e-5,0.433377 1.40265,0.787784 3.1178,0.787789 1.47515,-4.3e-5 2.54172,-0.283107 2.86105,-0.632257 h 18.31537 l -0.15369,-0.311128 h -18.16168 c -0.31923,-0.349177 -1.3858,-0.63215 -2.86105,-0.632193 z m 143.48461,0 c -1.47556,4.3e-5 -2.54189,0.284068 -2.86079,0.633362 h -15.87813 l -0.15318,0.309959 h 16.02669 c 0.31715,0.349888 1.3882,0.633318 2.86541,0.633361 1.71529,4e-5 3.12215,-0.35438 3.12217,-0.787789 -2e-5,-0.433407 -1.40688,-0.788932 -3.12217,-0.788893 z m -143.48461,0.30996 c 1.05128,3.1e-5 1.89119,0.212198 1.89109,0.477829 -1e-5,0.26561 -0.83989,0.4778 -1.89109,0.47783 -1.05126,-3e-6 -1.89107,-0.2122 -1.89108,-0.47783 -10e-5,-0.265651 0.83974,-0.477826 1.89108,-0.477829 z m 143.48461,0.0011 c 1.05135,-2.5e-5 1.89109,0.212179 1.89109,0.477829 0,0.265651 -0.83974,0.47675 -1.89109,0.476726 -1.05119,-3e-5 -1.88671,-0.211115 -1.88671,-0.476726 0,-0.26561 0.83552,-0.477799 1.88671,-0.477829 z m -133.10804,1.264514 c -1.71528,-3.9e-5 -3.11778,0.354383 -3.1178,0.787789 2e-5,0.433407 1.40252,0.788932 3.1178,0.788894 1.47598,-4.3e-5 2.54671,-0.283911 2.86515,-0.633362 h 7.63606 l 0.11128,-0.309959 h -7.74734 c -0.31733,-0.349826 -1.38811,-0.633319 -2.86515,-0.633362 z m 139.11773,0.0011 c -1.47509,4.3e-5 -2.54139,0.283141 -2.86079,0.632258 h -21.85364 l 0.1118,0.311063 h 21.74184 c 0.31952,0.349089 1.38581,0.632215 2.86079,0.632258 1.71516,-5e-6 3.11778,-0.354412 3.1178,-0.78779 1.6e-4,-0.433406 -1.40251,-0.787783 -3.1178,-0.787789 z m -139.11773,0.30996 c 1.0512,3e-5 1.89081,0.211114 1.89083,0.476725 -2e-5,0.26561 -0.83963,0.4778 -1.89083,0.47783 -1.05135,2.4e-5 -1.89108,-0.212181 -1.89109,-0.47783 1e-5,-0.265651 0.83974,-0.476749 1.89109,-0.476725 z m 139.11773,0 c 1.05137,3e-6 1.89118,0.212179 1.89109,0.477829 -2e-5,0.265631 -0.83981,0.477827 -1.89109,0.47783 -1.05118,-3e-5 -1.89106,-0.212219 -1.89108,-0.47783 -10e-5,-0.26563 0.83981,-0.477799 1.89108,-0.477829 z M 122.29868,49.12102 c -1.71516,5e-6 -3.11778,0.354411 -3.1178,0.787789 -1.5e-4,0.433406 1.40252,0.787783 3.1178,0.787789 1.47508,-4.3e-5 2.54138,-0.283138 2.86079,-0.632258 h 21.20572 l 0.1118,-0.311063 h -21.31752 c -0.31951,-0.34909 -1.38582,-0.632214 -2.86079,-0.632257 z m 139.11774,0 c -1.476,4.3e-5 -2.54672,0.283912 -2.86516,0.633361 h -7.15082 l 0.11154,0.309959 h 7.03928 c 0.31733,0.349829 1.38811,0.633322 2.86516,0.633362 1.71527,4e-5 3.11777,-0.354383 3.1178,-0.787789 -3e-5,-0.433409 -1.40253,-0.788932 -3.1178,-0.788893 z m -139.11774,0.309959 c 1.0512,3e-5 1.89107,0.212217 1.89109,0.47783 9e-5,0.265628 -0.83981,0.477799 -1.89109,0.477829 -1.05135,-3e-6 -1.89118,-0.212182 -1.89109,-0.477829 2e-5,-0.265633 0.83982,-0.477827 1.89109,-0.47783 z m 139.11774,0.0011 c 1.05135,-2.4e-5 1.89106,0.212179 1.89108,0.47783 -2e-5,0.265649 -0.83973,0.47675 -1.89108,0.476725 -1.05119,-3e-5 -1.89081,-0.211116 -1.89083,-0.476725 2e-5,-0.265612 0.83964,-0.4778 1.89083,-0.47783 z m -133.10805,1.264515 c -1.71528,-4e-5 -3.12215,0.35438 -3.12217,0.787789 2e-5,0.433406 1.40689,0.788932 3.12217,0.788893 1.47556,-4.3e-5 2.54189,-0.284067 2.86079,-0.633361 h 14.62983 l 0.11155,-0.30996 h -14.73676 c -0.31716,-0.349886 -1.38818,-0.633318 -2.86541,-0.633361 z m 143.48461,0.0011 c -1.47516,4.5e-5 -2.54174,0.283112 -2.86105,0.632257 h -16.96529 l 0.1118,0.311128 h 16.85349 c 0.31922,0.349183 1.3858,0.632148 2.86105,0.632193 1.71529,-5e-6 3.11796,-0.354378 3.1178,-0.787789 -2e-5,-0.433378 -1.40265,-0.787779 -3.1178,-0.787789 z m -143.48461,0.309959 c 1.0512,3e-5 1.8867,0.211113 1.88672,0.476726 -2e-5,0.265609 -0.83552,0.477799 -1.88672,0.47783 -1.05135,2.4e-5 -1.89108,-0.212181 -1.89109,-0.47783 10e-6,-0.265652 0.83974,-0.47675 1.89109,-0.476726 z m 143.48461,0 c 1.05125,5e-6 1.89106,0.2122 1.89108,0.47783 1e-4,0.265652 -0.83974,0.477824 -1.89108,0.47783 -1.05128,-3.1e-5 -1.89118,-0.212198 -1.89109,-0.47783 2e-5,-0.265609 0.83988,-0.4778 1.89109,-0.47783 z m -151.78941,2.263814 c 0.20607,0.245148 0.40652,0.490583 0.64767,0.73311 h 24.29808 l 0.26343,-0.73311 z m 132.66085,0 0.26344,0.73311 h 24.2991 c 0.2411,-0.242506 0.44111,-0.487984 0.64715,-0.73311 z m 9.9692,1.374329 v 6.920543 c 0.81734,-0.265358 1.59604,-0.537344 2.3591,-0.812077 v -6.108466 z m 9.43642,0 v 3.015366 c 0.84673,-0.458491 1.64837,-0.922386 2.35884,-1.396148 v -1.619218 z m -148.62124,6.5e-5 v 1.620127 c 0.71027,0.473597 1.51243,0.937187 2.35885,1.395499 v -3.015626 z m 7.07706,0 v 5.207356 c 2.73383,1.104304 5.88945,2.143326 9.43641,3.102971 v -3.394617 c -0.92735,-0.21398 -1.83424,-0.431986 -2.71403,-0.655246 a 2.6113308,0.65981708 0 0 1 -0.75767,-0.465361 v -3.144598 a 2.6113308,0.65981708 0 0 1 2.47476,-0.650505 z m 125.03071,5.434842 c -1.51671,0.324244 -3.09015,0.637389 -4.71821,0.939879 v 3.632168 c 1.63475,-0.34685 3.20778,-0.708319 4.71821,-1.084046 z m -113.23545,1.3e-4 v 3.488195 c 0.77757,0.193427 1.54831,0.38842 2.3591,0.574331 v -3.577878 c -0.79935,-0.159018 -1.58875,-0.319965 -2.3591,-0.484648 z m 106.15813,1.368743 c -1.52443,0.265357 -3.10726,0.519291 -4.7182,0.767723 v 3.719837 l 1.05425,0.07462 a 2.4869818,0.62839725 0 0 1 0.89363,-0.346586 c 0.94757,-0.170178 1.85728,-0.35053 2.77032,-0.529912 z m -99.08082,6.5e-5 v 3.686199 c 0.77672,0.152599 1.55734,0.304205 2.35911,0.450165 v -6.5e-5 -6.5e-5 -6.5e-5 -3.743086 c -0.79284,-0.129759 -1.58858,-0.25896 -2.35911,-0.393083 z m 4.71821,0.767788 v 3.740683 l 4.71795,-0.334766 V 62.90522 c -1.6104,-0.221885 -3.18314,-0.451157 -4.71795,-0.687846 z m 84.92646,0.687781 c -0.77832,0.10724 -1.56363,0.213098 -2.35911,0.316973 v 2.456167 a 2.4869818,0.62839725 0 0 1 2.03116,-0.09955 l 0.32795,0.02331 z m -4.71821,0.619529 c -0.12106,0.015 -0.23685,0.03105 -0.35828,0.04598 -0.67236,0.08267 -1.33405,0.157939 -2.00083,0.236447 v 3.898228 c 0.13628,-0.01543 0.27606,-0.02846 0.41199,-0.04409 a 2.4869818,0.62839725 0 0 1 1.55415,0.05306 v -6.5e-5 -6.5e-5 -6.5e-5 l 0.39297,-0.389251 z m -66.05388,0.555563 v 3.870369 c 0.78302,0.08152 1.56739,0.161673 2.3591,0.236837 v -6.5e-5 -3.849198 c -0.77912,-0.08307 -1.56563,-0.169068 -2.3591,-0.257943 z m 54.25861,0.73798 c -0.79989,0.07739 -1.588,0.152042 -2.3591,0.223135 v 3.733864 c 0.79203,-0.0546 1.57363,-0.118782 2.3591,-0.179494 z m -47.18156,6.5e-5 V 68.5919 c 0.78503,0.06085 1.56745,0.124105 2.35911,0.178845 v -6.5e-5 -6.5e-5 -6.5e-5 -3.729123 c -0.7711,-0.07109 -1.55922,-0.145743 -2.35911,-0.223135 z m 40.10425,0.632063 c -0.79933,0.06676 -1.61599,0.138475 -2.3591,0.197613 v 3.524237 c 0.78805,-0.03549 1.5757,-0.07145 2.3591,-0.112866 z m -33.02694,6.5e-5 v 3.606776 c 0.78304,0.04157 1.57139,0.07643 2.35911,0.112087 v -6.5e-5 -6.5e-5 -6.5e-5 -6.5e-5 -3.52099 c -0.74313,-0.05914 -1.55975,-0.130857 -2.35911,-0.197613 z m 28.30874,0.377887 c -0.71042,0.0537 -1.53167,0.119611 -2.16327,0.165402 -1.10987,0.08047 -1.68715,0.116644 -2.55469,0.176637 v 3.239086 c 1.57898,-0.03519 3.15213,-0.08096 4.71796,-0.139492 z m -23.59053,6.5e-5 v 3.439815 c 3.12092,0.117272 6.27102,0.186298 9.43616,0.210471 v -2.995625 c -1.23801,-0.07327 -3.29739,-0.201045 -7.27341,-0.489324 -0.63144,-0.04578 -1.45254,-0.111651 -2.16275,-0.165337 z"
     transform="matrix(0.50266753,0,0,1.9893865,-50,-47.671379)" /></svg>
