<?xml version="1.0" encoding="UTF-8" standalone="no"?>
<!-- Created with Inkscape (http://www.inkscape.org/) -->

<svg
   width="399.99997mm"
   height="399.99997mm"
   viewBox="0 0 99.999992 99.999992"
   version="1.1"
   id="svg123"
   xml:space="preserve"
   inkscape:version="1.3 (0e150ed6c4, 2023-07-21)"
   sodipodi:docname="byte_old.svg"
   inkscape:export-filename="LT0 - RBWH3023.622\B_c.png"
   inkscape:export-xdpi="300"
   inkscape:export-ydpi="300"
   xmlns:inkscape="http://www.inkscape.org/namespaces/inkscape"
   xmlns:sodipodi="http://sodipodi.sourceforge.net/DTD/sodipodi-0.dtd"
   xmlns="http://www.w3.org/2000/svg"
   xmlns:svg="http://www.w3.org/2000/svg"><sodipodi:namedview
     id="namedview125"
     pagecolor="#282828"
     bordercolor="#1a1a1a"
     borderopacity="1"
     inkscape:showpageshadow="2"
     inkscape:pageopacity="0"
     inkscape:pagecheckerboard="0"
     inkscape:deskcolor="#282828"
     inkscape:document-units="mm"
     showgrid="false"
     showguides="false"
     inkscape:zoom="0.3535534"
     inkscape:cx="592.55547"
     inkscape:cy="456.79097"
     inkscape:window-width="1920"
     inkscape:window-height="1009"
     inkscape:window-x="1912"
     inkscape:window-y="-8"
     inkscape:window-maximized="1"
     inkscape:current-layer="svg123"><sodipodi:guide
       position="-50,-49.999997"
       orientation="0,-1"
       id="guide6584"
       inkscape:locked="false" /><sodipodi:guide
       position="150,150"
       orientation="0,-1"
       id="guide5725"
       inkscape:locked="false" /><sodipodi:guide
       position="-50,150"
       orientation="1,0"
       id="guide919"
       inkscape:locked="false" /><sodipodi:guide
       position="150,-49.999997"
       orientation="1,0"
       id="guide921"
       inkscape:locked="false" /><sodipodi:guide
       position="50.0001,150"
       orientation="1,0"
       id="guide923"
       inkscape:locked="false" /><sodipodi:guide
       position="-50,49.999903"
       orientation="0,-1"
       id="guide925"
       inkscape:locked="false" /><sodipodi:guide
       position="50.0001,-11.671347"
       orientation="0,-1"
       id="guide931"
       inkscape:locked="false" /><sodipodi:guide
       position="114.00007,49.999899"
       orientation="1,0"
       id="guide933"
       inkscape:locked="false" /><sodipodi:guide
       position="-13.999873,49.999899"
       orientation="1,0"
       id="guide1070"
       inkscape:locked="false" /><sodipodi:guide
       position="49.994291,16.416334"
       orientation="0,-1"
       id="guide1072"
       inkscape:locked="false" /><sodipodi:guide
       position="77.20744,41.307385"
       orientation="0,-1"
       id="guide1076"
       inkscape:locked="false" /><sodipodi:guide
       position="54.44156,43.548488"
       orientation="1,0"
       id="guide1080"
       inkscape:locked="false" /><sodipodi:guide
       position="27.658694,79.955402"
       orientation="0,-1"
       id="guide12587"
       inkscape:locked="false" /><inkscape:grid
       id="grid11"
       units="px"
       originx="-755.90552"
       originy="-755.90552"
       spacingx="0.066145833"
       spacingy="0.066145833"
       empcolor="#0099e5"
       empopacity="0.30196078"
       color="#0099e5"
       opacity="0.14901961"
       empspacing="5"
       dotted="false"
       gridanglex="30"
       gridanglez="30"
       visible="false" /><sodipodi:guide
       position="45.558248,43.548487"
       orientation="1,0"
       id="guide25"
       inkscape:locked="false" /><sodipodi:guide
       position="50.0001,116.32859"
       orientation="0,-1"
       id="guide304"
       inkscape:locked="false" /><sodipodi:guide
       position="49.999708,71.505482"
       orientation="0,-1"
       id="guide305"
       inkscape:locked="false" /><sodipodi:guide
       position="82.30438,58.654621"
       orientation="0,-1"
       id="guide306"
       inkscape:locked="false" /><sodipodi:guide
       position="40.234928,77.551552"
       orientation="1,0"
       id="guide349"
       inkscape:locked="false" /><sodipodi:guide
       position="59.76565,77.551551"
       orientation="1,0"
       id="guide350"
       inkscape:locked="false" /><sodipodi:guide
       position="50.0001,93.791041"
       orientation="0,-1"
       id="guide353"
       inkscape:locked="false" /><sodipodi:guide
       position="50.0001,3.8890308"
       orientation="0,-1"
       id="guide355"
       inkscape:locked="false" /><sodipodi:guide
       position="80.14043,37.665584"
       orientation="1,0"
       id="guide357"
       inkscape:locked="false" /><sodipodi:guide
       position="19.859558,37.665594"
       orientation="1,0"
       id="guide358"
       inkscape:locked="false" /><sodipodi:guide
       position="2.175031,62.713782"
       orientation="0,-1"
       id="guide359"
       inkscape:locked="false" /><sodipodi:guide
       position="97.82492,37.286215"
       orientation="0,-1"
       id="guide360"
       inkscape:locked="false" /><sodipodi:guide
       position="3.889128,50"
       orientation="1,0"
       id="guide361"
       inkscape:locked="false" /><sodipodi:guide
       position="96.11107,50"
       orientation="1,0"
       id="guide362"
       inkscape:locked="false" /><sodipodi:guide
       position="-10.779915,49.999899"
       orientation="1,0"
       id="guide363"
       inkscape:locked="false" /><sodipodi:guide
       position="110.78011,49.999899"
       orientation="1,0"
       id="guide364"
       inkscape:locked="false" /><sodipodi:guide
       position="50.0001,113.10863"
       orientation="0,-1"
       id="guide365"
       inkscape:locked="false" /><sodipodi:guide
       position="50.0001,-8.4513872"
       orientation="0,-1"
       id="guide366"
       inkscape:locked="false" /><sodipodi:guide
       position="49.924457,96.186602"
       orientation="0,-1"
       id="guide377"
       inkscape:locked="false" /><sodipodi:guide
       position="50.0001,6.2089618"
       orientation="0,-1"
       id="guide379"
       inkscape:locked="false" /><sodipodi:guide
       position="-18.938762,62.713782"
       orientation="1,0"
       id="guide1"
       inkscape:locked="false" /><sodipodi:guide
       position="118.93896,62.713782"
       orientation="1,0"
       id="guide2"
       inkscape:locked="false" /><sodipodi:guide
       position="80.97886,123.87761"
       orientation="0,-1"
       id="guide4"
       inkscape:locked="false" /><sodipodi:guide
       position="80.97886,128.81648"
       orientation="0,-1"
       id="guide5"
       inkscape:locked="false" /><sodipodi:guide
       position="19.021121,133.75535"
       orientation="0,-1"
       id="guide6"
       inkscape:locked="false" /><sodipodi:guide
       position="75.05607,138.69422"
       orientation="0,-1"
       id="guide7"
       inkscape:locked="false" /><sodipodi:guide
       position="66.66385,-23.412688"
       orientation="0,-1"
       id="guide8"
       inkscape:locked="false" /><sodipodi:guide
       position="64.5658,-28.351561"
       orientation="0,-1"
       id="guide9"
       inkscape:locked="false" /><sodipodi:guide
       position="64.5658,-33.290434"
       orientation="0,-1"
       id="guide10"
       inkscape:locked="false" /><sodipodi:guide
       position="66.66385,-38.229308"
       orientation="0,-1"
       id="guide11"
       inkscape:locked="false" /><sodipodi:guide
       position="64.5658,-43.168181"
       orientation="0,-1"
       id="guide12"
       inkscape:locked="false" /><sodipodi:guide
       position="-43.458097,144.67146"
       orientation="1,0"
       id="guide149"
       inkscape:locked="false" /><sodipodi:guide
       position="-43.458097,144.67146"
       orientation="0,-1"
       id="guide150"
       inkscape:locked="false" /></sodipodi:namedview><defs
     id="defs120"><inkscape:path-effect
       effect="mirror_symmetry"
       start_point="100.00002,41.345344"
       end_point="100.00002,141.34534"
       center_point="100.00002,91.34534"
       id="path-effect753"
       is_visible="true"
       lpeversion="1.2"
       lpesatellites=""
       mode="vertical"
       discard_orig_path="false"
       fuse_paths="false"
       oposite_fuse="false"
       split_items="false"
       split_open="false"
       link_styles="false" /><inkscape:path-effect
       effect="mirror_symmetry"
       start_point="100.00002,41.345344"
       end_point="100.00002,141.34534"
       center_point="100.00002,91.34534"
       id="path-effect751"
       is_visible="true"
       lpeversion="1.2"
       lpesatellites=""
       mode="vertical"
       discard_orig_path="false"
       fuse_paths="false"
       oposite_fuse="false"
       split_items="false"
       split_open="false"
       link_styles="false" /><inkscape:path-effect
       effect="mirror_symmetry"
       start_point="100.00002,41.345344"
       end_point="100.00002,141.34534"
       center_point="100.00002,91.34534"
       id="path-effect749"
       is_visible="true"
       lpeversion="1.2"
       lpesatellites=""
       mode="vertical"
       discard_orig_path="false"
       fuse_paths="false"
       oposite_fuse="false"
       split_items="false"
       split_open="false"
       link_styles="false" /><inkscape:path-effect
       effect="mirror_symmetry"
       start_point="100.00002,41.345344"
       end_point="100.00002,141.34534"
       center_point="100.00002,91.34534"
       id="path-effect747"
       is_visible="true"
       lpeversion="1.2"
       lpesatellites=""
       mode="vertical"
       discard_orig_path="false"
       fuse_paths="false"
       oposite_fuse="false"
       split_items="false"
       split_open="false"
       link_styles="false" /><inkscape:path-effect
       effect="perspective-envelope"
       up_left_point="71.870702,63.933093"
       up_right_point="88.618549,63.933093"
       down_left_point="71.870702,83.74724"
       down_right_point="88.618549,83.74724"
       id="path-effect745"
       is_visible="true"
       lpeversion="1"
       deform_type="perspective"
       horizontal_mirror="false"
       vertical_mirror="false"
       overflow_perspective="false" /><inkscape:path-effect
       effect="mirror_symmetry"
       start_point="100.00002,41.345344"
       end_point="100.00002,141.34534"
       center_point="100.00002,91.34534"
       id="path-effect743"
       is_visible="true"
       lpeversion="1.2"
       lpesatellites=""
       mode="vertical"
       discard_orig_path="false"
       fuse_paths="false"
       oposite_fuse="false"
       split_items="false"
       split_open="false"
       link_styles="false" /><inkscape:path-effect
       effect="mirror_symmetry"
       start_point="97.253972,45.210534"
       end_point="97.253972,129.11928"
       center_point="97.253972,87.164906"
       id="path-effect741"
       is_visible="true"
       lpeversion="1.2"
       lpesatellites=""
       mode="vertical"
       discard_orig_path="false"
       fuse_paths="false"
       oposite_fuse="false"
       split_items="false"
       split_open="false"
       link_styles="false" /><inkscape:path-effect
       effect="perspective-envelope"
       up_left_point="74.071281,66.528614"
       up_right_point="87.227324,66.891006"
       down_left_point="74.071281,80.437755"
       down_right_point="87.227324,80.437755"
       id="path-effect739"
       is_visible="true"
       lpeversion="1"
       deform_type="perspective"
       horizontal_mirror="false"
       vertical_mirror="false"
       overflow_perspective="false" /><inkscape:path-effect
       effect="mirror_symmetry"
       start_point="100.00002,41.345344"
       end_point="100.00002,141.34534"
       center_point="100.00002,91.34534"
       id="path-effect737"
       is_visible="true"
       lpeversion="1.2"
       lpesatellites=""
       mode="vertical"
       discard_orig_path="false"
       fuse_paths="false"
       oposite_fuse="false"
       split_items="false"
       split_open="false"
       link_styles="false" /><inkscape:path-effect
       effect="mirror_symmetry"
       start_point="108.75519,-3.3769927"
       end_point="108.75519,171.31921"
       center_point="108.75519,83.971109"
       id="path-effect735"
       is_visible="true"
       lpeversion="1.2"
       lpesatellites=""
       mode="vertical"
       discard_orig_path="false"
       fuse_paths="false"
       oposite_fuse="false"
       split_items="false"
       split_open="false"
       link_styles="false" /><inkscape:path-effect
       effect="mirror_symmetry"
       start_point="106.80768,11.621287"
       end_point="106.80768,160.53271"
       center_point="106.80768,86.076997"
       id="path-effect733"
       is_visible="true"
       lpeversion="1.2"
       lpesatellites=""
       mode="vertical"
       discard_orig_path="false"
       fuse_paths="false"
       oposite_fuse="false"
       split_items="false"
       split_open="false"
       link_styles="false" /><inkscape:path-effect
       effect="mirror_symmetry"
       start_point="106.80768,11.621287"
       end_point="106.80768,160.53271"
       center_point="106.80768,86.076997"
       id="path-effect731"
       is_visible="true"
       lpeversion="1.2"
       lpesatellites=""
       mode="vertical"
       discard_orig_path="false"
       fuse_paths="false"
       oposite_fuse="false"
       split_items="false"
       split_open="false"
       link_styles="false" /><inkscape:path-effect
       effect="mirror_symmetry"
       start_point="100.00002,41.345344"
       end_point="100.00002,141.34534"
       center_point="100.00002,91.34534"
       id="path-effect729"
       is_visible="true"
       lpeversion="1.2"
       lpesatellites=""
       mode="vertical"
       discard_orig_path="false"
       fuse_paths="false"
       oposite_fuse="false"
       split_items="false"
       split_open="false"
       link_styles="false" /><inkscape:path-effect
       effect="mirror_symmetry"
       start_point="100.00002,41.345344"
       end_point="100.00002,141.34534"
       center_point="100.00002,91.34534"
       id="path-effect727"
       is_visible="true"
       lpeversion="1.2"
       lpesatellites=""
       mode="vertical"
       discard_orig_path="false"
       fuse_paths="false"
       oposite_fuse="false"
       split_items="false"
       split_open="false"
       link_styles="false" /><inkscape:path-effect
       effect="mirror_symmetry"
       start_point="100.00002,41.345344"
       end_point="100.00002,141.34534"
       center_point="100.00002,91.34534"
       id="path-effect725"
       is_visible="true"
       lpeversion="1.2"
       lpesatellites=""
       mode="vertical"
       discard_orig_path="false"
       fuse_paths="false"
       oposite_fuse="false"
       split_items="false"
       split_open="false"
       link_styles="false" /><inkscape:path-effect
       effect="mirror_symmetry"
       start_point="0.4110633,93.12628"
       end_point="100.41105,93.12628"
       center_point="50.411059,93.12628"
       id="path-effect723"
       is_visible="true"
       lpeversion="1.2"
       lpesatellites=""
       mode="vertical"
       discard_orig_path="false"
       fuse_paths="false"
       oposite_fuse="false"
       split_items="false"
       split_open="false"
       link_styles="false" /><inkscape:path-effect
       effect="bend_path"
       id="path-effect721"
       is_visible="true"
       lpeversion="1"
       bendpath="M 71.706703,113.5565 H 84.669444"
       prop_scale="1"
       scale_y_rel="false"
       vertical="false"
       hide_knot="false" /><inkscape:path-effect
       effect="mirror_symmetry"
       start_point="19.564793,70.62238"
       end_point="119.56479,70.62238"
       center_point="69.56479,70.62238"
       id="path-effect719"
       is_visible="true"
       lpeversion="1.2"
       lpesatellites=""
       mode="vertical"
       discard_orig_path="false"
       fuse_paths="false"
       oposite_fuse="false"
       split_items="false"
       split_open="false"
       link_styles="false" /><inkscape:path-effect
       effect="bend_path"
       id="path-effect717"
       is_visible="true"
       lpeversion="1"
       bendpath="m 44.591573,96.39293 c 24.205229,-8.116016 39.744281,4.45373 47.921992,-10.157214"
       prop_scale="1"
       scale_y_rel="false"
       vertical="false"
       hide_knot="false"
       bendpath-nodetypes="cc" /><inkscape:path-effect
       effect="mirror_symmetry"
       start_point="-96.181839,-89.123249"
       end_point="174.41065,-89.123249"
       center_point="39.114405,-89.123249"
       id="path-effect715"
       is_visible="true"
       lpeversion="1.2"
       lpesatellites=""
       mode="vertical"
       discard_orig_path="false"
       fuse_paths="false"
       oposite_fuse="false"
       split_items="false"
       split_open="false"
       link_styles="false" /><inkscape:path-effect
       effect="mirror_symmetry"
       start_point="100.00002,16.2097"
       end_point="100.00002,178.16005"
       center_point="100.00002,97.184875"
       id="path-effect713"
       is_visible="true"
       lpeversion="1.2"
       lpesatellites=""
       mode="vertical"
       discard_orig_path="false"
       fuse_paths="false"
       oposite_fuse="false"
       split_items="false"
       split_open="false"
       link_styles="false" /><inkscape:path-effect
       effect="mirror_symmetry"
       start_point="100.00002,41.345344"
       end_point="100.00002,141.34534"
       center_point="100.00002,91.34534"
       id="path-effect711"
       is_visible="true"
       lpeversion="1.2"
       lpesatellites=""
       mode="vertical"
       discard_orig_path="false"
       fuse_paths="false"
       oposite_fuse="false"
       split_items="false"
       split_open="false"
       link_styles="false" /><inkscape:path-effect
       effect="mirror_symmetry"
       start_point="100.00002,41.345344"
       end_point="100.00002,141.34534"
       center_point="100.00002,91.34534"
       id="path-effect709"
       is_visible="true"
       lpeversion="1.2"
       lpesatellites=""
       mode="vertical"
       discard_orig_path="false"
       fuse_paths="false"
       oposite_fuse="false"
       split_items="false"
       split_open="false"
       link_styles="false" /><inkscape:path-effect
       effect="mirror_symmetry"
       start_point="100.00087,41.749048"
       end_point="100.00087,141.74904"
       center_point="100.00087,91.749044"
       id="path-effect707"
       is_visible="true"
       lpeversion="1.2"
       lpesatellites=""
       mode="vertical"
       discard_orig_path="false"
       fuse_paths="false"
       oposite_fuse="false"
       split_items="false"
       split_open="false"
       link_styles="false" /><inkscape:path-effect
       effect="mirror_symmetry"
       start_point="100.00002,41.345344"
       end_point="100.00002,141.34534"
       center_point="100.00002,91.34534"
       id="path-effect704"
       is_visible="true"
       lpeversion="1.2"
       lpesatellites=""
       mode="vertical"
       discard_orig_path="false"
       fuse_paths="false"
       oposite_fuse="false"
       split_items="false"
       split_open="false"
       link_styles="false" /><inkscape:path-effect
       effect="mirror_symmetry"
       start_point="100.00002,41.345344"
       end_point="100.00002,141.34534"
       center_point="100.00002,91.34534"
       id="path-effect702"
       is_visible="true"
       lpeversion="1.2"
       lpesatellites=""
       mode="vertical"
       discard_orig_path="false"
       fuse_paths="false"
       oposite_fuse="false"
       split_items="false"
       split_open="false"
       link_styles="false" /><inkscape:path-effect
       effect="mirror_symmetry"
       start_point="118.8141,39.499162"
       end_point="65.386538,138.57229"
       center_point="92.100319,89.035726"
       id="path-effect700"
       is_visible="true"
       lpeversion="1.2"
       lpesatellites=""
       mode="vertical"
       discard_orig_path="false"
       fuse_paths="false"
       oposite_fuse="false"
       split_items="false"
       split_open="false"
       link_styles="false" /><inkscape:path-effect
       effect="mirror_symmetry"
       start_point="99.999999,0"
       end_point="99.999999,200"
       center_point="99.999999,99.999999"
       id="path-effect698"
       is_visible="false"
       lpeversion="1.2"
       lpesatellites=""
       mode="vertical"
       discard_orig_path="false"
       fuse_paths="false"
       oposite_fuse="false"
       split_items="false"
       split_open="false"
       link_styles="false" /><inkscape:path-effect
       effect="mirror_symmetry"
       start_point="112.66949,34.670966"
       end_point="83.53655,143.39659"
       center_point="98.103021,89.033777"
       id="path-effect695"
       is_visible="true"
       lpeversion="1.2"
       lpesatellites=""
       mode="vertical"
       discard_orig_path="false"
       fuse_paths="false"
       oposite_fuse="false"
       split_items="false"
       split_open="false"
       link_styles="false" /><inkscape:path-effect
       effect="perspective-envelope"
       up_left_point="75.128073,68.571065"
       up_right_point="93.683088,68.571065"
       down_left_point="70.413099,87.869534"
       down_right_point="102.89451,89.201547"
       id="path-effect693"
       is_visible="true"
       lpeversion="1"
       deform_type="perspective"
       horizontal_mirror="false"
       vertical_mirror="false"
       overflow_perspective="false" /><inkscape:path-effect
       effect="perspective-envelope"
       up_left_point="73.771994,63.995303"
       up_right_point="95.363922,63.995303"
       down_left_point="71.249479,90.627428"
       down_right_point="98.486462,90.984166"
       id="path-effect690"
       is_visible="true"
       lpeversion="1"
       deform_type="perspective"
       horizontal_mirror="false"
       vertical_mirror="false"
       overflow_perspective="false" /><inkscape:path-effect
       effect="perspective-envelope"
       up_left_point="75.128073,68.571065"
       up_right_point="93.683088,68.571065"
       down_left_point="74.505351,87.869534"
       down_right_point="98.363831,89.201547"
       id="path-effect688"
       is_visible="true"
       lpeversion="1"
       deform_type="perspective"
       horizontal_mirror="false"
       vertical_mirror="false"
       overflow_perspective="false" /><inkscape:path-effect
       effect="mirror_symmetry"
       start_point="99.999999,0"
       end_point="99.999999,200"
       center_point="99.999999,99.999999"
       id="path-effect686"
       is_visible="false"
       lpeversion="1.2"
       lpesatellites=""
       mode="vertical"
       discard_orig_path="false"
       fuse_paths="false"
       oposite_fuse="false"
       split_items="false"
       split_open="false"
       link_styles="false" /><inkscape:path-effect
       effect="mirror_symmetry"
       start_point="110.13948,36.909781"
       end_point="84.257573,133.50236"
       center_point="97.198524,85.206069"
       id="path-effect683"
       is_visible="true"
       lpeversion="1.2"
       lpesatellites=""
       mode="vertical"
       discard_orig_path="false"
       fuse_paths="false"
       oposite_fuse="false"
       split_items="false"
       split_open="false"
       link_styles="false" /><inkscape:path-effect
       effect="mirror_symmetry"
       start_point="0.4110583,93.126275"
       end_point="100.41105,93.126275"
       center_point="50.411054,93.126275"
       id="path-effect681"
       is_visible="true"
       lpeversion="1.2"
       lpesatellites=""
       mode="vertical"
       discard_orig_path="false"
       fuse_paths="false"
       oposite_fuse="false"
       split_items="false"
       split_open="false"
       link_styles="false" /><inkscape:path-effect
       effect="bend_path"
       id="path-effect679"
       is_visible="true"
       lpeversion="1"
       bendpath="M 71.706703,113.5565 H 84.669444"
       prop_scale="1"
       scale_y_rel="false"
       vertical="false"
       hide_knot="false" /><inkscape:path-effect
       effect="mirror_symmetry"
       start_point="121.13877,38.68326"
       end_point="121.13877,144.14249"
       center_point="121.13877,91.412875"
       id="path-effect677"
       is_visible="true"
       lpeversion="1.2"
       lpesatellites=""
       mode="vertical"
       discard_orig_path="false"
       fuse_paths="false"
       oposite_fuse="false"
       split_items="false"
       split_open="false"
       link_styles="false" /><inkscape:path-effect
       effect="mirror_symmetry"
       start_point="99.999999,0"
       end_point="99.999999,200"
       center_point="99.999999,99.999999"
       id="path-effect675"
       is_visible="false"
       lpeversion="1.2"
       lpesatellites=""
       mode="vertical"
       discard_orig_path="false"
       fuse_paths="false"
       oposite_fuse="false"
       split_items="false"
       split_open="false"
       link_styles="false" /><inkscape:path-effect
       effect="perspective-envelope"
       up_left_point="75.128073,68.571065"
       up_right_point="93.683088,68.571065"
       down_left_point="75.347369,87.818045"
       down_right_point="99.492565,89.201547"
       id="path-effect673"
       is_visible="true"
       lpeversion="1"
       deform_type="perspective"
       horizontal_mirror="false"
       vertical_mirror="false"
       overflow_perspective="false" /><inkscape:path-effect
       effect="mirror_symmetry"
       start_point="99.999999,0"
       end_point="99.999999,200"
       center_point="99.999999,99.999999"
       id="path-effect671"
       is_visible="false"
       lpeversion="1.2"
       lpesatellites=""
       mode="vertical"
       discard_orig_path="false"
       fuse_paths="false"
       oposite_fuse="false"
       split_items="false"
       split_open="false"
       link_styles="false" /><inkscape:path-effect
       effect="mirror_symmetry"
       start_point="98.850248,-10.060325"
       end_point="98.850248,189.93967"
       center_point="98.850248,89.939674"
       id="path-effect668"
       is_visible="false"
       lpeversion="1.2"
       lpesatellites=""
       mode="vertical"
       discard_orig_path="false"
       fuse_paths="false"
       oposite_fuse="false"
       split_items="false"
       split_open="false"
       link_styles="false" /><linearGradient
       id="linearGradient4769"
       inkscape:swatch="gradient"><stop
         style="stop-color:#ffffff;stop-opacity:1;"
         offset="0"
         id="stop4765" /><stop
         style="stop-color:#ffffff;stop-opacity:0;"
         offset="1"
         id="stop4767" /></linearGradient><linearGradient
       id="linearGradient2383"
       inkscape:swatch="solid"><stop
         style="stop-color:#000000;stop-opacity:1;"
         offset="0"
         id="stop2381" /></linearGradient></defs><path
     id="path489"
     style="color:#000000;display:none;fill:#000000;stroke:#ffffff;stroke-width:2.5;stroke-linecap:round;stroke-linejoin:round;stroke-miterlimit:30;stroke-dasharray:none;stroke-opacity:1;paint-order:markers stroke fill"
     d="m 122.37924,60.135283 a 1.3126312,1.3126312 0 0 0 -0.80498,0.22996 l -13.14261,9.052677 c -2.71833,-0.506364 -5.54015,-0.828075 -8.431659,-0.828115 -2.891504,4e-5 -5.713344,0.321751 -8.431656,0.828115 L 78.425726,60.365243 a 1.3126312,1.3126312 0 0 0 -1.218659,-0.140689 1.3126312,1.3126312 0 0 0 -0.804731,0.92785 l -3.597713,15.570238 a 1.3126312,1.3126312 0 0 0 -0.02338,0.459016 l 1.304701,10.441352 -1.308577,14.41217 a 1.3126312,1.3126312 0 0 0 0.07816,0.33202 h -2.933671 a 1.3126312,1.3126312 0 0 0 -1.312452,1.31245 v 6.25595 a 1.3126312,1.3126312 0 0 0 0.380855,0.92579 c 3.683384,3.69928 8.206109,6.75074 13.402283,9.27927 5.030723,2.44803 9.80244,3.97002 12.765628,4.82025 2.429609,0.69717 3.65056,0.98083 4.128947,1.08792 l -0.10542,-0.0293 c 0.365342,0.11443 0.698528,0.15626 0.699183,0.15632 a 1.3126312,1.3126312 0 0 0 0.23822,0 c 6.6e-4,-6e-5 0.3339,-0.0419 0.69932,-0.15632 l -0.10555,0.0293 c 0.47834,-0.10707 1.69933,-0.39074 4.12894,-1.08792 2.9632,-0.85024 7.73492,-2.37223 12.76563,-4.82025 5.19617,-2.52852 9.71889,-5.57998 13.40229,-9.27927 a 1.3126312,1.3126312 0 0 0 0.38085,-0.92579 v -6.25595 a 1.3126312,1.3126312 0 0 0 -1.31245,-1.31245 h -2.11525 -0.75589 a 1.3126312,1.3126312 0 0 0 0.0156,-0.33202 l -1.30858,-14.41217 1.3047,-10.441352 a 1.3126312,1.3126312 0 0 0 -0.0234,-0.459016 L 123.5976,61.152404 a 1.3126312,1.3126312 0 0 0 -1.21841,-1.017121 z"
     inkscape:label="BGW"
     transform="translate(-50.000023,-41.345344)" /><path
     id="path486"
     style="color:#000000;display:inline;fill:#000000;fill-opacity:1;stroke:#000000;stroke-width:2.625;stroke-linecap:round;stroke-linejoin:round;stroke-miterlimit:30;stroke-dasharray:none;stroke-opacity:1;paint-order:markers stroke fill"
     inkscape:label="BG"
     d="m 77.681198,61.447089 -3.597455,15.570884 1.322917,10.583333 -1.322917,14.552084 0.953947,1.52626 h -2.180745 -2.935738 v 6.25634 c 3.558886,3.57425 7.95367,6.54639 13.045715,9.02425 4.929375,2.39871 9.630017,3.90071 12.552464,4.73925 2.408407,0.69109 3.591455,0.96484 4.054145,1.06841 0.27233,0.0853 0.425805,0.10006 0.42646,0.10012 6.59e-4,-6e-5 0.154129,-0.0148 0.426459,-0.10012 0.46269,-0.10357 1.64587,-0.37732 4.05427,-1.06841 2.92245,-0.83854 7.62296,-2.34054 12.55234,-4.73925 5.09204,-2.47786 9.48696,-5.45 13.04584,-9.02425 v -6.25634 h -2.11666 -0.8192 -2.18075 l 0.95395,-1.52626 -1.32292,-14.552084 1.32292,-10.583333 -3.59733,-15.570884 -13.52824,9.317648 c -2.81069,-0.563498 -5.77428,-0.863083 -8.79055,-0.863125 h -1.29e-4 -1.29e-4 c -3.016267,4.2e-5 -5.979862,0.299627 -8.790549,0.863125 z"
     transform="translate(-50.000023,-41.345344)" /><path
     id="path539"
     style="color:#000000;display:inline;fill:#ffffff;stroke-linecap:round;stroke-linejoin:round;stroke-miterlimit:30;-inkscape-stroke:none;paint-order:markers stroke fill"
     inkscape:label="WHITE"
     d="m 122.34139,61.389987 c -0.0191,-0.0074 -0.0406,-0.005 -0.0576,0.0065 L 108.774,70.701175 c -2.80678,-0.560699 -5.76337,-0.861275 -8.77375,-0.861317 h -2.59e-4 v 49.029182 0.73638 h 1.29e-4 v -0.73638 c 0.003,8.2e-4 0.005,0.001 0.008,0.002 3.55543,-0.4229 7.08084,-1.17718 10.4668,-2.29882 l 2.95706,0.64453 c 0.0242,0.006 0.0494,-0.004 0.0643,-0.0234 l 1.87108,-2.55269 c 1.4497,-0.6719 2.85872,-1.42301 4.21873,-2.254 0.009,-0.005 0.016,-0.0114 0.0216,-0.0195 l 6.36124,-10.18155 c 0.007,-0.011 0.0107,-0.024 0.0101,-0.0371 l -1.32227,-14.546915 1.32227,-10.576228 c 6e-4,-0.0072 -5e-5,-0.01446 -0.002,-0.02145 L 122.3795,61.433653 c -0.005,-0.01992 -0.019,-0.03623 -0.0381,-0.04367 z m -2.41923,5.541134 c 0.033,0.01236 0.0588,0.03879 0.0703,0.07209 l 3.5587,9.916965 c 0.006,0.01473 0.008,0.03045 0.008,0.04625 l -0.40838,7.928715 c -0.007,0.1254 -0.1789,0.154808 -0.22724,0.03889 l -2.71069,-6.648302 -6.80902,-5.570978 -7.19891,2.512896 c -0.14028,0.05952 -0.23561,-0.145343 -0.0997,-0.214328 l 13.71777,-8.072892 c 0.0301,-0.01756 0.0664,-0.02097 0.0992,-0.0093 z m 7.25356,36.686129 c -0.0214,1.1e-4 -0.0412,0.0111 -0.0526,0.0292 l -5.71296,9.1426 c -0.006,0.0101 -0.008,0.0216 -0.008,0.0332 v 3.73633 c -3.6e-4,0.0483 0.0518,0.0787 0.0937,0.0546 3.24682,-1.94402 6.14392,-4.13898 8.62699,-6.6328 0.0116,-0.012 0.0179,-0.0281 0.0176,-0.0448 v -6.25582 c 1e-5,-0.0345 -0.0279,-0.0625 -0.0624,-0.0625 z m -7.76826,10.95347 c -0.0145,-0.003 -0.0295,0 -0.0422,0.007 -0.99619,0.55777 -2.00588,1.09159 -3.04297,1.57226 -0.009,0.004 -0.0174,0.0112 -0.0235,0.0195 l -1.99019,2.71482 c -0.001,0.001 -0.002,0.002 -0.004,0.002 -6.4e-4,-1e-5 -10e-4,-1e-5 -0.002,0 l -3.14451,-0.68562 c -0.0111,-0.002 -0.0225,-0.002 -0.0332,0.002 -3.598,1.19187 -7.34415,1.99393 -11.12296,2.44339 -6.5e-4,-10e-6 -0.001,-10e-6 -0.002,0 v 4.2832 c 0.002,9e-5 0.004,9e-5 0.006,0 0,0 0.16216,-0.0147 0.43951,-0.10155 h -0.006 c 0.46344,-0.10374 1.64929,-0.37691 4.05867,-1.06828 2.92435,-0.8391 7.62834,-2.3431 12.56254,-4.74415 0.80885,-0.39356 1.59257,-0.804 2.36523,-1.22267 0.0203,-0.0108 0.033,-0.0318 0.0332,-0.0548 v -3.10537 c 2.9e-4,-0.0305 -0.0215,-0.0568 -0.0516,-0.0621 z M 77.658655,61.389987 c 0.0191,-0.0074 0.04063,-0.005 0.05762,0.0065 l 13.50977,9.304729 c 2.80678,-0.560699 5.76337,-0.861275 8.77375,-0.861317 h 2.55e-4 v 49.029181 0.73638 h -1.25e-4 v -0.73638 c -0.0026,8.2e-4 -0.0053,0.001 -0.008,0.002 -3.55543,-0.4229 -7.08084,-1.17718 -10.4668,-2.29882 l -2.95706,0.64453 c -0.02419,0.006 -0.04944,-0.004 -0.06433,-0.0234 l -1.87108,-2.55269 c -1.4497,-0.6719 -2.85872,-1.42301 -4.21873,-2.254 -0.0086,-0.005 -0.01602,-0.0114 -0.02158,-0.0195 l -6.36124,-10.18155 c -0.0072,-0.011 -0.01069,-0.024 -0.01007,-0.0371 l 1.32227,-14.546914 -1.32227,-10.576228 c -6.02e-4,-0.0072 5.1e-5,-0.01446 0.0019,-0.02145 l 3.59759,-15.570238 c 0.0048,-0.01992 0.01902,-0.03623 0.03811,-0.04367 z m 2.41923,5.541134 c -0.033,0.01236 -0.05876,0.03879 -0.07028,0.07209 l -3.5587,9.916965 c -0.0057,0.01473 -0.0085,0.03045 -0.008,0.04625 l 0.40838,7.928715 c 0.007,0.1254 0.178897,0.154808 0.22724,0.03889 l 2.71069,-6.648302 6.80902,-5.570978 7.19891,2.512896 c 0.140275,0.05952 0.235612,-0.145343 0.09974,-0.214328 l -13.71777,-8.072892 c -0.03009,-0.01756 -0.06639,-0.02097 -0.09922,-0.0093 z m -7.25356,36.686129 c 0.02137,1.1e-4 0.0412,0.0111 0.05258,0.0292 l 5.71296,9.1426 c 0.0057,0.0101 0.0085,0.0216 0.008,0.0332 v 3.73633 c 3.61e-4,0.0483 -0.05182,0.0787 -0.09367,0.0546 -3.24682,-1.94402 -6.14392,-4.13898 -8.62699,-6.6328 -0.01161,-0.012 -0.01794,-0.0281 -0.01757,-0.0448 v -6.25582 c -1.4e-5,-0.0345 0.02791,-0.0625 0.0624,-0.0625 z m 7.76826,10.95347 c 0.01451,-0.003 0.02947,0 0.04224,0.007 0.99619,0.55777 2.00588,1.09159 3.04297,1.57226 0.0093,0.004 0.01741,0.0112 0.02351,0.0195 l 1.99019,2.71482 c 10e-4,0.001 0.002,0.002 0.004,0.002 6.43e-4,-1e-5 0.0013,-1e-5 0.0019,0 l 3.14451,-0.68562 c 0.01105,-0.002 0.02253,-0.002 0.03321,0.002 3.598,1.19187 7.34415,1.99393 11.12296,2.44339 6.46e-4,-10e-6 0.0013,-10e-6 0.0019,0 v 4.2832 c -0.0019,9e-5 -0.0039,9e-5 -0.0058,0 0,0 -0.16216,-0.0147 -0.43951,-0.10155 h 0.0059 c -0.46344,-0.10374 -1.64929,-0.37691 -4.05867,-1.06828 -2.92435,-0.8391 -7.62834,-2.3431 -12.56254,-4.74415 -0.80885,-0.39356 -1.59257,-0.804 -2.36523,-1.22267 -0.02029,-0.0108 -0.03304,-0.0318 -0.0332,-0.0548 v -3.10537 c -2.94e-4,-0.0305 0.0215,-0.0568 0.05155,-0.0621 z"
     transform="translate(-50.000023,-41.345344)" /><path
     id="path546"
     style="display:inline;fill:#000000;fill-opacity:1;stroke-width:5.53758;stroke-linejoin:round;stroke-miterlimit:30"
     class="UnoptimicedTransforms"
     inkscape:label="EYE_ANGY_B"
     d="m 77.326029,86.827774 c -0.05494,0.0012 -0.09995,0.03838 -0.130096,0.10865 -0.06139,0.142133 -0.05423,0.403053 0.01873,0.684454 l 2.180875,8.401813 c -0.75047,1.283678 -1.183778,2.775464 -1.183778,4.369759 0,4.79136 3.884095,8.67544 8.675439,8.67544 4.791359,0 8.67544,-3.88408 8.67544,-8.67544 0,-0.0893 -0.0014,-0.17831 -0.0044,-0.26691 L 83.573193,93.205938 77.511289,86.929835 c -0.04375,-0.04512 -0.08679,-0.07602 -0.127124,-0.09121 -0.02034,-0.0076 -0.03982,-0.01127 -0.05814,-0.01085 z m 45.347881,0 c -0.0183,-4.15e-4 -0.0377,0.0032 -0.058,0.01085 -0.0403,0.01519 -0.0834,0.04608 -0.12712,0.09121 l -6.06204,6.276232 -11.98505,6.919474 c -0.003,0.0886 -0.004,0.1776 -0.004,0.26691 0,4.79136 3.88421,8.67544 8.67557,8.67544 4.79135,0 8.67544,-3.88408 8.67544,-8.67544 0,-1.594256 -0.43347,-3.085974 -1.18391,-4.369631 l 2.18088,-8.401942 c 0.073,-0.281401 0.0801,-0.542321 0.0187,-0.684454 -0.0301,-0.07027 -0.0752,-0.107403 -0.13009,-0.10865 z"
     transform="translate(-50.000023,-41.345344)" /><path
     id="path549"
     style="display:inline;fill:#ffffff;fill-opacity:1;stroke-width:5.53758;stroke-linejoin:round;stroke-miterlimit:30"
     class="UnoptimicedTransforms"
     inkscape:label="EYE_ANGY_PUPIL"
     d="m 82.780882,92.748636 c -2.720144,1.464364 -4.569224,4.338109 -4.569224,7.643844 0,4.79136 3.884238,8.67539 8.675582,8.67539 4.791358,0 8.675389,-3.88403 8.675389,-8.67539 0,-0.0811 -0.0016,-0.1619 -0.004,-0.2424 -0.04102,4.04894 -3.332606,7.3195 -7.391251,7.3195 -4.084152,0 -7.394906,-3.31094 -7.394906,-7.3951 0,-2.718406 1.469146,-5.090523 3.654456,-6.375485 z m 48.053518,0 -1.646,0.950166 c 2.1854,1.28494 3.65465,3.657204 3.65465,6.375678 0,4.08416 -3.31095,7.3951 -7.3951,7.3951 -4.05956,0 -7.35169,-3.27199 -7.39125,-7.32219 -0.003,0.0814 -0.004,0.16312 -0.004,0.24509 0,4.79136 3.88422,8.67539 8.67558,8.67539 4.79134,0 8.67539,-3.88403 8.67539,-8.67539 0,-3.305735 -1.84908,-6.17948 -4.56923,-7.643844 z"
     transform="matrix(0.67154008,0,0,0.67154008,-21.725645,-7.8041605)" /></svg>
